<svg xmlns="http://www.w3.org/2000/svg" id="Layer_1" width="1518" height="387" viewBox="0 0 1518 387"><defs><style>.cls-1{fill:none;}.cls-2{fill:#3f4040;}.cls-3{fill:#d1d2d3;}.cls-4{fill:#bd2226;}</style></defs><polygon class="cls-2" points="185.39 132.78 171.76 145.2 129.1 7.12 115.5 31.76 175.07 230.07 188.73 219.48 238.56 377.53 264.25 381.11 185.39 132.78"></polygon><polygon class="cls-3" points="221.76 375.26 142.58 334.19 132.6 300.33 3 224.51 190.06 272.99 221.76 375.26"></polygon><path class="cls-4" d="M678.54,67.95h-44.88s-26.66,75.15-29.39,82.79c-2.7-7.65-29.22-82.79-29.22-82.79h-46.85v135.08h32.51v-92.66c5.13,15.48,30.59,92.66,30.59,92.66h24.63s26.71-78.02,31.87-93.01v93.01h32.52V67.95h-1.78Z"></path><path class="cls-4" d="M985.51,67.95h-30.74v87.46c-5.28-8.58-53.47-87.46-53.47-87.46h-42.18v135.08h32.55v-89.67c5.27,8.59,54.97,89.67,54.97,89.67h40.66V67.95h-1.79Z"></path><path class="cls-4" d="M769.74,64.64c-43.52,0-72.75,28.48-72.75,70.87s29.91,70.86,72.75,70.86,72.73-29.14,72.73-70.86-29.24-70.87-72.73-70.87M769.74,176.06c-23.37,0-39.1-16.3-39.1-40.55s15.73-40.56,39.1-40.56,39.05,16.31,39.05,40.56-15.71,40.55-39.05,40.55"></path><path class="cls-4" d="M1080.88,67.95h-26.31l-58.34,135.08h35.87s10.13-25.79,10.96-27.84h48.62c.85,2.02,11.35,27.84,11.35,27.84h36.62l-58.78-135.08ZM1053.54,147.09c1.5-3.83,10.91-27.82,13.35-34.19,2.53,6.35,12.03,30.36,13.55,34.19h-26.89Z"></path><path class="cls-4" d="M1225.05,146.67c17.17-4.18,27.55-17.61,27.55-36.98,0-27.26-17.79-41.74-51.39-41.74h-52.64v135.08h32.57v-52.53h11.39c.95,1.83,27.53,52.53,27.53,52.53h38.91s-31.86-52.93-33.92-56.37M1196.4,122.39h-15.27v-26.32h17.14c14.27,0,20.67,4.13,20.67,13.42,0,11.92-10.65,12.91-22.54,12.91"></path><path class="cls-4" d="M1262.94,135.5c0,41.72,29.91,70.86,72.73,70.86,20.33,0,38.64-8.83,48.99-23.61l1.03-1.42-27.07-20.14-1.03,1.54c-5.73,8.56-14.81,13.32-25.62,13.32-20.18,0-35.34-17.45-35.34-40.55s15.23-40.55,36.27-40.55c9.98,0,17.89,3.4,23.53,10.12l1.09,1.37,25.03-20.41-1.09-1.39c-14.48-18.54-38.68-19.99-45.79-19.99-42.81,0-72.73,29.13-72.73,70.86"></path><polygon class="cls-4" points="1513.21 67.95 1482.48 67.95 1482.48 117.04 1429.77 117.04 1429.77 67.95 1397.21 67.95 1397.21 203.03 1429.77 203.03 1429.77 146.21 1482.48 146.21 1482.48 203.03 1515 203.03 1515 67.95 1513.21 67.95"></polygon><path class="cls-4" d="M361.53,125.62c6.68-2.39,14.14,1.15,17.85,7.96l21.97-4.78-10.02-24.69-195.08,25.82,12.98,40.78,143.32-31.24c.04-6.23,3.44-11.81,8.98-13.85M342.8,27.25L140.83,5.89l37.26,118.72,12.63-10.67,179.44-18.77-27.35-67.92ZM404.95,137.76l-23.53,6.23c-.61,5.49-3.81,10.28-8.83,12.13-5.82,2.11-12.22-.32-16.23-5.47l-141.59,37.6,10.07,31.7,188.51-61.4-8.42-20.8ZM291.12,284.25c6.83-2.06,14.05.24,19.24,5.42l129.87-64.76-10.77-26.64-183.97,86.52,10.16,32.15,22.15-11.04c-.75-9.87,4.54-18.94,13.33-21.66M444.07,234.46l-126.75,69.19c1.58,10.54-3.82,20.57-13.12,23.41-6.97,2.12-14.25-.31-19.49-5.61l-23.56,12.84,14.63,45.94,177.15-123.86-8.86-21.92ZM417.07,167.68l-186.67,69.73,9.54,30.01,185.76-78.41-8.63-21.33Z"></path><polygon class="cls-1" points="977.33 273.36 999.49 273.36 988.68 246.53 977.33 273.36"></polygon><polygon class="cls-2" points="796.91 280.23 774.73 229.01 759.3 229.01 759.3 301.89 771.45 301.89 771.45 251.38 793.08 301.89 800.67 301.89 822.25 251.44 822.25 301.89 834.47 301.89 834.47 229.01 819.25 229.01 796.91 280.23"></polygon><polygon class="cls-2" points="861.85 269.78 894.66 269.78 894.66 258.18 861.85 258.18 861.85 240.59 896.97 240.59 896.97 229.01 849.67 229.01 849.67 301.89 898.75 301.89 898.75 290.26 861.85 290.26 861.85 269.78"></polygon><polygon class="cls-2" points="960.76 229.01 903.05 229.01 903.05 240.59 925.82 240.59 925.82 301.88 937.99 301.88 937.99 240.59 960.76 240.59 960.76 229.01"></polygon><path class="cls-2" d="M983.83,229l-32.16,72.88h13.67l7.08-16.94h31.81l7.03,16.94h13.9l-31.02-72.88h-10.31ZM977.33,273.36l11.34-26.83,10.82,26.83h-22.16Z"></path><polygon class="cls-2" points="1043.42 229.01 1031.26 229.01 1031.26 301.89 1074.99 301.89 1074.99 290.26 1043.42 290.26 1043.42 229.01"></polygon><rect class="cls-2" x="1112.62" y="229.08" width="12.17" height="72.87"></rect><path class="cls-2" d="M1259,281.64l-1.28,1.62c-4.63,5.87-10.82,8.85-18.4,8.85-14.05,0-24.25-11.18-24.25-26.59s10.65-26.58,24.25-26.58c6.42,0,12.12,2.74,15.64,7.52l1.18,1.6,10.33-7.52-1.25-1.63c-5.71-7.46-14.91-11.56-25.91-11.56-21.12,0-37.04,16.41-37.04,38.17s15.93,38.18,37.04,38.18c12.03,0,21.36-4.33,27.7-12.85l1.12-1.51-9.15-7.69Z"></path><polygon class="cls-2" points="1182.67 282.18 1145.58 229.08 1132.23 229.08 1132.23 301.95 1144.42 301.95 1144.42 248.81 1181.48 301.95 1194.83 301.95 1194.83 229.08 1182.67 229.08 1182.67 282.18"></polygon><path class="cls-2" d="M1275.77,287.43c-4.49,0-8.14,3.65-8.14,8.14s3.65,8.14,8.14,8.14,8.14-3.65,8.14-8.14-3.65-8.14-8.14-8.14Z"></path></svg>