<svg xmlns="http://www.w3.org/2000/svg" xmlns:svg="http://www.w3.org/2000/svg" xmlns:xlink="http://www.w3.org/1999/xlink" xmlns:sodipodi="http://sodipodi.sourceforge.net/DTD/sodipodi-0.dtd" xmlns:inkscape="http://www.inkscape.org/namespaces/inkscape" height="2000.5196850393702" preserveAspectRatio="xMidYMid meet" viewBox="0 550 793.7007874015749 1000" width="1500.7007874015749" >
    <defs><marker id="DistanceX" orient="auto" refX="0.0" refY="0.0" style="overflow:visible"><path d="M 3,-3 L -3,3 M 0,-5 L  0,5" style="stroke:#000000; stroke-width:0.5"/></marker><pattern id="Hatch" patternUnits="userSpaceOnUse" width="8" height="8" x="0" y="0"><path d="M8 4 l-4,4" stroke="#000000" stroke-width="0.25" linecap="square"/><path d="M6 2 l-4,4" stroke="#000000" stroke-width="0.25" linecap="square"/><path d="M4 0 l-4,4" stroke="#000000" stroke-width="0.25" linecap="square"/></pattern><symbol id="*MODEL_SPACE"/><symbol id="*PAPER_SPACE"/><symbol id="_CLOSED"><path style="fill:none;stroke:#000000;stroke-linecap:round" d="M -36.0773 1116.51 L 0 1122.52"/><path style="fill:none;stroke:#000000;stroke-linecap:round" d="M 0 1122.52 L -36.0773 1128.53"/><path style="fill:none;stroke:#000000;stroke-linecap:round" d="M -36.0773 1116.51 L -36.0773 1128.53"/><path style="fill:none;stroke:#000000;stroke-linecap:round" d="M 0 1122.52 L -36.0773 1122.52"/></symbol><symbol id="DATUMFILLED45"><path d="M 0.000000,1086.442377 L 0.000000,1158.596994 L -36.077309,1122.519685 L 0.000000,1086.442377" style="fill:none;stroke:#000000"/><path style="fill:none;stroke:#000000" d="M 0 1086.44 L 0 1158.6 L 0 1086.44 z"/></symbol><symbol id="FILLED-1"><path style="fill:none;stroke:#000000" d="M -36.0773 1122.52 L 0 1122.52"/><path d="M -36.077309,1126.109009 L 0.000000,1122.519685 L -36.077309,1118.930361 L -36.077309,1126.109009" style="fill:none;stroke:#000000"/><path style="fill:none;stroke:#000000" d="M -36.0773 1126.11 L 0 1122.52 L -36.0773 1126.11 z"/><path style="fill:none;stroke:#000000" d="M -36.0773 1126.11 L 0 1122.52"/><path style="fill:none;stroke:#000000" d="M 0 1122.52 L -36.0773 1118.93"/><path style="fill:none;stroke:#000000" d="M -36.0773 1118.93 L -36.0773 1126.11"/></symbol><symbol id="BORDERS_MONARCHMODERNBORDE"><path style="fill:none;stroke:#000000" d="M 0 815.863 L 396.85 815.863"/><path style="fill:none;stroke:#000000" d="M 396.85 815.863 L 396.85 1122.52"/><path style="fill:none;stroke:#000000" d="M 396.85 1122.52 L 0 1122.52"/><path style="fill:none;stroke:#000000" d="M 0 1122.52 L 0 815.863"/><path style="fill:none;stroke:#000000" d="M 396.85 815.863 L 0 815.863"/><path style="fill:none;stroke:#000000" d="M 0 815.863 L 0 1122.52"/><path style="fill:none;stroke:#000000" d="M 0 1122.52 L 396.85 1122.52"/><path style="fill:none;stroke:#000000" d="M 396.85 1122.52 L 396.85 815.863"/></symbol><symbol id="TITLE_BLOCKS_MONARCHMODERN"><path d="M 6.823468,1052.158094 L 6.823468,1052.446713 L 69.958758,1052.446713 L 69.958758,1065.975703 L 70.247376,1065.975703 L 70.247376,1052.446713 L 151.421320,1052.446713 L 151.421320,1065.975703 L 151.709939,1065.975703 L 151.709939,1052.446713 L 187.787247,1052.446713 L 187.787247,1065.975703 L 188.075866,1065.975703 L 188.075866,1052.446713 L 242.191828,1052.446713 L 242.191828,1052.158094 L 188.075866,1052.158094 L 188.075866,1038.629103 L 187.787247,1038.629103 L 187.787247,1052.158094 L 151.709939,1052.158094 L 151.709939,1038.629103 L 151.421320,1038.629103 L 151.421320,1052.158094 L 70.247376,1052.158094 L 70.247376,1038.629103 L 69.958758,1038.629103 L 69.958758,1052.158094 L 6.823468,1052.158094 z " style="fill:#848484"/><path d="M 6.823468,1115.401616 L 390.075837,1115.401616 L 390.075837,1115.762389 L 6.823468,1115.762389 L 6.823468,1115.401616 z " style="fill:#848484"/><path d="M 390.075837,822.634207 L 390.075837,822.994980 L 6.823468,822.994980 L 6.823468,822.634207 L 390.075837,822.634207 z " style="fill:#848484"/><path d="M 6.823468,1068.140342 L 6.823468,1113.236977 L 198.449652,1113.236977 L 198.449652,1068.140342 L 6.823468,1068.140342 z " style="fill:#000000"/><path d="M 390.075837,1113.236977 L 390.075837,1068.140342 L 198.449652,1068.140342 L 198.449652,1113.236977 L 390.075837,1113.236977 z " style="fill:#000000"/><path style="fill:none;stroke:#848484" d="M 6.82347 1068.14 L 390.076 1068.14"/><path style="fill:none;stroke:#848484" d="M 390.076 1068.14 L 390.076 1113.24"/><path style="fill:none;stroke:#848484" d="M 390.076 1113.24 L 6.82347 1113.24"/><path style="fill:none;stroke:#848484" d="M 6.82347 1113.24 L 6.82347 1068.14"/><path style="fill:none;stroke:#848484" d="M 390.076 1115.4 L 6.82347 1115.4"/><path style="fill:none;stroke:#848484" d="M 6.82347 1115.4 L 6.82347 1115.76"/><path style="fill:none;stroke:#848484" d="M 6.82347 1115.76 L 390.076 1115.76"/><path style="fill:none;stroke:#848484" d="M 390.076 1115.76 L 390.076 1115.4"/><path style="fill:none;stroke:#848484" d="M 242.192 1052.16 L 242.192 1052.45"/><path style="fill:none;stroke:#848484" d="M 6.82347 1052.45 L 6.82347 1052.16"/><path style="fill:none;stroke:#848484" d="M 187.787 1038.63 L 188.076 1038.63"/><path style="fill:none;stroke:#848484" d="M 188.076 1065.98 L 187.787 1065.98"/><path style="fill:none;stroke:#848484" d="M 151.421 1038.63 L 151.71 1038.63"/><path style="fill:none;stroke:#848484" d="M 151.71 1065.98 L 151.421 1065.98"/><path style="fill:none;stroke:#848484" d="M 69.9588 1038.63 L 70.2474 1038.63"/><path style="fill:none;stroke:#848484" d="M 70.2474 1065.98 L 69.9588 1065.98"/><path style="fill:none;stroke:#848484" d="M 6.82347 822.634 L 390.076 822.634"/><path style="fill:none;stroke:#848484" d="M 390.076 822.634 L 390.076 822.995"/><path style="fill:none;stroke:#848484" d="M 390.076 822.995 L 6.82347 822.995"/><path style="fill:none;stroke:#848484" d="M 6.82347 822.995 L 6.82347 822.634"/><path style="fill:none;stroke:#848484" d="M 151.421 1065.98 L 151.421 1052.45"/><path style="fill:none;stroke:#848484" d="M 151.421 1052.16 L 151.421 1038.63"/><path style="fill:none;stroke:#848484" d="M 151.71 1038.63 L 151.71 1052.16"/><path style="fill:none;stroke:#848484" d="M 151.71 1052.45 L 151.71 1065.98"/><path style="fill:none;stroke:#848484" d="M 6.82347 1052.16 L 69.9588 1052.16"/><path style="fill:none;stroke:#848484" d="M 70.2474 1052.16 L 151.421 1052.16"/><path style="fill:none;stroke:#848484" d="M 69.9588 1065.98 L 69.9588 1052.45"/><path style="fill:none;stroke:#848484" d="M 69.9588 1052.16 L 69.9588 1038.63"/><path style="fill:none;stroke:#848484" d="M 70.2474 1038.63 L 70.2474 1052.16"/><path style="fill:none;stroke:#848484" d="M 70.2474 1052.45 L 70.2474 1065.98"/><path style="fill:none;stroke:#848484" d="M 151.421 1052.45 L 70.2474 1052.45"/><path style="fill:none;stroke:#848484" d="M 69.9588 1052.45 L 6.82347 1052.45"/><path style="fill:none;stroke:#848484" d="M 188.076 1038.63 L 188.076 1052.16"/><path style="fill:none;stroke:#848484" d="M 188.076 1052.45 L 188.076 1065.98"/><path style="fill:none;stroke:#848484" d="M 187.787 1065.98 L 187.787 1052.45"/><path style="fill:none;stroke:#848484" d="M 187.787 1052.16 L 187.787 1038.63"/><path style="fill:none;stroke:#848484" d="M 242.192 1052.45 L 188.076 1052.45"/><path style="fill:none;stroke:#848484" d="M 187.787 1052.45 L 151.71 1052.45"/><path style="fill:none;stroke:#848484" d="M 151.71 1052.16 L 187.787 1052.16"/><path style="fill:none;stroke:#848484" d="M 188.076 1052.16 L 242.192 1052.16"/><path d="M 265.881905,1050.375440 A 4.509664,4.509664 0.000000 0, 0 256.862578,1050.375440 A 4.509664,4.509664 0.000000 0, 0 265.881905,1050.375440 z" style="fill:none;stroke:#000000"/><path d="M 270.391569,1050.375440 A 9.019327,9.019327 0.000000 0, 0 252.352914,1050.375440 A 9.019327,9.019327 0.000000 0, 0 270.391569,1050.375440 z" style="fill:none;stroke:#000000"/><path style="fill:none;stroke:#000000" d="M 292.94 1041.36 L 292.94 1059.39"/><path style="fill:none;stroke:#000000" d="M 274.901 1045.87 L 274.901 1054.89"/><path style="fill:none;stroke:#000000" d="M 274.901 1045.87 L 292.94 1041.36"/><path style="fill:none;stroke:#000000" d="M 274.901 1054.89 L 292.94 1059.39"/><path style="fill:none;stroke:#FF0000;stroke-dasharray:34.0858,4.2643,8.5215,4.2643," d="M 261.372 1039.1 L 261.372 1061.65"/><path style="fill:none;stroke:#FF0000;stroke-dasharray:34.0858,4.2643,8.5215,4.2643," d="M 250.098 1050.38 L 295.195 1050.38"/><path style="fill:none;stroke:#848484" d="M 6.82347 1034.84 L 242.188 1034.84"/><path style="fill:none;stroke:#848484" d="M 242.188 1034.84 L 242.188 1068.14"/><path style="fill:none;stroke:#848484" d="M 242.188 1068.14 L 6.82347 1068.14"/><path style="fill:none;stroke:#848484" d="M 6.82347 1068.14 L 6.82347 1034.84"/><text x="169.748593" y="1054.222631" style="font-size: 3.608px; fill: #000000; font-family: Arial; text-anchor: middle" sodipodi:linespacing="125%"><tspan sodipodi:role="line" dx="0.000000" dy="3.607731"></tspan><tspan style="font-size:3.608px">Scale</tspan><tspan></tspan><tspan style="font-size:3.608px"></tspan><tspan sodipodi:role="line" x="169.74859295967784" dy="3.607731" style="font-size:3.608px"></tspan><tspan></tspan><tspan style="font-size:3.608px">1 / 2</tspan></text><text x="215.133847" y="1054.070191" style="font-size: 3.608px; fill: #000000; font-family: Arial; text-anchor: middle" sodipodi:linespacing="125%"><tspan sodipodi:role="line" dx="0.000000" dy="3.607731"></tspan><tspan style="font-size:3.608px">Rev</tspan><tspan sodipodi:role="line" x="215.13384707564057" dy="3.607731" style="font-size:3.608px"></tspan></text><text x="10.431199" y="1103.315718" style="font-size: 3.608px; fill: #000000; font-family: Arial; text-anchor: start" sodipodi:linespacing="125%"><tspan sodipodi:role="line" dx="0.000000" dy="3.607731">Finish: Mill</tspan></text><text x="280.526793" y="1087.625936" style="font-size: 2.165px; fill: #000000; font-family: Arial; text-anchor: middle" sodipodi:linespacing="125%"><tspan sodipodi:role="line" dx="0.000000" dy="2.164639"></tspan><tspan style="font-size:2.165px">New York</tspan><tspan sodipodi:role="line" x="280.5267927198779" dy="2.164639" style="font-size:2.165px"></tspan><tspan></tspan><tspan style="font-size:2.165px">1700 Ocean Ave Suite 2</tspan><tspan sodipodi:role="line" x="280.5267927198779" dy="2.164639" style="font-size:2.165px"></tspan><tspan></tspan><tspan style="font-size:2.165px">Ronkonkoma NY 11779</tspan><tspan sodipodi:role="line" x="280.5267927198779" dy="2.164639" style="font-size:2.165px"></tspan><tspan></tspan><tspan style="font-size:2.165px">Phone: (631) 750-3000</tspan><tspan sodipodi:role="line" x="280.5267927198779" dy="2.164639" style="font-size:2.165px"></tspan></text><text x="323.368597" y="1087.625936" style="font-size: 2.165px; fill: #000000; font-family: Arial; text-anchor: middle" sodipodi:linespacing="125%"><tspan sodipodi:role="line" dx="0.000000" dy="2.164639"></tspan><tspan style="font-size:2.165px">Nevada</tspan><tspan sodipodi:role="line" x="323.3685965853038" dy="2.164639" style="font-size:2.165px"></tspan><tspan></tspan><tspan style="font-size:2.165px">1080 Linda Way, Unit 10</tspan><tspan sodipodi:role="line" x="323.3685965853038" dy="2.164639" style="font-size:2.165px"></tspan><tspan></tspan><tspan style="font-size:2.165px">Sparks, NV 89431</tspan><tspan sodipodi:role="line" x="323.3685965853038" dy="2.164639" style="font-size:2.165px"></tspan><tspan></tspan><tspan style="font-size:2.165px">Phone: (775) 415-0100</tspan></text><text x="366.210400" y="1087.531895" style="font-size: 2.165px; fill: #000000; font-family: Arial; text-anchor: middle" sodipodi:linespacing="125%"><tspan sodipodi:role="line" dx="0.000000" dy="2.164639"></tspan><tspan style="font-size:2.165px">Texas</tspan><tspan></tspan><tspan style="font-size:2.165px"></tspan><tspan sodipodi:role="line" x="366.21040045072965" dy="2.164639" style="font-size:2.165px"></tspan><tspan></tspan><tspan style="font-size:2.165px">1330 Post &amp; Paddock St., Suite 800</tspan><tspan sodipodi:role="line" x="366.21040045072965" dy="2.164639" style="font-size:2.165px"></tspan><tspan></tspan><tspan style="font-size:2.165px">Grand Prairie, TX 75050</tspan><tspan sodipodi:role="line" x="366.21040045072965" dy="2.164639" style="font-size:2.165px"></tspan><tspan></tspan><tspan style="font-size:2.165px">(945) 202-2700</tspan></text><text x="324.507531" y="1104.600968" style="font-size: 3.608px; fill: #000000; font-family: Arial; text-anchor: middle" sodipodi:linespacing="125%"><tspan sodipodi:role="line" dx="0.000000" dy="3.607731">monarchmetal.com</tspan></text><text x="322.835401" y="1071.748073" style="font-size: 3.608px; fill: #000000; font-family: Arial; text-anchor: middle" sodipodi:linespacing="125%"><tspan sodipodi:role="line" dx="0.000000" dy="3.607731">MONARCH METAL FABRICATION. ANY REPRODUCTION IN PART OR AS A WHOLE</tspan><tspan sodipodi:role="line" x="322.83540147286794" dy="3.607731"/><tspan sodipodi:role="line" x="322.83540147286794" dy="3.607731"/></text><text x="38.391113" y="1037.699223" style="font-size: 3.608px; fill: #000000; font-family: Arial; text-anchor: middle" sodipodi:linespacing="125%"><tspan sodipodi:role="line" dx="0.000000" dy="3.607731"></tspan><tspan style="font-size:3.608px">Created By:</tspan><tspan></tspan><tspan style="font-size:3.608px"></tspan><tspan sodipodi:role="line" x="38.39111264471729" dy="3.607731" style="font-size:3.608px"></tspan><tspan></tspan><tspan style="font-size:3.608px">AMH</tspan></text><text x="38.391113" y="1054.191578" style="font-size: 3.608px; fill: #000000; font-family: Arial; text-anchor: middle" sodipodi:linespacing="125%"><tspan sodipodi:role="line" dx="0.000000" dy="3.607731"></tspan><tspan style="font-size:3.608px">Creation Date:</tspan><tspan></tspan><tspan style="font-size:3.608px"></tspan><tspan sodipodi:role="line" x="38.39111264471729" dy="3.607731" style="font-size:3.608px"></tspan><tspan></tspan><tspan style="font-size:3.608px">8/17/2022</tspan><tspan sodipodi:role="line" x="38.39111264471729" dy="3.607731" style="font-size:3.608px"></tspan></text><text x="215.133847" y="1038.781543" style="font-size: 3.608px; fill: #000000; font-family: Arial; text-anchor: middle" sodipodi:linespacing="125%"><tspan sodipodi:role="line" dx="0.000000" dy="3.607731"></tspan><tspan style="font-size:3.608px">Sheet No.</tspan><tspan></tspan><tspan style="font-size:3.608px"></tspan><tspan sodipodi:role="line" x="215.13384707564057" dy="3.607731" style="font-size:3.608px"></tspan><tspan></tspan><tspan style="font-size:3.608px">4/8</tspan></text><text x="169.748593" y="1038.781543" style="font-size: 3.608px; fill: #000000; font-family: Arial; text-anchor: middle" sodipodi:linespacing="125%"><tspan sodipodi:role="line" dx="0.000000" dy="3.607731"></tspan><tspan style="font-size:3.608px">Sheet Size</tspan><tspan></tspan><tspan style="font-size:3.608px"></tspan><tspan sodipodi:role="line" x="169.74859295967784" dy="3.607731" style="font-size:3.608px"></tspan><tspan></tspan><tspan style="font-size:3.608px">A</tspan></text><text x="110.834348" y="1037.699223" style="font-size: 3.608px; fill: #000000; font-family: Arial; text-anchor: middle" sodipodi:linespacing="125%"><tspan sodipodi:role="line" dx="0.000000" dy="3.607731"></tspan><tspan style="font-size:3.608px">Approved By:</tspan><tspan></tspan><tspan style="font-size:3.608px"></tspan><tspan sodipodi:role="line" x="110.83434814937009" dy="3.607731" style="font-size:3.608px"></tspan><tspan></tspan><tspan style="font-size:3.608px">AMH</tspan></text><text x="110.834348" y="1054.222631" style="font-size: 3.608px; fill: #000000; font-family: Arial; text-anchor: middle" sodipodi:linespacing="125%"><tspan sodipodi:role="line" dx="0.000000" dy="3.607731"></tspan><tspan style="font-size:3.608px">Approval Date:</tspan><tspan></tspan><tspan style="font-size:3.608px"></tspan><tspan sodipodi:role="line" x="110.83434814937009" dy="3.607731" style="font-size:3.608px"></tspan><tspan></tspan><tspan style="font-size:3.608px">8/19/2022</tspan></text><text x="10.431199" y="1091.139626" style="font-size: 3.608px; fill: #000000; font-family: Arial; text-anchor: start" sodipodi:linespacing="125%"><tspan sodipodi:role="line" dx="0.000000" dy="3.607731">Weight: 0.892 lbmass</tspan></text><text x="9.744012" y="1075.355804" style="font-size: 3.608px; fill: #000000; font-family: Arial; text-anchor: start" sodipodi:linespacing="125%"><tspan sodipodi:role="line" dx="0.000000" dy="0.000000">STOCK_NUMBERMF375-48H8</tspan></text><text x="10.431199" y="1082.120299" style="font-size: 3.608px; fill: #000000; font-family: Arial; text-anchor: start" sodipodi:linespacing="125%"><tspan sodipodi:role="line" dx="0.000000" dy="0.000000">DESCRIPTION</tspan></text><text x="10.259402" y="1100.330750" style="font-size: 3.608px; fill: #000000; font-family: Arial; text-anchor: start" sodipodi:linespacing="125%"><tspan sodipodi:role="line" dx="0.000000" dy="0.000000">MATERIALAluminum 6063</tspan></text></symbol><symbol id="*D6"><path style="fill:none;stroke:#000000" d="M 164.039 786.608 L 164.039 853.614"/><path style="fill:none;stroke:#000000" d="M 781.963 786.608 L 781.963 853.614"/><path style="fill:none;stroke:#000000" d="M 171.141 844.595 L 225.832 844.595"/><path style="fill:none;stroke:#000000" d="M 225.832 844.595 L 228.237 840.987"/><path style="fill:none;stroke:#000000" d="M 228.237 840.987 L 230.642 848.202"/><path style="fill:none;stroke:#000000" d="M 230.642 848.202 L 233.047 844.595"/><path style="fill:none;stroke:#000000" d="M 233.047 844.595 L 439.564 844.595"/><path style="fill:none;stroke:#000000" d="M 774.862 844.595 L 506.439 844.595"/><path style="fill:none;stroke:#000000" d="M 171.141 843.411 L 171.141 845.778 L 164.039 844.595 z"/><path style="fill:none;stroke:#000000" d="M 774.862 843.411 L 774.862 845.778 L 781.963 844.595 z"/>

<svg:text alignment-baseline="baseline" dominant-baseline="middle" sodipodi:linespacing="125%" style="font-size: 10.215px; fill: #000000; font-family: Arial; text-anchor: start" text-anchor="middle" x="450.892415" y="844.926"><tspan font-weight="bold">{length}</tspan></svg:text>

<path d="M 164.289364,782.098602 A 0.250000,0.250000 0.000000 0, 0 163.789364,782.098602 A 0.250000,0.250000 0.000000 0, 0 164.289364,782.098602 z" style="fill:none;stroke:#000000"/><path d="M 782.213423,782.098602 A 0.250000,0.250000 0.000000 0, 0 781.713423,782.098602 A 0.250000,0.250000 0.000000 0, 0 782.213423,782.098602 z" style="fill:none;stroke:#000000"/><path d="M 782.213423,844.594727 A 0.250000,0.250000 0.000000 0, 0 781.713423,844.594727 A 0.250000,0.250000 0.000000 0, 0 782.213423,844.594727 z" style="fill:none;stroke:#000000"/></symbol><symbol id="*D7"><path style="fill:none;stroke:#000000" d="M 123.298 631.373 L 23.2008 631.373"/><path style="fill:none;stroke:#000000" d="M 90.2066 829.824 L 23.2008 829.824"/><path style="fill:none;stroke:#000000" d="M 32.2201 638.475 L 32.2201 724.657"/><path style="fill:none;stroke:#000000" d="M 32.2201 822.722 L 32.2201 736.54"/><path style="fill:none;stroke:#000000" d="M 31.0365 638.475 L 33.4037 638.475 L 32.2201 631.373 z"/><path style="fill:none;stroke:#000000" d="M 31.0365 822.722 L 33.4037 822.722 L 32.2201 829.824 z"/><text x="20.260857" y="726.929171" style="font-size: 7.215px; fill: #000000; font-family: Arial; text-anchor: start" sodipodi:linespacing="125%"><tspan sodipodi:role="line" dx="0.000000" dy="7.215462" dominant-baseline="central">1.375</tspan></text><path d="M 128.057622,631.372812 A 0.250000,0.250000 0.000000 0, 0 127.557622,631.372812 A 0.250000,0.250000 0.000000 0, 0 128.057622,631.372812 z" style="fill:none;stroke:#000000"/><path d="M 94.966226,829.823808 A 0.250000,0.250000 0.000000 0, 0 94.466226,829.823808 A 0.250000,0.250000 0.000000 0, 0 94.966226,829.823808 z" style="fill:none;stroke:#000000"/><path d="M 32.470101,829.823808 A 0.250000,0.250000 0.000000 0, 0 31.970101,829.823808 A 0.250000,0.250000 0.000000 0, 0 32.470101,829.823808 z" style="fill:none;stroke:#000000"/></symbol><symbol id="*D8"><path style="fill:none;stroke:#000000" d="M 123.298 631.373 L 44.1602 631.373"/><path style="fill:none;stroke:#000000" d="M 108.245 685.488 L 44.1602 685.488"/><path style="fill:none;stroke:#000000" d="M 53.1795 638.475 L 53.1795 652.489"/><path style="fill:none;stroke:#000000" d="M 53.1795 678.386 L 53.1795 664.372"/><path style="fill:none;stroke:#000000" d="M 51.9959 638.475 L 54.3632 638.475 L 53.1795 631.373 z"/><path style="fill:none;stroke:#000000" d="M 51.9959 678.386 L 54.3632 678.386 L 53.1795 685.488 z"/><text x="43.303045" y="654.761243" style="font-size: 7.215px; fill: #000000; font-family: Arial; text-anchor: start" sodipodi:linespacing="125%"><tspan sodipodi:role="line" dx="0.000000" dy="7.215462" dominant-baseline="central">.375</tspan></text><path d="M 128.057622,631.372812 A 0.250000,0.250000 0.000000 0, 0 127.557622,631.372812 A 0.250000,0.250000 0.000000 0, 0 128.057622,631.372812 z" style="fill:none;stroke:#000000"/><path d="M 113.004606,685.487952 A 0.250000,0.250000 0.000000 0, 0 112.504606,685.487952 A 0.250000,0.250000 0.000000 0, 0 113.004606,685.487952 z" style="fill:none;stroke:#000000"/><path d="M 53.429528,685.487952 A 0.250000,0.250000 0.000000 0, 0 52.929528,685.487952 A 0.250000,0.250000 0.000000 0, 0 53.429528,685.487952 z" style="fill:none;stroke:#000000"/></symbol><symbol id="*D9"><path style="fill:none;stroke:#000000" d="M 112.755 640.392 L 112.755 603.148"/><path style="fill:none;stroke:#000000" d="M 130.793 629.849 L 130.793 603.148"/><path style="fill:none;stroke:#000000" d="M 105.653 612.167 L 98.5509 612.167"/><path style="fill:none;stroke:#000000" d="M 137.895 612.167 L 151.778 612.167"/><path style="fill:none;stroke:#000000" d="M 105.653 610.984 L 105.653 613.351 L 112.755 612.167 z"/><path style="fill:none;stroke:#000000" d="M 137.895 610.984 L 137.895 613.351 L 130.793 612.167 z"/><text x="154.050761" y="608.472638" style="font-size: 7.215px; fill: #000000; font-family: Arial; text-anchor: start" sodipodi:linespacing="125%"><tspan sodipodi:role="line" dx="0.000000" dy="7.215462" dominant-baseline="central">.125</tspan></text><path d="M 113.004606,644.901597 A 0.250000,0.250000 0.000000 0, 0 112.504606,644.901597 A 0.250000,0.250000 0.000000 0, 0 113.004606,644.901597 z" style="fill:none;stroke:#000000"/><path d="M 131.042986,634.358176 A 0.250000,0.250000 0.000000 0, 0 130.542986,634.358176 A 0.250000,0.250000 0.000000 0, 0 131.042986,634.358176 z" style="fill:none;stroke:#000000"/><path d="M 131.042986,612.167364 A 0.250000,0.250000 0.000000 0, 0 130.542986,612.167364 A 0.250000,0.250000 0.000000 0, 0 131.042986,612.167364 z" style="fill:none;stroke:#000000"/></symbol><symbol id="*D10"><path style="fill:none;stroke:#000000" d="M 94.7162 683.964 L 94.7162 572.685"/><path style="fill:none;stroke:#000000" d="M 130.793 629.849 L 130.793 572.685"/><path style="fill:none;stroke:#000000" d="M 123.691 581.705 L 101.818 581.705"/><path style="fill:none;stroke:#000000" d="M 94.7162 581.705 L 83.7873 581.705"/><path style="fill:none;stroke:#000000" d="M 123.691 580.521 L 123.691 582.888 L 130.793 581.705 z"/><path style="fill:none;stroke:#000000" d="M 101.818 580.521 L 101.818 582.888 L 94.7162 581.705 z"/><text x="60.717796" y="577.999774" style="font-size: 7.215px; fill: #000000; font-family: Arial; text-anchor: start" sodipodi:linespacing="125%"><tspan sodipodi:role="line" dx="0.000000" dy="7.215462" dominant-baseline="central">.250</tspan></text><path d="M 94.966226,688.473316 A 0.250000,0.250000 0.000000 0, 0 94.466226,688.473316 A 0.250000,0.250000 0.000000 0, 0 94.966226,688.473316 z" style="fill:none;stroke:#000000"/><path d="M 131.042986,634.358176 A 0.250000,0.250000 0.000000 0, 0 130.542986,634.358176 A 0.250000,0.250000 0.000000 0, 0 131.042986,634.358176 z" style="fill:none;stroke:#000000"/><path d="M 131.042986,581.704734 A 0.250000,0.250000 0.000000 0, 0 130.542986,581.704734 A 0.250000,0.250000 0.000000 0, 0 131.042986,581.704734 z" style="fill:none;stroke:#000000"/></symbol><symbol id="*D11"><path style="fill:none;stroke:#000000" d="M 308.349 783.506 L 308.349 819.525"/><path style="fill:none;stroke:#000000" d="M 164.039 786.608 L 164.039 819.525"/><path style="fill:none;stroke:#000000" d="M 301.247 810.506 L 267.948 810.506"/><path style="fill:none;stroke:#000000" d="M 171.141 810.506 L 204.44 810.506"/><path style="fill:none;stroke:#000000" d="M 301.247 809.322 L 301.247 811.69 L 308.349 810.506 z"/><path style="fill:none;stroke:#000000" d="M 171.141 809.322 L 171.141 811.69 L 164.039 810.506 z"/>

<svg:text alignment-baseline="middle" dominant-baseline="middle" sodipodi:linespacing="125%" style="font-size: 10.215px; fill: #000000; font-family: Arial; text-anchor: start" text-anchor="middle" x="215.822" y="810.220"><tspan font-weight="bold">{leadin}</tspan></svg:text>

<path d="M 308.598598,778.995954 A 0.250000,0.250000 0.000000 0, 0 308.098598,778.995954 A 0.250000,0.250000 0.000000 0, 0 308.598598,778.995954 z" style="fill:none;stroke:#000000"/><path d="M 164.289364,782.098602 A 0.250000,0.250000 0.000000 0, 0 163.789364,782.098602 A 0.250000,0.250000 0.000000 0, 0 164.289364,782.098602 z" style="fill:none;stroke:#000000"/><path d="M 164.289364,810.505932 A 0.250000,0.250000 0.000000 0, 0 163.789364,810.505932 A 0.250000,0.250000 0.000000 0, 0 164.289364,810.505932 z" style="fill:none;stroke:#000000"/></symbol><symbol id="*D12"><path style="fill:none;stroke:#000000" d="M 596.967 783.506 L 596.967 816.423"/><path style="fill:none;stroke:#000000" d="M 308.349 783.506 L 308.349 816.423"/><path style="fill:none;stroke:#000000" d="M 589.865 807.403 L 488.296 807.403"/><path style="fill:none;stroke:#000000" d="M 315.45 807.403 L 417.02 807.403"/><path style="fill:none;stroke:#000000" d="M 589.865 806.22 L 589.865 808.587 L 596.967 807.403 z"/><path style="fill:none;stroke:#000000" d="M 315.45 806.22 L 315.45 808.587 L 308.349 807.403 z"/>

<svg:text alignment-baseline="central" dominant-baseline="central" sodipodi:linespacing="125%" style="font-size: 10.215px; fill: #000000; font-family: Arial; text-anchor: start" x="430.649" y="806.037"><tspan font-weight="bold">{spacing}</tspan></svg:text>

<path d="M 597.217067,778.995954 A 0.250000,0.250000 0.000000 0, 0 596.717067,778.995954 A 0.250000,0.250000 0.000000 0, 0 597.217067,778.995954 z" style="fill:none;stroke:#000000"/><path d="M 308.598598,778.995954 A 0.250000,0.250000 0.000000 0, 0 308.098598,778.995954 A 0.250000,0.250000 0.000000 0, 0 308.598598,778.995954 z" style="fill:none;stroke:#000000"/><path d="M 308.598598,807.403283 A 0.250000,0.250000 0.000000 0, 0 308.098598,807.403283 A 0.250000,0.250000 0.000000 0, 0 308.598598,807.403283 z" style="fill:none;stroke:#000000"/></symbol><symbol id="*D13"><path style="fill:none;stroke:#000000" d="M 637.654 783.506 L 637.654 817.263"/><path style="fill:none;stroke:#000000" d="M 781.963 784.346 L 781.963 817.263"/><path style="fill:none;stroke:#000000" d="M 644.756 808.244 L 678.055 808.244"/><path style="fill:none;stroke:#000000" d="M 774.862 808.244 L 741.562 808.244"/><path style="fill:none;stroke:#000000" d="M 644.756 807.06 L 644.756 809.428 L 637.654 808.244 z"/><path style="fill:none;stroke:#000000" d="M 774.862 807.06 L 774.862 809.428 L 781.963 808.244 z"/>

<svg:text alignment-baseline="middle" dominant-baseline="middle" sodipodi:linespacing="125%" style="font-size: 10.215px; fill: #000000; font-family: Arial; text-anchor: start" text-anchor="middle" x="695.822" y="808.414"><tspan font-weight="bold">{leadin}</tspan></svg:text>

<path d="M 637.904189,778.995954 A 0.250000,0.250000 0.000000 0, 0 637.404189,778.995954 A 0.250000,0.250000 0.000000 0, 0 637.904189,778.995954 z" style="fill:none;stroke:#000000"/><path d="M 782.213423,779.836601 A 0.250000,0.250000 0.000000 0, 0 781.713423,779.836601 A 0.250000,0.250000 0.000000 0, 0 782.213423,779.836601 z" style="fill:none;stroke:#000000"/><path d="M 782.213423,808.243930 A 0.250000,0.250000 0.000000 0, 0 781.713423,808.243930 A 0.250000,0.250000 0.000000 0, 0 782.213423,808.243930 z" style="fill:none;stroke:#000000"/></symbol><symbol id="*D14"><path style="fill:none;stroke:#000000" d="M 291.158 766.315 L 140.243 766.315"/><path style="fill:none;stroke:#000000" d="M 159.53 782.099 L 140.243 782.099"/><path style="fill:none;stroke:#000000" d="M 149.262 759.213 L 149.262 752.111"/><path style="fill:none;stroke:#000000" d="M 149.262 789.2 L 149.262 796.302"/><path style="fill:none;stroke:#000000" d="M 156.364 713.327 L 149.262 713.327"/><path style="fill:none;stroke:#000000" d="M 149.262 713.327 L 149.262 752.111"/><text x="158.636573" y="709.632343" style="font-size: 7.215px; fill: #000000; font-family: Arial; text-anchor: start" sodipodi:linespacing="125%"><tspan sodipodi:role="line" dx="0.000000" dy="7.215462" dominant-baseline="central">.438</tspan></text><path style="fill:none;stroke:#000000" d="M 148.079 759.213 L 150.446 759.213 L 149.262 766.315 z"/><path style="fill:none;stroke:#000000" d="M 148.079 789.2 L 150.446 789.2 L 149.262 782.099 z"/><path d="M 295.917424,766.314780 A 0.250000,0.250000 0.000000 0, 0 295.417424,766.314780 A 0.250000,0.250000 0.000000 0, 0 295.917424,766.314780 z" style="fill:none;stroke:#000000"/><path d="M 164.289364,782.098602 A 0.250000,0.250000 0.000000 0, 0 163.789364,782.098602 A 0.250000,0.250000 0.000000 0, 0 164.289364,782.098602 z" style="fill:none;stroke:#000000"/><path d="M 149.512154,782.098602 A 0.250000,0.250000 0.000000 0, 0 149.012154,782.098602 A 0.250000,0.250000 0.000000 0, 0 149.512154,782.098602 z" style="fill:none;stroke:#000000"/></symbol></defs><g inkscape:groupmode="layer" inkscape:label="0"/><g inkscape:groupmode="layer" inkscape:label="BORDER__ANSI_"/><g inkscape:groupmode="layer" inkscape:label="BREAK_LINE__ANSI_"><path d="M 610.406492,791.117930 L 610.406492,761.104244 L 614.916157,759.895883 L 605.896827,754.688572 L 610.406492,753.480212 L 610.406492,723.466525" style="fill:none;stroke:#000000"/><path d="M 628.445153,791.117930 L 628.445153,761.104244 L 632.954818,759.895883 L 623.935488,754.688572 L 628.445153,753.480212 L 628.445153,723.466525" style="fill:none;stroke:#000000"/></g><g inkscape:groupmode="layer" inkscape:label="CENTER_MARK__ANSI_"><path style="fill:none;stroke:#FF0000;stroke-dasharray:34.0858,4.2643,8.5215,4.2643," d="M 321.03 766.315 L 295.667 766.315"/><path style="fill:none;stroke:#FF0000;stroke-dasharray:34.0858,4.2643,8.5215,4.2643," d="M 308.349 753.634 L 308.349 778.996"/><path style="fill:none;stroke:#FF0000;stroke-dasharray:34.0858,4.2643,8.5215,4.2643," d="M 609.648 766.315 L 584.286 766.315"/><path style="fill:none;stroke:#FF0000;stroke-dasharray:34.0858,4.2643,8.5215,4.2643," d="M 596.967 753.634 L 596.967 778.996"/><path style="fill:none;stroke:#FF0000;stroke-dasharray:34.0858,4.2643,8.5215,4.2643," d="M 650.335 766.315 L 628.635 766.315"/><path style="fill:none;stroke:#FF0000;stroke-dasharray:34.0858,4.2643,8.5215,4.2643," d="M 637.654 753.634 L 637.654 778.996"/></g><g inkscape:groupmode="layer" inkscape:label="DIMENSION__ANSI_"><use xlink:href="#*D6" transform="translate(0 0)"/><use xlink:href="#*D7" transform="translate(0 0)"/><use xlink:href="#*D8" transform="translate(0 0)"/><use xlink:href="#*D9" transform="translate(0 0)"/><use xlink:href="#*D10" transform="translate(0 0)"/><use xlink:href="#*D11" transform="translate(0 0)"/><use xlink:href="#*D12" transform="translate(0 0)"/><use xlink:href="#*D13" transform="translate(0 0)"/><use xlink:href="#*D14" transform="translate(0 0)"/></g><g inkscape:groupmode="layer" inkscape:label="HATCH__ANSI_"/><g inkscape:groupmode="layer" inkscape:label="SYMBOL__ANSI_">

<text x="360.928438" y="708.887009" style="font-size: 10.215px; fill: #000000; font-family: Arial; text-anchor: start" sodipodi:linespacing="125%"><tspan sodipodi:role="line" dx="0.000000" dy="7.215462"/><tspan> Ø.203 THRU, <tspan font-weight="bold">{holes}X</tspan></tspan></text>

<path d="M 310.488243,763.343073 356.003388,708.571755 359.554304,708.571755" style="fill:none;stroke:#000000"/></g><g inkscape:groupmode="layer" inkscape:label="TITLE__ANSI_"/><g inkscape:groupmode="layer" inkscape:label="VISIBLE__ANSI_"><path d="M 641.316036,766.314780 A 3.661847,3.661847 0.000000 0, 0 633.992342,766.314780 A 3.661847,3.661847 0.000000 0, 0 641.316036,766.314780 z" style="fill:none;stroke:#000000"/><path d="M 600.628913,766.314780 A 3.661847,3.661847 0.000000 0, 0 593.305220,766.314780 A 3.661847,3.661847 0.000000 0, 0 600.628913,766.314780 z" style="fill:none;stroke:#000000"/><path d="M 312.010445,766.314780 A 3.661847,3.661847 0.000000 0, 0 304.686752,766.314780 A 3.661847,3.661847 0.000000 0, 0 312.010445,766.314780 z" style="fill:none;stroke:#000000"/><path style="fill:none;stroke:#000000" d="M 781.963 732.486 L 628.445 732.486"/><path style="fill:none;stroke:#000000" d="M 164.039 733.232 L 164.039 754.287"/><path style="fill:none;stroke:#000000" d="M 781.963 733.232 L 781.963 754.287"/><path style="fill:none;stroke:#000000" d="M 781.963 755.034 L 624.533 755.034"/><path style="fill:none;stroke:#000000" d="M 164.039 755.78 L 164.039 779.837"/><path style="fill:none;stroke:#000000" d="M 781.963 755.78 L 781.963 779.837"/><path style="fill:none;stroke:#000000" d="M 164.039 782.099 L 610.406 782.099"/><path style="fill:none;stroke:#000000" d="M 610.406 732.486 L 164.039 732.486"/><path style="fill:none;stroke:#000000" d="M 164.039 733.232 L 164.039 732.486"/><path style="fill:none;stroke:#000000" d="M 781.963 733.232 L 781.963 732.486"/><path style="fill:none;stroke:#000000" d="M 164.039 755.034 L 164.039 754.287"/><path style="fill:none;stroke:#000000" d="M 606.495 755.034 L 164.039 755.034"/><path style="fill:none;stroke:#000000" d="M 781.963 755.034 L 781.963 754.287"/><path style="fill:none;stroke:#000000" d="M 164.039 755.034 L 164.039 755.78"/><path style="fill:none;stroke:#000000" d="M 781.963 755.034 L 781.963 755.78"/><path style="fill:none;stroke:#000000" d="M 164.039 782.099 L 164.039 779.837"/><path style="fill:none;stroke:#000000" d="M 628.445 782.099 L 781.963 782.099"/><path style="fill:none;stroke:#000000" d="M 781.963 782.099 L 781.963 779.837"/><path style="fill:none;stroke:#000000" d="M 94.7162 758.363 L 94.7162 749.344"/><path d="M 94.716226,767.382197 A 4.509595,4.509595 0.000000 1 0 94.716226,758.363007" style="fill:none;stroke:#000000"/><path style="fill:none;stroke:#000000" d="M 94.7162 776.401 L 94.7162 767.382"/><path style="fill:none;stroke:#000000" d="M 97.7016 685.488 L 112.755 685.488"/><path style="fill:none;stroke:#000000" d="M 112.755 685.488 L 112.755 644.902"/><path d="M 113.628999,642.790625 A 2.985364,2.985364 0.000000 0 0 112.754606,644.901597" style="fill:none;stroke:#000000"/><path style="fill:none;stroke:#000000" d="M 113.629 642.791 L 124.172 632.247"/><path d="M 126.283391,631.372812 A 2.985364,2.985364 0.000000 0 0 124.172420,632.247205" style="fill:none;stroke:#000000"/><path style="fill:none;stroke:#000000" d="M 126.283 631.373 L 127.808 631.373"/><path d="M 130.792986,634.358176 A 2.985364,2.985364 0.000000 0 0 127.807622,631.372812" style="fill:none;stroke:#000000"/><path style="fill:none;stroke:#000000" d="M 130.793 634.358 L 130.793 718.579"/><path d="M 127.807622,721.564712 A 2.985364,2.985364 0.000000 0 0 130.792986,718.579348" style="fill:none;stroke:#000000"/><path style="fill:none;stroke:#000000" d="M 127.808 721.565 L 115.769 721.565"/><path d="M 115.768786,721.564712 A 2.985364,2.985364 0.000000 0 0 112.783422,724.550076" style="fill:none;stroke:#000000"/><path style="fill:none;stroke:#000000" d="M 112.783 724.55 L 112.783 820.776"/><path d="M 103.735416,829.823808 A 9.048005,9.048005 0.000000 0 0 112.783422,820.775802" style="fill:none;stroke:#000000"/><path style="fill:none;stroke:#000000" d="M 103.735 829.824 L 94.7162 829.824"/><path style="fill:none;stroke:#000000" d="M 94.7162 829.824 L 94.7162 821.497"/><path d="M 94.716226,821.497338 A 4.509595,4.509595 0.000000 1 0 94.716226,812.478148" style="fill:none;stroke:#000000"/><path style="fill:none;stroke:#000000" d="M 94.7162 812.478 L 94.7162 803.459"/><path d="M 94.716226,803.458958 A 4.509595,4.509595 0.000000 1 0 94.716226,794.439768" style="fill:none;stroke:#000000"/><path style="fill:none;stroke:#000000" d="M 94.7162 794.44 L 94.7162 785.421"/><path d="M 94.716226,785.420578 A 4.509595,4.509595 0.000000 1 0 94.716226,776.401387" style="fill:none;stroke:#000000"/><path d="M 94.716226,749.343817 A 4.509595,4.509595 0.000000 1 0 94.716226,740.324627" style="fill:none;stroke:#000000"/><path style="fill:none;stroke:#000000" d="M 94.7162 740.325 L 94.7162 688.473"/><path d="M 97.701590,685.487952 A 2.985364,2.985364 0.000000 0 0 94.716226,688.473316" style="fill:none;stroke:#000000"/></g><g inkscape:groupmode="layer" inkscape:label="DEFPOINTS"/></svg>