<svg xmlns="http://www.w3.org/2000/svg" xmlns:svg="http://www.w3.org/2000/svg" xmlns:xlink="http://www.w3.org/1999/xlink" xmlns:sodipodi="http://sodipodi.sourceforge.net/DTD/sodipodi-0.dtd" xmlns:inkscape="http://www.inkscape.org/namespaces/inkscape" height="2000.5196850393702" preserveAspectRatio="xMidYMid meet" viewBox="0 650 793.7007874015749 1000" width="1500.7007874015749">
    <defs><marker id="DistanceX" orient="auto" refX="0.0" refY="0.0" style="overflow:visible"><path d="M 3,-3 L -3,3 M 0,-5 L  0,5" style="stroke:#000000; stroke-width:0.5"/></marker><pattern id="Hatch" patternUnits="userSpaceOnUse" width="8" height="8" x="0" y="0"><path d="M8 4 l-4,4" stroke="#000000" stroke-width="0.25" linecap="square"/><path d="M6 2 l-4,4" stroke="#000000" stroke-width="0.25" linecap="square"/><path d="M4 0 l-4,4" stroke="#000000" stroke-width="0.25" linecap="square"/></pattern><symbol id="*MODEL_SPACE"/><symbol id="*PAPER_SPACE"/><symbol id="_CLOSED"><path style="fill:none;stroke:#000000;stroke-linecap:round" d="M -72.1546 1110.49 L 0 1122.52"/><path style="fill:none;stroke:#000000;stroke-linecap:round" d="M 0 1122.52 L -72.1546 1134.55"/><path style="fill:none;stroke:#000000;stroke-linecap:round" d="M -72.1546 1110.49 L -72.1546 1134.55"/><path style="fill:none;stroke:#000000;stroke-linecap:round" d="M 0 1122.52 L -72.1546 1122.52"/></symbol><symbol id="DATUMFILLED45"><path d="M 0.000000,1050.365068 L 0.000000,1194.674302 L -72.154617,1122.519685 L 0.000000,1050.365068" style="fill:none;stroke:#000000"/><path style="fill:none;stroke:#000000" d="M 0 1050.37 L 0 1194.67 L 0 1050.37 z"/></symbol><symbol id="FILLED-1"><path style="fill:none;stroke:#000000" d="M -72.1546 1122.52 L 0 1122.52"/><path d="M -72.154617,1129.698333 L 0.000000,1122.519685 L -72.154617,1115.341037 L -72.154617,1129.698333" style="fill:none;stroke:#000000"/><path style="fill:none;stroke:#000000" d="M -72.1546 1129.7 L 0 1122.52 L -72.1546 1129.7 z"/><path style="fill:none;stroke:#000000" d="M -72.1546 1129.7 L 0 1122.52"/><path style="fill:none;stroke:#000000" d="M 0 1122.52 L -72.1546 1115.34"/><path style="fill:none;stroke:#000000" d="M -72.1546 1115.34 L -72.1546 1129.7"/></symbol><symbol id="BORDERS_MONARCHMODERNBORDE"><path style="fill:none;stroke:#000000" d="M 0 509.205 L 793.701 509.205"/><path style="fill:none;stroke:#000000" d="M 793.701 509.205 L 793.701 1122.52"/><path style="fill:none;stroke:#000000" d="M 793.701 1122.52 L 0 1122.52"/><path style="fill:none;stroke:#000000" d="M 0 1122.52 L 0 509.205"/><path style="fill:none;stroke:#000000" d="M 793.701 509.205 L 0 509.205"/><path style="fill:none;stroke:#000000" d="M 0 509.205 L 0 1122.52"/><path style="fill:none;stroke:#000000" d="M 0 1122.52 L 793.701 1122.52"/><path style="fill:none;stroke:#000000" d="M 793.701 1122.52 L 793.701 509.205"/></symbol><symbol id="TITLE_BLOCKS_MONARCHMODERN"><path d="M 13.646935,981.796503 L 13.646935,982.373740 L 139.917515,982.373740 L 139.917515,1009.431722 L 140.494752,1009.431722 L 140.494752,982.373740 L 302.842640,982.373740 L 302.842640,1009.431722 L 303.419877,1009.431722 L 303.419877,982.373740 L 375.574494,982.373740 L 375.574494,1009.431722 L 376.151731,1009.431722 L 376.151731,982.373740 L 484.383657,982.373740 L 484.383657,981.796503 L 376.151731,981.796503 L 376.151731,954.738522 L 375.574494,954.738522 L 375.574494,981.796503 L 303.419877,981.796503 L 303.419877,954.738522 L 302.842640,954.738522 L 302.842640,981.796503 L 140.494752,981.796503 L 140.494752,954.738522 L 139.917515,954.738522 L 139.917515,981.796503 L 13.646935,981.796503 z " style="fill:#848484"/><path d="M 13.646935,1108.283547 L 780.151674,1108.283547 L 780.151674,1109.005093 L 13.646935,1109.005093 L 13.646935,1108.283547 z " style="fill:#848484"/><path d="M 780.151674,522.748730 L 780.151674,523.470276 L 13.646935,523.470276 L 13.646935,522.748730 L 780.151674,522.748730 z " style="fill:#848484"/><path d="M 13.646935,1013.760999 L 13.646935,1103.954270 L 396.899305,1103.954270 L 396.899305,1013.760999 L 13.646935,1013.760999 z " style="fill:#000000"/><path d="M 780.151674,1103.954270 L 780.151674,1013.760999 L 396.899305,1013.760999 L 396.899305,1103.954270 L 780.151674,1103.954270 z " style="fill:#000000"/><path style="fill:none;stroke:#848484" d="M 13.6469 1013.76 L 780.152 1013.76"/><path style="fill:none;stroke:#848484" d="M 780.152 1013.76 L 780.152 1103.95"/><path style="fill:none;stroke:#848484" d="M 780.152 1103.95 L 13.6469 1103.95"/><path style="fill:none;stroke:#848484" d="M 13.6469 1103.95 L 13.6469 1013.76"/><path style="fill:none;stroke:#848484" d="M 780.152 1108.28 L 13.6469 1108.28"/><path style="fill:none;stroke:#848484" d="M 13.6469 1108.28 L 13.6469 1109.01"/><path style="fill:none;stroke:#848484" d="M 13.6469 1109.01 L 780.152 1109.01"/><path style="fill:none;stroke:#848484" d="M 780.152 1109.01 L 780.152 1108.28"/><path style="fill:none;stroke:#848484" d="M 484.384 981.797 L 484.384 982.374"/><path style="fill:none;stroke:#848484" d="M 13.6469 982.374 L 13.6469 981.797"/><path style="fill:none;stroke:#848484" d="M 375.574 954.739 L 376.152 954.739"/><path style="fill:none;stroke:#848484" d="M 376.152 1009.43 L 375.574 1009.43"/><path style="fill:none;stroke:#848484" d="M 302.843 954.739 L 303.42 954.739"/><path style="fill:none;stroke:#848484" d="M 303.42 1009.43 L 302.843 1009.43"/><path style="fill:none;stroke:#848484" d="M 139.918 954.739 L 140.495 954.739"/><path style="fill:none;stroke:#848484" d="M 140.495 1009.43 L 139.918 1009.43"/><path style="fill:none;stroke:#848484" d="M 13.6469 522.749 L 780.152 522.749"/><path style="fill:none;stroke:#848484" d="M 780.152 522.749 L 780.152 523.47"/><path style="fill:none;stroke:#848484" d="M 780.152 523.47 L 13.6469 523.47"/><path style="fill:none;stroke:#848484" d="M 13.6469 523.47 L 13.6469 522.749"/><path style="fill:none;stroke:#848484" d="M 302.843 1009.43 L 302.843 982.374"/><path style="fill:none;stroke:#848484" d="M 302.843 981.797 L 302.843 954.739"/><path style="fill:none;stroke:#848484" d="M 303.42 954.739 L 303.42 981.797"/><path style="fill:none;stroke:#848484" d="M 303.42 982.374 L 303.42 1009.43"/><path style="fill:none;stroke:#848484" d="M 13.6469 981.797 L 139.918 981.797"/><path style="fill:none;stroke:#848484" d="M 140.495 981.797 L 302.843 981.797"/><path style="fill:none;stroke:#848484" d="M 139.918 1009.43 L 139.918 982.374"/><path style="fill:none;stroke:#848484" d="M 139.918 981.797 L 139.918 954.739"/><path style="fill:none;stroke:#848484" d="M 140.495 954.739 L 140.495 981.797"/><path style="fill:none;stroke:#848484" d="M 140.495 982.374 L 140.495 1009.43"/><path style="fill:none;stroke:#848484" d="M 302.843 982.374 L 140.495 982.374"/><path style="fill:none;stroke:#848484" d="M 139.918 982.374 L 13.6469 982.374"/><path style="fill:none;stroke:#848484" d="M 376.152 954.739 L 376.152 981.797"/><path style="fill:none;stroke:#848484" d="M 376.152 982.374 L 376.152 1009.43"/><path style="fill:none;stroke:#848484" d="M 375.574 1009.43 L 375.574 982.374"/><path style="fill:none;stroke:#848484" d="M 375.574 981.797 L 375.574 954.739"/><path style="fill:none;stroke:#848484" d="M 484.384 982.374 L 376.152 982.374"/><path style="fill:none;stroke:#848484" d="M 375.574 982.374 L 303.42 982.374"/><path style="fill:none;stroke:#848484" d="M 303.42 981.797 L 375.574 981.797"/><path style="fill:none;stroke:#848484" d="M 376.152 981.797 L 484.384 981.797"/><path d="M 531.763810,978.231194 A 9.019327,9.019327 0.000000 0, 0 513.725156,978.231194 A 9.019327,9.019327 0.000000 0, 0 531.763810,978.231194 z" style="fill:none;stroke:#000000"/><path d="M 540.783137,978.231194 A 18.038654,18.038654 0.000000 0, 0 504.705829,978.231194 A 18.038654,18.038654 0.000000 0, 0 540.783137,978.231194 z" style="fill:none;stroke:#000000"/><path style="fill:none;stroke:#000000" d="M 585.88 960.193 L 585.88 996.27"/><path style="fill:none;stroke:#000000" d="M 549.802 969.212 L 549.802 987.251"/><path style="fill:none;stroke:#000000" d="M 549.802 969.212 L 585.88 960.193"/><path style="fill:none;stroke:#000000" d="M 549.802 987.251 L 585.88 996.27"/><path style="fill:none;stroke:#FF0000;stroke-dasharray:34.0858,4.2643,8.5215,4.2643," d="M 522.744 955.683 L 522.744 1000.78"/><path style="fill:none;stroke:#FF0000;stroke-dasharray:34.0858,4.2643,8.5215,4.2643," d="M 500.196 978.231 L 590.389 978.231"/><path style="fill:none;stroke:#848484" d="M 13.6469 947.169 L 484.375 947.169"/><path style="fill:none;stroke:#848484" d="M 484.375 947.169 L 484.375 1013.76"/><path style="fill:none;stroke:#848484" d="M 484.375 1013.76 L 13.6469 1013.76"/><path style="fill:none;stroke:#848484" d="M 13.6469 1013.76 L 13.6469 947.169"/><text x="339.497186" y="985.620698" style="font-size: 7.215px; fill: #000000; font-family: Arial; text-anchor: middle" sodipodi:linespacing="125%"><tspan sodipodi:role="line" dx="0.000000" dy="7.215462"/><tspan sodipodi:role="line" x="339.4971859193557" dy="7.215462"/></text><text x="430.267694" y="985.620698" style="font-size: 8.659px; fill: #000000; font-family: Arial; text-anchor: middle" sodipodi:linespacing="125%"><tspan sodipodi:role="line" dx="0.000000" dy="8.658554"></tspan><tspan style="font-size:8.659px">Rev</tspan><tspan></tspan><tspan style="font-size:5.772px"></tspan><tspan sodipodi:role="line" x="430.26769415128115" dy="8.658554" style="font-size:5.772px"></tspan></text><text x="20.862397" y="1084.111750" style="font-size: 7.215px; fill: #000000; font-family: Arial; text-anchor: start" sodipodi:linespacing="125%"><tspan sodipodi:role="line" dx="0.000000" dy="7.215462">Finish: Mill Finish</tspan></text><text x="561.053585" y="1052.732186" style="font-size: 4.329px; fill: #000000; font-family: Arial; text-anchor: middle" sodipodi:linespacing="125%"><tspan sodipodi:role="line" dx="0.000000" dy="4.329277"></tspan><tspan style="font-size:4.329px">New York</tspan><tspan sodipodi:role="line" x="561.0535854397558" dy="4.329277" style="font-size:4.329px"></tspan><tspan></tspan><tspan style="font-size:4.329px">1700 Ocean Ave Suite 2</tspan><tspan sodipodi:role="line" x="561.0535854397558" dy="4.329277" style="font-size:4.329px"></tspan><tspan></tspan><tspan style="font-size:4.329px">Ronkonkoma NY 11779</tspan><tspan sodipodi:role="line" x="561.0535854397558" dy="4.329277" style="font-size:4.329px"></tspan><tspan></tspan><tspan style="font-size:4.329px">Phone: (631) 750-3000</tspan><tspan sodipodi:role="line" x="561.0535854397558" dy="4.329277" style="font-size:4.329px"></tspan></text><text x="646.737193" y="1052.732186" style="font-size: 4.329px; fill: #000000; font-family: Arial; text-anchor: middle" sodipodi:linespacing="125%"><tspan sodipodi:role="line" dx="0.000000" dy="4.329277"></tspan><tspan style="font-size:4.329px">Nevada</tspan><tspan sodipodi:role="line" x="646.7371931706076" dy="4.329277" style="font-size:4.329px"></tspan><tspan></tspan><tspan style="font-size:4.329px">1080 Linda Way, Unit 10</tspan><tspan sodipodi:role="line" x="646.7371931706076" dy="4.329277" style="font-size:4.329px"></tspan><tspan></tspan><tspan style="font-size:4.329px">Sparks, BV 89431</tspan><tspan sodipodi:role="line" x="646.7371931706076" dy="4.329277" style="font-size:4.329px"></tspan><tspan></tspan><tspan style="font-size:4.329px">Phone: (775) 415-0100</tspan></text><text x="732.420801" y="1052.544105" style="font-size: 4.329px; fill: #000000; font-family: Arial; text-anchor: middle" sodipodi:linespacing="125%"><tspan sodipodi:role="line" dx="0.000000" dy="4.329277"></tspan><tspan style="font-size:4.329px">Texas</tspan><tspan></tspan><tspan style="font-size:4.329px"></tspan><tspan sodipodi:role="line" x="732.4208009014593" dy="4.329277" style="font-size:4.329px"></tspan><tspan></tspan><tspan style="font-size:4.329px">1330 Post &amp; Paddock St., Suite 800</tspan><tspan sodipodi:role="line" x="732.4208009014593" dy="4.329277" style="font-size:4.329px"></tspan><tspan></tspan><tspan style="font-size:4.329px">Grand Prairie, TX 75050</tspan><tspan sodipodi:role="line" x="732.4208009014593" dy="4.329277" style="font-size:4.329px"></tspan><tspan></tspan><tspan style="font-size:4.329px">(945) 202-2700</tspan></text><text x="649.015063" y="1086.682252" style="font-size: 7.215px; fill: #000000; font-family: Arial; text-anchor: middle" sodipodi:linespacing="125%"><tspan sodipodi:role="line" dx="0.000000" dy="7.215462">monarchmetal.com</tspan></text><text x="645.670803" y="1020.976460" style="font-size: 7.215px; fill: #000000; font-family: Arial; text-anchor: middle" sodipodi:linespacing="125%"><tspan sodipodi:role="line" dx="0.000000" dy="7.215462">MONARCH METAL FABRICATION. ANY REPRODUCTION IN PART OR AS A WHOLE</tspan><tspan sodipodi:role="line" x="645.6708029457359" dy="7.215462"/><tspan sodipodi:role="line" x="645.6708029457359" dy="7.215462"/></text><text x="76.782225" y="952.573883" style="font-size: 7.215px; fill: #000000; font-family: Arial; text-anchor: middle" sodipodi:linespacing="125%"><tspan sodipodi:role="line" dx="0.000000" dy="7.215462"/><tspan sodipodi:role="line" x="76.78222528943458" dy="7.215462">AMH</tspan></text><text x="76.782225" y="985.620698" style="font-size: 7.215px; fill: #000000; font-family: Arial; text-anchor: middle" sodipodi:linespacing="125%"><tspan sodipodi:role="line" dx="0.000000" dy="7.215462"/><tspan sodipodi:role="line" x="76.78222528943458" dy="7.215462">9/27/2022</tspan><tspan sodipodi:role="line" x="76.78222528943458" dy="7.215462"/></text><text x="430.267694" y="954.738522" style="font-size: 7.215px; fill: #000000; font-family: Arial; text-anchor: middle" sodipodi:linespacing="125%"><tspan sodipodi:role="line" dx="0.000000" dy="7.215462"/><tspan sodipodi:role="line" x="430.26769415128115" dy="7.215462">5/9</tspan></text><text x="339.497186" y="954.738522" style="font-size: 7.215px; fill: #000000; font-family: Arial; text-anchor: middle" sodipodi:linespacing="125%"><tspan sodipodi:role="line" dx="0.000000" dy="7.215462"/><tspan/><tspan sodipodi:role="line" x="339.4971859193557" dy="7.215462">A</tspan></text><text x="221.668696" y="952.573883" style="font-size: 7.215px; fill: #000000; font-family: Arial; text-anchor: middle" sodipodi:linespacing="125%"><tspan sodipodi:role="line" dx="0.000000" dy="7.215462"/><tspan sodipodi:role="line" x="221.66869629874017" dy="7.215462">AMH</tspan></text><text x="221.668696" y="985.620698" style="font-size: 7.215px; fill: #000000; font-family: Arial; text-anchor: middle" sodipodi:linespacing="125%"><tspan sodipodi:role="line" dx="0.000000" dy="7.215462"/><tspan sodipodi:role="line" x="221.66869629874017" dy="7.215462">9/27/2022</tspan></text><text x="20.862397" y="1059.759567" style="font-size: 7.215px; fill: #000000; font-family: Arial; text-anchor: start" sodipodi:linespacing="125%"><tspan sodipodi:role="line" dx="0.000000" dy="7.215462">Weight: 1.374 lbmass</tspan></text><text x="19.213149" y="1029.635014" style="font-size: 8.659px; fill: #000000; font-family: Arial; text-anchor: start" sodipodi:linespacing="125%"><tspan sodipodi:role="line" dx="0.000000" dy="0.000000">STOCK_NUMBERMFSTR-050-48H8</tspan></text><text x="19.488023" y="1043.095287" style="font-size: 7.215px; fill: #000000; font-family: Arial; text-anchor: start" sodipodi:linespacing="125%"><tspan sodipodi:role="line" dx="0.000000" dy="0.000000">DESCRIPTIONHeavy Duty 1/2" Rail</tspan></text><text x="20.518804" y="1078.141815" style="font-size: 7.215px; fill: #000000; font-family: Arial; text-anchor: start" sodipodi:linespacing="125%"><tspan sodipodi:role="line" dx="0.000000" dy="0.000000">MATERIALAluminum 6063</tspan></text></symbol><symbol id="*D6"><path style="fill:none;stroke:#000000" d="M 68.5645 708.437 L 43.2473 708.437"/><path style="fill:none;stroke:#000000" d="M 52.2666 732.867 L 52.2666 715.539"/><path style="fill:none;stroke:#000000" d="M 59.3685 678.66 L 52.2666 678.66"/><path style="fill:none;stroke:#000000" d="M 52.2666 678.66 L 52.2666 708.437"/><text x="61.641059" y="674.990378" style="font-size: 7.215px; fill: #000000; font-family: Arial; text-anchor: start" sodipodi:linespacing="125%"><tspan sodipodi:role="line" dx="0.000000" dy="7.215462" dominant-baseline="central">.437</tspan></text><path style="fill:none;stroke:#000000" d="M 51.083 732.867 L 53.4503 732.867 L 52.2666 739.969 z"/><path style="fill:none;stroke:#000000" d="M 51.083 715.539 L 53.4503 715.539 L 52.2666 708.437 z"/><path d="M 60.331890,739.968569 A 0.250000,0.250000 0.000000 0, 0 59.831890,739.968569 A 0.250000,0.250000 0.000000 0, 0 60.331890,739.968569 z" style="fill:none;stroke:#000000"/><path d="M 73.324136,708.436995 A 0.250000,0.250000 0.000000 0, 0 72.824136,708.436995 A 0.250000,0.250000 0.000000 0, 0 73.324136,708.436995 z" style="fill:none;stroke:#000000"/><path d="M 52.516641,708.436995 A 0.250000,0.250000 0.000000 0, 0 52.016641,708.436995 A 0.250000,0.250000 0.000000 0, 0 52.516641,708.436995 z" style="fill:none;stroke:#000000"/></symbol><symbol id="*D7"><path style="fill:none;stroke:#000000" d="M 48.5013 820.096 L 48.5013 846.124"/><path style="fill:none;stroke:#000000" d="M 84.5786 820.096 L 84.5786 846.124"/><path style="fill:none;stroke:#000000" d="M 55.6031 837.105 L 77.4768 837.105"/><path style="fill:none;stroke:#000000" d="M 84.5786 837.105 L 95.8316 837.105"/><path style="fill:none;stroke:#000000" d="M 55.6031 835.921 L 55.6031 838.289 L 48.5013 837.105 z"/><path style="fill:none;stroke:#000000" d="M 77.4768 835.921 L 77.4768 838.289 L 84.5786 837.105 z"/><text x="98.104156" y="833.399961" style="font-size: 7.215px; fill: #000000; font-family: Arial; text-anchor: start" sodipodi:linespacing="125%"><tspan sodipodi:role="line" dx="0.000000" dy="7.215462" dominant-baseline="central">.500</tspan></text><path d="M 48.751291,815.586614 A 0.250000,0.250000 0.000000 0, 0 48.251291,815.586614 A 0.250000,0.250000 0.000000 0, 0 48.751291,815.586614 z" style="fill:none;stroke:#000000"/><path d="M 84.828604,815.586614 A 0.250000,0.250000 0.000000 0, 0 84.328604,815.586614 A 0.250000,0.250000 0.000000 0, 0 84.828604,815.586614 z" style="fill:none;stroke:#000000"/><path d="M 84.828604,837.104922 A 0.250000,0.250000 0.000000 0, 0 84.328604,837.104922 A 0.250000,0.250000 0.000000 0, 0 84.828604,837.104922 z" style="fill:none;stroke:#000000"/></symbol><symbol id="*D8"><path style="fill:none;stroke:#000000" d="M 68.5645 708.437 L 16.8777 708.437"/><path style="fill:none;stroke:#000000" d="M 45.0739 816.669 L 16.8777 816.669"/><path style="fill:none;stroke:#000000" d="M 25.897 715.539 L 25.897 756.575"/><path style="fill:none;stroke:#000000" d="M 25.897 809.567 L 25.897 768.531"/><path style="fill:none;stroke:#000000" d="M 24.7134 715.539 L 27.0806 715.539 L 25.897 708.437 z"/><path style="fill:none;stroke:#000000" d="M 24.7134 809.567 L 27.0806 809.567 L 25.897 816.669 z"/><text x="12.822168" y="758.848004" style="font-size: 7.215px; fill: #000000; font-family: Arial; text-anchor: start" sodipodi:linespacing="125%"><tspan sodipodi:role="line" dx="0.000000" dy="7.215462" dominant-baseline="central">1.500</tspan></text><path d="M 73.324136,708.436995 A 0.250000,0.250000 0.000000 0, 0 72.824136,708.436995 A 0.250000,0.250000 0.000000 0, 0 73.324136,708.436995 z" style="fill:none;stroke:#000000"/><path d="M 49.833610,816.668934 A 0.250000,0.250000 0.000000 0, 0 49.333610,816.668934 A 0.250000,0.250000 0.000000 0, 0 49.833610,816.668934 z" style="fill:none;stroke:#000000"/><path d="M 26.146994,816.668934 A 0.250000,0.250000 0.000000 0, 0 25.646994,816.668934 A 0.250000,0.250000 0.000000 0, 0 26.146994,816.668934 z" style="fill:none;stroke:#000000"/></symbol><symbol id="*D9"><path style="fill:none;stroke:#000000" d="M 762.205 801.996 L 762.205 862.088"/><path style="fill:none;stroke:#000000" d="M 139.917 801.996 L 139.917 862.088"/><path style="fill:none;stroke:#000000" d="M 755.103 853.069 L 699.976 853.069"/><path style="fill:none;stroke:#000000" d="M 699.976 853.069 L 697.571 856.677"/><path style="fill:none;stroke:#000000" d="M 697.571 856.677 L 695.166 849.461"/><path style="fill:none;stroke:#000000" d="M 695.166 849.461 L 692.761 853.069"/><path style="fill:none;stroke:#000000" d="M 692.761 853.069 L 484.498 853.069"/><path style="fill:none;stroke:#000000" d="M 147.018 853.069 L 417.623 853.069"/><path style="fill:none;stroke:#000000" d="M 755.103 851.885 L 755.103 854.253 L 762.205 853.069 z"/><path style="fill:none;stroke:#000000" d="M 147.018 851.885 L 147.018 854.253 L 139.917 853.069 z"/>

<svg:text alignment-baseline="baseline" dominant-baseline="middle" sodipodi:linespacing="125%" style="font-size: 10.215px; fill: #000000; font-family: Arial; text-anchor: start" text-anchor="middle" x="433.892415" y="853.069"><tspan font-weight="bold">{length}</tspan></svg:text>

<path d="M 762.454811,797.486024 A 0.250000,0.250000 0.000000 0, 0 761.954811,797.486024 A 0.250000,0.250000 0.000000 0, 0 762.454811,797.486024 z" style="fill:none;stroke:#000000"/><path d="M 140.166587,797.486024 A 0.250000,0.250000 0.000000 0, 0 139.666587,797.486024 A 0.250000,0.250000 0.000000 0, 0 140.166587,797.486024 z" style="fill:none;stroke:#000000"/><path d="M 140.166587,853.068942 A 0.250000,0.250000 0.000000 0, 0 139.666587,853.068942 A 0.250000,0.250000 0.000000 0, 0 140.166587,853.068942 z" style="fill:none;stroke:#000000"/></symbol><symbol id="*D10"><path style="fill:none;stroke:#000000" d="M 139.917 801.455 L 139.917 829.501"/><path style="fill:none;stroke:#000000" d="M 284.226 796.584 L 284.226 829.501"/><path style="fill:none;stroke:#000000" d="M 147.018 820.482 L 180.318 820.482"/><path style="fill:none;stroke:#000000" d="M 277.124 820.482 L 243.825 820.482"/><path style="fill:none;stroke:#000000" d="M 147.018 819.298 L 147.018 821.665 L 139.917 820.482 z"/><path style="fill:none;stroke:#000000" d="M 277.124 819.298 L 277.124 821.665 L 284.226 820.482 z"/>

<svg:text alignment-baseline="middle" dominant-baseline="middle" sodipodi:linespacing="125%" style="font-size: 10.215px; fill: #000000; font-family: Arial; text-anchor: start" text-anchor="middle" x="196.822" y="820.220"><tspan font-weight="bold">{leadin}</tspan></svg:text>

<path d="M 140.166587,796.944864 A 0.250000,0.250000 0.000000 0, 0 139.666587,796.944864 A 0.250000,0.250000 0.000000 0, 0 140.166587,796.944864 z" style="fill:none;stroke:#000000"/><path d="M 284.475821,792.074426 A 0.250000,0.250000 0.000000 0, 0 283.975821,792.074426 A 0.250000,0.250000 0.000000 0, 0 284.475821,792.074426 z" style="fill:none;stroke:#000000"/><path d="M 284.475821,820.481755 A 0.250000,0.250000 0.000000 0, 0 283.975821,820.481755 A 0.250000,0.250000 0.000000 0, 0 284.475821,820.481755 z" style="fill:none;stroke:#000000"/></symbol><symbol id="*D11"><path style="fill:none;stroke:#000000" d="M 284.226 796.584 L 284.226 829.501"/><path style="fill:none;stroke:#000000" d="M 572.844 796.584 L 572.844 829.501"/><path style="fill:none;stroke:#000000" d="M 291.328 820.482 L 392.897 820.482"/><path style="fill:none;stroke:#000000" d="M 565.742 820.482 L 464.173 820.482"/><path style="fill:none;stroke:#000000" d="M 291.328 819.298 L 291.328 821.665 L 284.226 820.482 z"/><path style="fill:none;stroke:#000000" d="M 565.742 819.298 L 565.742 821.665 L 572.844 820.482 z"/>

<svg:text alignment-baseline="central" dominant-baseline="central" sodipodi:linespacing="125%" style="font-size: 10.215px; fill: #000000; font-family: Arial; text-anchor: start" x="405.649" y="820.037"><tspan font-weight="bold">{spacing}</tspan></svg:text>

<path d="M 284.475821,792.074426 A 0.250000,0.250000 0.000000 0, 0 283.975821,792.074426 A 0.250000,0.250000 0.000000 0, 0 284.475821,792.074426 z" style="fill:none;stroke:#000000"/><path d="M 573.094289,792.074426 A 0.250000,0.250000 0.000000 0, 0 572.594289,792.074426 A 0.250000,0.250000 0.000000 0, 0 573.094289,792.074426 z" style="fill:none;stroke:#000000"/><path d="M 573.094289,820.481755 A 0.250000,0.250000 0.000000 0, 0 572.594289,820.481755 A 0.250000,0.250000 0.000000 0, 0 573.094289,820.481755 z" style="fill:none;stroke:#000000"/></symbol><symbol id="*D12"><path style="fill:none;stroke:#000000" d="M 617.896 796.584 L 617.896 829.501"/><path style="fill:none;stroke:#000000" d="M 762.205 801.455 L 762.205 829.501"/><path style="fill:none;stroke:#000000" d="M 624.997 820.482 L 658.297 820.482"/><path style="fill:none;stroke:#000000" d="M 755.103 820.482 L 721.804 820.482"/><path style="fill:none;stroke:#000000" d="M 624.997 819.298 L 624.997 821.665 L 617.896 820.482 z"/><path style="fill:none;stroke:#000000" d="M 755.103 819.298 L 755.103 821.665 L 762.205 820.482 z"/>

<svg:text alignment-baseline="middle" dominant-baseline="middle" sodipodi:linespacing="125%" style="font-size: 10.215px; fill: #000000; font-family: Arial; text-anchor: start" text-anchor="middle" x="672.822" y="820.783"><tspan font-weight="bold">{leadin}</tspan></svg:text>

<path d="M 618.145576,792.074426 A 0.250000,0.250000 0.000000 0, 0 617.645576,792.074426 A 0.250000,0.250000 0.000000 0, 0 618.145576,792.074426 z" style="fill:none;stroke:#000000"/><path d="M 762.454811,796.944864 A 0.250000,0.250000 0.000000 0, 0 761.954811,796.944864 A 0.250000,0.250000 0.000000 0, 0 762.454811,796.944864 z" style="fill:none;stroke:#000000"/><path d="M 762.454811,820.481755 A 0.250000,0.250000 0.000000 0, 0 761.954811,820.481755 A 0.250000,0.250000 0.000000 0, 0 762.454811,820.481755 z" style="fill:none;stroke:#000000"/></symbol><symbol id="*D13"><path style="fill:none;stroke:#000000" d="M 135.407 797.486 L 109.256 797.486"/><path style="fill:none;stroke:#000000" d="M 266.187 778.545 L 109.256 778.545"/><path style="fill:none;stroke:#000000" d="M 118.275 804.588 L 118.275 811.69"/><path style="fill:none;stroke:#000000" d="M 118.275 771.444 L 118.275 764.342"/><path style="fill:none;stroke:#000000" d="M 117.091 804.588 L 119.459 804.588 L 118.275 797.486 z"/><path style="fill:none;stroke:#000000" d="M 117.091 771.444 L 119.459 771.444 L 118.275 778.545 z"/><text x="108.388216" y="784.321004" style="font-size: 7.215px; fill: #000000; font-family: Arial; text-anchor: start" sodipodi:linespacing="125%"><tspan sodipodi:role="line" dx="0.000000" dy="7.215462" dominant-baseline="central">.525</tspan></text><path d="M 140.166587,797.486024 A 0.250000,0.250000 0.000000 0, 0 139.666587,797.486024 A 0.250000,0.250000 0.000000 0, 0 140.166587,797.486024 z" style="fill:none;stroke:#000000"/><path d="M 270.946830,778.545435 A 0.250000,0.250000 0.000000 0, 0 270.446830,778.545435 A 0.250000,0.250000 0.000000 0, 0 270.946830,778.545435 z" style="fill:none;stroke:#000000"/><path d="M 118.524934,778.545435 A 0.250000,0.250000 0.000000 0, 0 118.024934,778.545435 A 0.250000,0.250000 0.000000 0, 0 118.524934,778.545435 z" style="fill:none;stroke:#000000"/></symbol></defs><g inkscape:groupmode="layer" inkscape:label="0"/><g inkscape:groupmode="layer" inkscape:label="BORDER__ANSI_"/><g inkscape:groupmode="layer" inkscape:label="BREAK_LINE__ANSI_"><path d="M 595.751810,806.505351 L 595.751810,772.334047 L 598.006649,771.729867 L 593.496984,769.126212 L 595.751810,768.522031 L 595.751810,734.350728" style="fill:none;stroke:#000000"/><path d="M 604.771140,806.505351 L 604.771140,772.334047 L 607.025966,771.729867 L 602.516301,769.126212 L 604.771140,768.522031 L 604.771140,734.350728" style="fill:none;stroke:#000000"/></g><g inkscape:groupmode="layer" inkscape:label="CENTER_MARK__ANSI_"><path style="fill:none;stroke:#FF0000;stroke-dasharray:34.0858,4.2643,8.5215,4.2643," d="M 586.373 778.545 L 559.315 778.545"/><path style="fill:none;stroke:#FF0000;stroke-dasharray:34.0858,4.2643,8.5215,4.2643," d="M 572.844 765.016 L 572.844 792.074"/><path style="fill:none;stroke:#FF0000;stroke-dasharray:34.0858,4.2643,8.5215,4.2643," d="M 297.755 778.545 L 270.697 778.545"/><path style="fill:none;stroke:#FF0000;stroke-dasharray:34.0858,4.2643,8.5215,4.2643," d="M 284.226 765.016 L 284.226 792.074"/><path style="fill:none;stroke:#FF0000;stroke-dasharray:34.0858,4.2643,8.5215,4.2643," d="M 631.425 778.545 L 608.876 778.545"/><path style="fill:none;stroke:#FF0000;stroke-dasharray:34.0858,4.2643,8.5215,4.2643," d="M 617.896 765.016 L 617.896 792.074"/></g><g inkscape:groupmode="layer" inkscape:label="DIMENSION__ANSI_"><use xlink:href="#*D6" transform="translate(0 0)"/><use xlink:href="#*D7" transform="translate(0 0)"/><use xlink:href="#*D8" transform="translate(0 0)"/><use xlink:href="#*D9" transform="translate(0 0)"/><use xlink:href="#*D10" transform="translate(0 0)"/><use xlink:href="#*D11" transform="translate(0 0)"/><use xlink:href="#*D12" transform="translate(0 0)"/><use xlink:href="#*D13" transform="translate(0 0)"/></g><g inkscape:groupmode="layer" inkscape:label="HATCH__ANSI_"/><g inkscape:groupmode="layer" inkscape:label="SYMBOL__ANSI_">

<text x="345.607641" y="715.175315" style="font-size: 10.215px; fill: #000000; font-family: Arial; text-anchor: start" sodipodi:linespacing="125%"><tspan sodipodi:role="line" dx="0.000000" dy="7.215462"/><tspan>Ø.250 THRU, <tspan font-weight="bold">{holes}X</tspan></tspan></text>

<path d="M 286.961319,774.960171 336.233223,713.783046 343.335055,713.783046" style="fill:none;stroke:#000000"/></g><g inkscape:groupmode="layer" inkscape:label="TITLE__ANSI_"/><g inkscape:groupmode="layer" inkscape:label="VISIBLE__ANSI_"><path d="M 60.081890,739.968569 A 1.082319,1.082319 0.000000 0 0 61.098938,739.256424" style="fill:none;stroke:#000000"/><path style="fill:none;stroke:#000000" d="M 61.0989 739.256 L 72.0571 709.149"/><path d="M 73.074136,708.436995 A 1.082319,1.082319 0.000000 0 0 72.057088,709.149140" style="fill:none;stroke:#000000"/><path style="fill:none;stroke:#000000" d="M 73.0741 708.437 L 83.4963 708.437"/><path d="M 84.578604,709.519315 A 1.082319,1.082319 0.000000 0 0 83.496284,708.436995" style="fill:none;stroke:#000000"/><path style="fill:none;stroke:#000000" d="M 84.5786 709.519 L 84.5786 716.374"/><path d="M 83.496284,717.456323 A 1.082319,1.082319 0.000000 0 0 84.578604,716.374003" style="fill:none;stroke:#000000"/><path style="fill:none;stroke:#000000" d="M 83.4963 717.456 L 79.3895 717.456"/><path d="M 79.389534,717.456323 A 1.082319,1.082319 0.000000 0 0 78.372486,718.168467" style="fill:none;stroke:#000000"/><path style="fill:none;stroke:#000000" d="M 78.3725 718.168 L 70.6252 739.454"/><path d="M 70.625159,739.454083 A 1.082319,1.082319 0.000000 0 0 71.642207,740.906578" style="fill:none;stroke:#000000"/><path style="fill:none;stroke:#000000" d="M 71.6422 740.907 L 83.4963 740.907"/><path d="M 84.578604,741.988897 A 1.082319,1.082319 0.000000 0 0 83.496284,740.906578" style="fill:none;stroke:#000000"/><path style="fill:none;stroke:#000000" d="M 84.5786 741.989 L 84.5786 748.844"/><path d="M 83.496284,749.925906 A 1.082319,1.082319 0.000000 0 0 84.578604,748.843587" style="fill:none;stroke:#000000"/><path style="fill:none;stroke:#000000" d="M 83.4963 749.926 L 58.6029 749.926"/><path d="M 58.602938,749.925906 A 1.082319,1.082319 0.000000 0 0 57.520619,751.008225" style="fill:none;stroke:#000000"/><path style="fill:none;stroke:#000000" d="M 57.5206 751.008 L 57.5206 806.567"/><path d="M 57.520619,806.567286 A 1.082319,1.082319 0.000000 0 0 58.602938,807.649606" style="fill:none;stroke:#000000"/><path style="fill:none;stroke:#000000" d="M 58.6029 807.65 L 83.4963 807.65"/><path d="M 84.578604,808.731925 A 1.082319,1.082319 0.000000 0 0 83.496284,807.649606" style="fill:none;stroke:#000000"/><path style="fill:none;stroke:#000000" d="M 84.5786 808.732 L 84.5786 815.587"/><path d="M 83.496284,816.668934 A 1.082319,1.082319 0.000000 0 0 84.578604,815.586614" style="fill:none;stroke:#000000"/><path style="fill:none;stroke:#000000" d="M 83.4963 816.669 L 49.5836 816.669"/><path d="M 48.501291,815.586614 A 1.082319,1.082319 0.000000 0 0 49.583610,816.668934" style="fill:none;stroke:#000000"/><path style="fill:none;stroke:#000000" d="M 48.5013 815.587 L 48.5013 741.051"/><path d="M 49.583610,739.968569 A 1.082319,1.082319 0.000000 0 0 48.501291,741.050888" style="fill:none;stroke:#000000"/><path style="fill:none;stroke:#000000" d="M 49.5836 739.969 L 60.0819 739.969"/><path d="M 622.405240,778.545435 A 4.509664,4.509664 0.000000 0, 0 613.385913,778.545435 A 4.509664,4.509664 0.000000 0, 0 622.405240,778.545435 z" style="fill:none;stroke:#000000"/><path d="M 577.353953,778.545435 A 4.509664,4.509664 0.000000 0, 0 568.334625,778.545435 A 4.509664,4.509664 0.000000 0, 0 577.353953,778.545435 z" style="fill:none;stroke:#000000"/><path d="M 288.735484,778.545435 A 4.509664,4.509664 0.000000 0, 0 279.716157,778.545435 A 4.509664,4.509664 0.000000 0, 0 288.735484,778.545435 z" style="fill:none;stroke:#000000"/><path style="fill:none;stroke:#000000" d="M 762.205 743.37 L 604.771 743.37"/><path style="fill:none;stroke:#000000" d="M 139.917 743.911 L 139.917 747.339"/><path style="fill:none;stroke:#000000" d="M 762.205 743.911 L 762.205 747.339"/><path style="fill:none;stroke:#000000" d="M 762.205 747.88 L 604.771 747.88"/><path style="fill:none;stroke:#000000" d="M 139.917 748.236 L 139.917 758.879"/><path style="fill:none;stroke:#000000" d="M 762.205 748.236 L 762.205 758.879"/><path style="fill:none;stroke:#000000" d="M 762.205 759.605 L 604.771 759.605"/><path style="fill:none;stroke:#000000" d="M 139.917 760.146 L 139.917 763.573"/><path style="fill:none;stroke:#000000" d="M 762.205 760.146 L 762.205 763.573"/><path style="fill:none;stroke:#000000" d="M 762.205 764.115 L 604.771 764.115"/><path style="fill:none;stroke:#000000" d="M 139.917 764.656 L 139.917 792.435"/><path style="fill:none;stroke:#000000" d="M 762.205 764.656 L 762.205 792.435"/><path style="fill:none;stroke:#000000" d="M 762.205 792.976 L 604.771 792.976"/><path style="fill:none;stroke:#000000" d="M 139.917 793.518 L 139.917 796.945"/><path style="fill:none;stroke:#000000" d="M 762.205 793.518 L 762.205 796.945"/><path style="fill:none;stroke:#000000" d="M 762.205 797.486 L 604.771 797.486"/><path style="fill:none;stroke:#000000" d="M 595.752 743.37 L 139.917 743.37"/><path style="fill:none;stroke:#000000" d="M 139.917 743.911 L 139.917 743.37"/><path style="fill:none;stroke:#000000" d="M 762.205 743.911 L 762.205 743.37"/><path style="fill:none;stroke:#000000" d="M 139.917 747.88 L 139.917 747.339"/><path style="fill:none;stroke:#000000" d="M 595.752 747.88 L 139.917 747.88"/><path style="fill:none;stroke:#000000" d="M 762.205 747.88 L 762.205 747.339"/><path style="fill:none;stroke:#000000" d="M 139.917 747.88 L 139.917 748.236"/><path style="fill:none;stroke:#000000" d="M 762.205 747.88 L 762.205 748.236"/><path style="fill:none;stroke:#000000" d="M 139.917 758.879 L 139.917 759.605"/><path style="fill:none;stroke:#000000" d="M 762.205 758.879 L 762.205 759.605"/><path style="fill:none;stroke:#000000" d="M 595.752 759.605 L 139.917 759.605"/><path style="fill:none;stroke:#000000" d="M 139.917 760.146 L 139.917 759.605"/><path style="fill:none;stroke:#000000" d="M 762.205 760.146 L 762.205 759.605"/><path style="fill:none;stroke:#000000" d="M 139.917 764.115 L 139.917 763.573"/><path style="fill:none;stroke:#000000" d="M 595.752 764.115 L 139.917 764.115"/><path style="fill:none;stroke:#000000" d="M 762.205 764.115 L 762.205 763.573"/><path style="fill:none;stroke:#000000" d="M 139.917 764.115 L 139.917 764.656"/><path style="fill:none;stroke:#000000" d="M 762.205 764.115 L 762.205 764.656"/><path style="fill:none;stroke:#000000" d="M 139.917 792.435 L 139.917 792.976"/><path style="fill:none;stroke:#000000" d="M 762.205 792.435 L 762.205 792.976"/><path style="fill:none;stroke:#000000" d="M 595.752 792.976 L 139.917 792.976"/><path style="fill:none;stroke:#000000" d="M 139.917 793.518 L 139.917 792.976"/><path style="fill:none;stroke:#000000" d="M 762.205 793.518 L 762.205 792.976"/><path style="fill:none;stroke:#000000" d="M 139.917 797.486 L 139.917 796.945"/><path style="fill:none;stroke:#000000" d="M 595.752 797.486 L 139.917 797.486"/><path style="fill:none;stroke:#000000" d="M 762.205 797.486 L 762.205 796.945"/></g><g inkscape:groupmode="layer" inkscape:label="DEFPOINTS"/></svg>