<svg xmlns="http://www.w3.org/2000/svg" xmlns:svg="http://www.w3.org/2000/svg" xmlns:xlink="http://www.w3.org/1999/xlink" xmlns:sodipodi="http://sodipodi.sourceforge.net/DTD/sodipodi-0.dtd" xmlns:inkscape="http://www.inkscape.org/namespaces/inkscape" height="2000.5196850393702" preserveAspectRatio="xMidYMid meet" viewBox="0 0 793.7007874015749 1000" width="1500.7007874015749">
    <defs><marker id="DistanceX" orient="auto" refX="0.0" refY="0.0" style="overflow:visible"><path d="M 3,-3 L -3,3 M 0,-5 L  0,5" style="stroke:#000000; stroke-width:0.5"/></marker><pattern id="Hatch" patternUnits="userSpaceOnUse" width="8" height="8" x="0" y="0"><path d="M8 4 l-4,4" stroke="#000000" stroke-width="0.25" linecap="square"/><path d="M6 2 l-4,4" stroke="#000000" stroke-width="0.25" linecap="square"/><path d="M4 0 l-4,4" stroke="#000000" stroke-width="0.25" linecap="square"/></pattern><symbol id="*MODEL_SPACE"/><symbol id="*PAPER_SPACE"/><symbol id="_CLOSED"><path style="fill:none;stroke:#000000;stroke-linecap:round" d="M -144.309 1098.47 L 0 1122.52"/><path style="fill:none;stroke:#000000;stroke-linecap:round" d="M 0 1122.52 L -144.309 1146.57"/><path style="fill:none;stroke:#000000;stroke-linecap:round" d="M -144.309 1098.47 L -144.309 1146.57"/><path style="fill:none;stroke:#000000;stroke-linecap:round" d="M 0 1122.52 L -144.309 1122.52"/></symbol><symbol id="DATUMFILLED45"><path d="M 0.000000,978.210451 L 0.000000,1266.828919 L -144.309234,1122.519685 L 0.000000,978.210451" style="fill:none;stroke:#000000"/><path style="fill:none;stroke:#000000" d="M 0 978.21 L 0 1266.83 L 0 978.21 z"/></symbol><symbol id="FILLED-1"><path style="fill:none;stroke:#000000" d="M -144.309 1122.52 L 0 1122.52"/><path d="M -144.309234,1136.876981 L 0.000000,1122.519685 L -144.309234,1108.162389 L -144.309234,1136.876981" style="fill:none;stroke:#000000"/><path style="fill:none;stroke:#000000" d="M -144.309 1136.88 L 0 1122.52 L -144.309 1136.88 z"/><path style="fill:none;stroke:#000000" d="M -144.309 1136.88 L 0 1122.52"/><path style="fill:none;stroke:#000000" d="M 0 1122.52 L -144.309 1108.16"/><path style="fill:none;stroke:#000000" d="M -144.309 1108.16 L -144.309 1136.88"/></symbol><symbol id="BORDERS_MONARCHMODERNBORDE"><path style="fill:none;stroke:#000000" d="M 0 -104.109 L 1587.4 -104.109"/><path style="fill:none;stroke:#000000" d="M 1587.4 -104.109 L 1587.4 1122.52"/><path style="fill:none;stroke:#000000" d="M 1587.4 1122.52 L 0 1122.52"/><path style="fill:none;stroke:#000000" d="M 0 1122.52 L 0 -104.109"/><path style="fill:none;stroke:#000000" d="M 1587.4 -104.109 L 0 -104.109"/><path style="fill:none;stroke:#000000" d="M 0 -104.109 L 0 1122.52"/><path style="fill:none;stroke:#000000" d="M 0 1122.52 L 1587.4 1122.52"/><path style="fill:none;stroke:#000000" d="M 1587.4 1122.52 L 1587.4 -104.109"/></symbol><symbol id="*D5"><path style="fill:none;stroke:#000000" d="M 92.7844 647.824 L 50.6432 647.824"/><path style="fill:none;stroke:#000000" d="M 74.7458 683.901 L 50.6432 683.901"/><path style="fill:none;stroke:#000000" d="M 59.6625 654.926 L 59.6625 659.885"/><path style="fill:none;stroke:#000000" d="M 59.6625 676.799 L 59.6625 671.84"/><path style="fill:none;stroke:#000000" d="M 58.4789 654.926 L 60.8461 654.926 L 59.6625 647.824 z"/><path style="fill:none;stroke:#000000" d="M 58.4789 676.799 L 60.8461 676.799 L 59.6625 683.901 z"/><text x="49.264036" y="662.157604" style="font-size: 7.215px; fill: #000000; font-family: Arial; text-anchor: start" sodipodi:linespacing="125%"><tspan sodipodi:role="line" dx="0.000000" dy="7.215462" dominant-baseline="central">.250</tspan></text><path d="M 97.544109,647.823907 A 0.250000,0.250000 0.000000 0, 0 97.044109,647.823907 A 0.250000,0.250000 0.000000 0, 0 97.544109,647.823907 z" style="fill:none;stroke:#000000"/><path d="M 79.505452,683.901222 A 0.250000,0.250000 0.000000 0, 0 79.005452,683.901222 A 0.250000,0.250000 0.000000 0, 0 79.505452,683.901222 z" style="fill:none;stroke:#000000"/><path d="M 59.912489,683.901222 A 0.250000,0.250000 0.000000 0, 0 59.412489,683.901222 A 0.250000,0.250000 0.000000 0, 0 59.912489,683.901222 z" style="fill:none;stroke:#000000"/></symbol><symbol id="*D6"><path style="fill:none;stroke:#000000" d="M 92.8205 647.788 L 92.8205 614.871"/><path style="fill:none;stroke:#000000" d="M 110.859 647.788 L 110.859 614.871"/><path style="fill:none;stroke:#000000" d="M 85.7187 623.89 L 78.6169 623.89"/><path style="fill:none;stroke:#000000" d="M 117.961 623.89 L 127.939 623.89"/><path style="fill:none;stroke:#000000" d="M 85.7187 622.707 L 85.7187 625.074 L 92.8205 623.89 z"/><path style="fill:none;stroke:#000000" d="M 117.961 622.707 L 117.961 625.074 L 110.859 623.89 z"/><text x="130.211860" y="620.195444" style="font-size: 7.215px; fill: #000000; font-family: Arial; text-anchor: start" sodipodi:linespacing="125%"><tspan sodipodi:role="line" dx="0.000000" dy="7.215462" dominant-baseline="central">.125</tspan></text><path d="M 93.070520,652.297492 A 0.250000,0.250000 0.000000 0, 0 92.570520,652.297492 A 0.250000,0.250000 0.000000 0, 0 93.070520,652.297492 z" style="fill:none;stroke:#000000"/><path d="M 111.109175,652.297499 A 0.250000,0.250000 0.000000 0, 0 110.609175,652.297499 A 0.250000,0.250000 0.000000 0, 0 111.109175,652.297499 z" style="fill:none;stroke:#000000"/><path d="M 111.109175,623.890170 A 0.250000,0.250000 0.000000 0, 0 110.609175,623.890170 A 0.250000,0.250000 0.000000 0, 0 111.109175,623.890170 z" style="fill:none;stroke:#000000"/></symbol><symbol id="*D7"><path style="fill:none;stroke:#000000" d="M 74.7819 683.865 L 74.7819 586.051"/><path style="fill:none;stroke:#000000" d="M 110.859 647.788 L 110.859 586.051"/><path style="fill:none;stroke:#000000" d="M 103.757 595.07 L 81.8837 595.07"/><path style="fill:none;stroke:#000000" d="M 74.7819 595.07 L 63.8529 595.07"/><path style="fill:none;stroke:#000000" d="M 103.757 593.886 L 103.757 596.254 L 110.859 595.07 z"/><path style="fill:none;stroke:#000000" d="M 81.8837 593.886 L 81.8837 596.254 L 74.7819 595.07 z"/><text x="40.783435" y="591.365087" style="font-size: 7.215px; fill: #000000; font-family: Arial; text-anchor: start" sodipodi:linespacing="125%"><tspan sodipodi:role="line" dx="0.000000" dy="7.215462" dominant-baseline="central">.250</tspan></text><path d="M 75.031865,688.374806 A 0.250000,0.250000 0.000000 0, 0 74.531865,688.374806 A 0.250000,0.250000 0.000000 0, 0 75.031865,688.374806 z" style="fill:none;stroke:#000000"/><path d="M 111.109175,652.297499 A 0.250000,0.250000 0.000000 0, 0 110.609175,652.297499 A 0.250000,0.250000 0.000000 0, 0 111.109175,652.297499 z" style="fill:none;stroke:#000000"/><path d="M 111.109175,595.070048 A 0.250000,0.250000 0.000000 0, 0 110.609175,595.070048 A 0.250000,0.250000 0.000000 0, 0 111.109175,595.070048 z" style="fill:none;stroke:#000000"/></symbol><symbol id="*D8"><path style="fill:none;stroke:#000000" d="M 92.7844 647.824 L 24.7844 647.824"/><path style="fill:none;stroke:#000000" d="M 74.7458 828.21 L 24.7844 828.21"/><path style="fill:none;stroke:#000000" d="M 33.8037 654.926 L 33.8037 732.04"/><path style="fill:none;stroke:#000000" d="M 33.8037 821.109 L 33.8037 743.995"/><path style="fill:none;stroke:#000000" d="M 32.6201 654.926 L 34.9874 654.926 L 33.8037 647.824 z"/><path style="fill:none;stroke:#000000" d="M 32.6201 821.109 L 34.9874 821.109 L 33.8037 828.21 z"/><text x="21.322510" y="734.312224" style="font-size: 7.215px; fill: #000000; font-family: Arial; text-anchor: start" sodipodi:linespacing="125%"><tspan sodipodi:role="line" dx="0.000000" dy="7.215462" dominant-baseline="central">1.250</tspan></text><path d="M 97.544109,647.823910 A 0.250000,0.250000 0.000000 0, 0 97.044109,647.823910 A 0.250000,0.250000 0.000000 0, 0 97.544109,647.823910 z" style="fill:none;stroke:#000000"/><path d="M 79.505452,828.210460 A 0.250000,0.250000 0.000000 0, 0 79.005452,828.210460 A 0.250000,0.250000 0.000000 0, 0 79.505452,828.210460 z" style="fill:none;stroke:#000000"/><path d="M 34.053724,828.210460 A 0.250000,0.250000 0.000000 0, 0 33.553724,828.210460 A 0.250000,0.250000 0.000000 0, 0 34.053724,828.210460 z" style="fill:none;stroke:#000000"/></symbol><symbol id="*D9"><path style="fill:none;stroke:#000000" d="M 92.8205 819.155 L 92.8205 852.072"/><path style="fill:none;stroke:#000000" d="M 74.7819 814.323 L 74.7819 852.072"/><path style="fill:none;stroke:#000000" d="M 67.68 843.053 L 60.5782 843.053"/><path style="fill:none;stroke:#000000" d="M 99.9224 843.053 L 109.901 843.053"/><path style="fill:none;stroke:#000000" d="M 67.68 841.869 L 67.68 844.236 L 74.7819 843.053 z"/><path style="fill:none;stroke:#000000" d="M 99.9224 841.869 L 99.9224 844.236 L 92.8205 843.053 z"/><text x="112.173205" y="839.357995" style="font-size: 7.215px; fill: #000000; font-family: Arial; text-anchor: start" sodipodi:linespacing="125%"><tspan sodipodi:role="line" dx="0.000000" dy="7.215462" dominant-baseline="central">.125</tspan></text><path d="M 93.070520,814.645392 A 0.250000,0.250000 0.000000 0, 0 92.570520,814.645392 A 0.250000,0.250000 0.000000 0, 0 93.070520,814.645392 z" style="fill:none;stroke:#000000"/><path d="M 75.031865,809.813106 A 0.250000,0.250000 0.000000 0, 0 74.531865,809.813106 A 0.250000,0.250000 0.000000 0, 0 75.031865,809.813106 z" style="fill:none;stroke:#000000"/><path d="M 75.031865,843.052721 A 0.250000,0.250000 0.000000 0, 0 74.531865,843.052721 A 0.250000,0.250000 0.000000 0, 0 75.031865,843.052721 z" style="fill:none;stroke:#000000"/></symbol><symbol id="*D10">

<path style="fill:none;stroke:#000000" d="M 770.183 757.988 L 770.183 824.993"/><path style="fill:none;stroke:#000000" d="M 146.058 757.988 L 146.058 824.993"/><path style="fill:none;stroke:#000000" d="M 763.081 815.974 L 707.771 815.974"/><path style="fill:none;stroke:#000000" d="M 707.771 815.974 L 705.365 819.582"/><path style="fill:none;stroke:#000000" d="M 705.365 819.582 L 702.96 812.366"/><path style="fill:none;stroke:#000000" d="M 702.96 812.366 L 700.555 815.974"/><path style="fill:none;stroke:#000000" d="M 700.555 815.974 L 491.558 815.974"/><path style="fill:none;stroke:#000000" d="M 153.16 815.974 L 424.683 815.974"/><path style="fill:none;stroke:#000000" d="M 763.081 814.791 L 763.081 817.158 L 770.183 815.974 z"/><path style="fill:none;stroke:#000000" d="M 153.16 814.791 L 153.16 817.158 L 146.058 815.974 z"/>

<svg:text alignment-baseline="baseline" dominant-baseline="middle" sodipodi:linespacing="125%" style="font-size: 10.215px; fill: #000000; font-family: Arial; text-anchor: start" text-anchor="middle" x="440.892415" y="815.926"><tspan font-weight="bold">{length}</tspan></svg:text>

<path d="M 770.433083,753.478039 A 0.250000,0.250000 0.000000 0, 0 769.933083,753.478039 A 0.250000,0.250000 0.000000 0, 0 770.433083,753.478039 z" style="fill:none;stroke:#000000"/><path d="M 146.307813,753.478039 A 0.250000,0.250000 0.000000 0, 0 145.807813,753.478039 A 0.250000,0.250000 0.000000 0, 0 146.307813,753.478039 z" style="fill:none;stroke:#000000"/><path d="M 146.307813,815.974164 A 0.250000,0.250000 0.000000 0, 0 145.807813,815.974164 A 0.250000,0.250000 0.000000 0, 0 146.307813,815.974164 z" style="fill:none;stroke:#000000"/></symbol><symbol id="*D11"><path style="fill:none;stroke:#000000" d="M 625.874 754.885 L 625.874 787.513"/><path style="fill:none;stroke:#000000" d="M 770.183 754.596 L 770.183 787.513"/><path style="fill:none;stroke:#000000" d="M 632.976 778.494 L 666.275 778.494"/><path style="fill:none;stroke:#000000" d="M 763.081 778.494 L 729.782 778.494"/><path style="fill:none;stroke:#000000" d="M 632.976 777.31 L 632.976 779.678 L 625.874 778.494 z"/><path style="fill:none;stroke:#000000" d="M 763.081 777.31 L 763.081 779.678 L 770.183 778.494 z"/>

<svg:text alignment-baseline="middle" dominant-baseline="middle" sodipodi:linespacing="125%" style="font-size: 10.215px; fill: #000000; font-family: Arial; text-anchor: start" text-anchor="middle" x="202.822" y="779.220"><tspan font-weight="bold">{leadin}</tspan></svg:text>

<path d="M 626.123849,750.375391 A 0.250000,0.250000 0.000000 0, 0 625.623849,750.375391 A 0.250000,0.250000 0.000000 0, 0 626.123849,750.375391 z" style="fill:none;stroke:#000000"/><path d="M 770.433083,750.086772 A 0.250000,0.250000 0.000000 0, 0 769.933083,750.086772 A 0.250000,0.250000 0.000000 0, 0 770.433083,750.086772 z" style="fill:none;stroke:#000000"/><path d="M 770.433083,778.494102 A 0.250000,0.250000 0.000000 0, 0 769.933083,778.494102 A 0.250000,0.250000 0.000000 0, 0 770.433083,778.494102 z" style="fill:none;stroke:#000000"/></symbol><symbol id="*D12"><path style="fill:none;stroke:#000000" d="M 141.548 753.478 L 129.158 753.478"/><path style="fill:none;stroke:#000000" d="M 273.176 737.694 L 129.158 737.694"/><path style="fill:none;stroke:#000000" d="M 138.177 760.58 L 138.177 767.682"/><path style="fill:none;stroke:#000000" d="M 138.177 730.592 L 138.177 723.491"/><path style="fill:none;stroke:#000000" d="M 145.279 685.712 L 138.177 685.712"/><path style="fill:none;stroke:#000000" d="M 138.177 685.712 L 138.177 723.491"/><text x="147.551446" y="682.016925" style="font-size: 7.215px; fill: #000000; font-family: Arial; text-anchor: start" sodipodi:linespacing="125%"><tspan sodipodi:role="line" dx="0.000000" dy="7.215462" dominant-baseline="central">.438</tspan></text><path style="fill:none;stroke:#000000" d="M 136.993 760.58 L 139.361 760.58 L 138.177 753.478 z"/><path style="fill:none;stroke:#000000" d="M 136.993 730.592 L 139.361 730.592 L 138.177 737.694 z"/><path d="M 146.307813,753.478039 A 0.250000,0.250000 0.000000 0, 0 145.807813,753.478039 A 0.250000,0.250000 0.000000 0, 0 146.307813,753.478039 z" style="fill:none;stroke:#000000"/><path d="M 277.935874,737.694217 A 0.250000,0.250000 0.000000 0, 0 277.435874,737.694217 A 0.250000,0.250000 0.000000 0, 0 277.935874,737.694217 z" style="fill:none;stroke:#000000"/><path d="M 138.427028,737.694217 A 0.250000,0.250000 0.000000 0, 0 137.927028,737.694217 A 0.250000,0.250000 0.000000 0, 0 138.427028,737.694217 z" style="fill:none;stroke:#000000"/></symbol><symbol id="*D13"><path style="fill:none;stroke:#000000" d="M 290.367 754.885 L 290.367 787.802"/><path style="fill:none;stroke:#000000" d="M 578.986 754.885 L 578.986 787.802"/><path style="fill:none;stroke:#000000" d="M 297.469 778.783 L 399.039 778.783"/><path style="fill:none;stroke:#000000" d="M 571.884 778.783 L 470.314 778.783"/><path style="fill:none;stroke:#000000" d="M 297.469 777.599 L 297.469 779.966 L 290.367 778.783 z"/><path style="fill:none;stroke:#000000" d="M 571.884 777.599 L 571.884 779.966 L 578.986 778.783 z"/>

<svg:text alignment-baseline="central" dominant-baseline="central" sodipodi:linespacing="125%" style="font-size: 10.215px; fill: #000000; font-family: Arial; text-anchor: start" x="413.649" y="777.037"><tspan font-weight="bold">{spacing}</tspan></svg:text>

<path d="M 290.617048,750.375391 A 0.250000,0.250000 0.000000 0, 0 290.117048,750.375391 A 0.250000,0.250000 0.000000 0, 0 290.617048,750.375391 z" style="fill:none;stroke:#000000"/><path d="M 579.235516,750.375391 A 0.250000,0.250000 0.000000 0, 0 578.735516,750.375391 A 0.250000,0.250000 0.000000 0, 0 579.235516,750.375391 z" style="fill:none;stroke:#000000"/><path d="M 579.235516,778.782720 A 0.250000,0.250000 0.000000 0, 0 578.735516,778.782720 A 0.250000,0.250000 0.000000 0, 0 579.235516,778.782720 z" style="fill:none;stroke:#000000"/></symbol><symbol id="*D14"><path style="fill:none;stroke:#000000" d="M 146.058 757.988 L 146.058 787.802"/><path style="fill:none;stroke:#000000" d="M 290.367 754.885 L 290.367 787.802"/><path style="fill:none;stroke:#000000" d="M 153.16 778.783 L 186.459 778.783"/><path style="fill:none;stroke:#000000" d="M 283.265 778.783 L 249.966 778.783"/><path style="fill:none;stroke:#000000" d="M 153.16 777.599 L 153.16 779.966 L 146.058 778.783 z"/><path style="fill:none;stroke:#000000" d="M 283.265 777.599 L 283.265 779.966 L 290.367 778.783 z"/>

<svg:text alignment-baseline="middle" dominant-baseline="middle" sodipodi:linespacing="125%" style="font-size: 10.215px; fill: #000000; font-family: Arial; text-anchor: start" text-anchor="middle" x="682.822" y="778.783"><tspan font-weight="bold">{leadin}</tspan></svg:text>

<path d="M 146.307813,753.478039 A 0.250000,0.250000 0.000000 0, 0 145.807813,753.478039 A 0.250000,0.250000 0.000000 0, 0 146.307813,753.478039 z" style="fill:none;stroke:#000000"/><path d="M 290.617048,750.375391 A 0.250000,0.250000 0.000000 0, 0 290.117048,750.375391 A 0.250000,0.250000 0.000000 0, 0 290.617048,750.375391 z" style="fill:none;stroke:#000000"/><path d="M 290.617048,778.782720 A 0.250000,0.250000 0.000000 0, 0 290.117048,778.782720 A 0.250000,0.250000 0.000000 0, 0 290.617048,778.782720 z" style="fill:none;stroke:#000000"/></symbol><symbol id="TITLE_BLOCKS_MONARCHMODERN"><path d="M 27.293871,841.073321 L 27.293871,842.227795 L 279.835030,842.227795 L 279.835030,896.343758 L 280.989504,896.343758 L 280.989504,842.227795 L 605.685281,842.227795 L 605.685281,896.343758 L 606.839755,896.343758 L 606.839755,842.227795 L 751.148989,842.227795 L 751.148989,896.343758 L 752.303463,896.343758 L 752.303463,842.227795 L 968.767314,842.227795 L 968.767314,841.073321 L 752.303463,841.073321 L 752.303463,786.957359 L 751.148989,786.957359 L 751.148989,841.073321 L 606.839755,841.073321 L 606.839755,786.957359 L 605.685281,786.957359 L 605.685281,841.073321 L 280.989504,841.073321 L 280.989504,786.957359 L 279.835030,786.957359 L 279.835030,841.073321 L 27.293871,841.073321 z " style="fill:#848484"/><path d="M 27.293871,1094.047409 L 1560.303349,1094.047409 L 1560.303349,1095.490501 L 27.293871,1095.490501 L 27.293871,1094.047409 z " style="fill:#848484"/><path d="M 1560.303349,-77.022225 L 1560.303349,-75.579133 L 27.293871,-75.579133 L 27.293871,-77.022225 L 1560.303349,-77.022225 z " style="fill:#848484"/><path d="M 27.293871,905.002312 L 27.293871,1085.388855 L 793.798610,1085.388855 L 793.798610,905.002312 L 27.293871,905.002312 z " style="fill:#000000"/><path d="M 1560.303349,1085.388855 L 1560.303349,905.002312 L 793.798610,905.002312 L 793.798610,1085.388855 L 1560.303349,1085.388855 z " style="fill:#000000"/><path style="fill:none;stroke:#848484" d="M 27.2939 905.002 L 1560.3 905.002"/><path style="fill:none;stroke:#848484" d="M 1560.3 905.002 L 1560.3 1085.39"/><path style="fill:none;stroke:#848484" d="M 1560.3 1085.39 L 27.2939 1085.39"/><path style="fill:none;stroke:#848484" d="M 27.2939 1085.39 L 27.2939 905.002"/><path style="fill:none;stroke:#848484" d="M 1560.3 1094.05 L 27.2939 1094.05"/><path style="fill:none;stroke:#848484" d="M 27.2939 1094.05 L 27.2939 1095.49"/><path style="fill:none;stroke:#848484" d="M 27.2939 1095.49 L 1560.3 1095.49"/><path style="fill:none;stroke:#848484" d="M 1560.3 1095.49 L 1560.3 1094.05"/><path style="fill:none;stroke:#848484" d="M 968.767 841.073 L 968.767 842.228"/><path style="fill:none;stroke:#848484" d="M 27.2939 842.228 L 27.2939 841.073"/><path style="fill:none;stroke:#848484" d="M 751.149 786.957 L 752.303 786.957"/><path style="fill:none;stroke:#848484" d="M 752.303 896.344 L 751.149 896.344"/><path style="fill:none;stroke:#848484" d="M 605.685 786.957 L 606.84 786.957"/><path style="fill:none;stroke:#848484" d="M 606.84 896.344 L 605.685 896.344"/><path style="fill:none;stroke:#848484" d="M 279.835 786.957 L 280.99 786.957"/><path style="fill:none;stroke:#848484" d="M 280.99 896.344 L 279.835 896.344"/><path style="fill:none;stroke:#848484" d="M 27.2939 -77.0222 L 1560.3 -77.0222"/><path style="fill:none;stroke:#848484" d="M 1560.3 -77.0222 L 1560.3 -75.5791"/><path style="fill:none;stroke:#848484" d="M 1560.3 -75.5791 L 27.2939 -75.5791"/><path style="fill:none;stroke:#848484" d="M 27.2939 -75.5791 L 27.2939 -77.0222"/><path style="fill:none;stroke:#848484" d="M 605.685 896.344 L 605.685 842.228"/><path style="fill:none;stroke:#848484" d="M 605.685 841.073 L 605.685 786.957"/><path style="fill:none;stroke:#848484" d="M 606.84 786.957 L 606.84 841.073"/><path style="fill:none;stroke:#848484" d="M 606.84 842.228 L 606.84 896.344"/><path style="fill:none;stroke:#848484" d="M 27.2939 841.073 L 279.835 841.073"/><path style="fill:none;stroke:#848484" d="M 280.99 841.073 L 605.685 841.073"/><path style="fill:none;stroke:#848484" d="M 279.835 896.344 L 279.835 842.228"/><path style="fill:none;stroke:#848484" d="M 279.835 841.073 L 279.835 786.957"/><path style="fill:none;stroke:#848484" d="M 280.99 786.957 L 280.99 841.073"/><path style="fill:none;stroke:#848484" d="M 280.99 842.228 L 280.99 896.344"/><path style="fill:none;stroke:#848484" d="M 605.685 842.228 L 280.99 842.228"/><path style="fill:none;stroke:#848484" d="M 279.835 842.228 L 27.2939 842.228"/><path style="fill:none;stroke:#848484" d="M 752.303 786.957 L 752.303 841.073"/><path style="fill:none;stroke:#848484" d="M 752.303 842.228 L 752.303 896.344"/><path style="fill:none;stroke:#848484" d="M 751.149 896.344 L 751.149 842.228"/><path style="fill:none;stroke:#848484" d="M 751.149 841.073 L 751.149 786.957"/><path style="fill:none;stroke:#848484" d="M 968.767 842.228 L 752.303 842.228"/><path style="fill:none;stroke:#848484" d="M 751.149 842.228 L 606.84 842.228"/><path style="fill:none;stroke:#848484" d="M 606.84 841.073 L 751.149 841.073"/><path style="fill:none;stroke:#848484" d="M 752.303 841.073 L 968.767 841.073"/><path d="M 1063.527621,833.942703 A 18.038654,18.038654 0.000000 0, 0 1027.450312,833.942703 A 18.038654,18.038654 0.000000 0, 0 1063.527621,833.942703 z" style="fill:none;stroke:#000000"/><path d="M 1081.566275,833.942703 A 36.077309,36.077309 0.000000 0, 0 1009.411658,833.942703 A 36.077309,36.077309 0.000000 0, 0 1081.566275,833.942703 z" style="fill:none;stroke:#000000"/><path style="fill:none;stroke:#000000" d="M 1171.76 797.865 L 1171.76 870.02"/><path style="fill:none;stroke:#000000" d="M 1099.6 815.904 L 1099.6 851.981"/><path style="fill:none;stroke:#000000" d="M 1099.6 815.904 L 1171.76 797.865"/><path style="fill:none;stroke:#000000" d="M 1099.6 851.981 L 1171.76 870.02"/><path style="fill:none;stroke:#FF0000;stroke-dasharray:34.0858,4.2643,8.5215,4.2643," d="M 1045.49 788.846 L 1045.49 879.039"/><path style="fill:none;stroke:#FF0000;stroke-dasharray:34.0858,4.2643,8.5215,4.2643," d="M 1000.39 833.943 L 1180.78 833.943"/><path style="fill:none;stroke:#848484" d="M 27.2939 771.817 L 968.75 771.817"/><path style="fill:none;stroke:#848484" d="M 968.75 771.817 L 968.75 905.002"/><path style="fill:none;stroke:#848484" d="M 968.75 905.002 L 27.2939 905.002"/><path style="fill:none;stroke:#848484" d="M 27.2939 905.002 L 27.2939 771.817"/><text x="678.994372" y="849.331467" style="font-size: 14.431px; fill: #000000; font-family: Arial; text-anchor: middle" sodipodi:linespacing="125%"><tspan sodipodi:role="line" dx="0.000000" dy="14.430924"></tspan><tspan style="font-size:14.431px">Scale</tspan><tspan></tspan><tspan style="font-size:14.431px"></tspan><tspan sodipodi:role="line" x="678.9943718387113" dy="14.430924" style="font-size:14.431px"></tspan><tspan></tspan><tspan style="font-size:14.431px">2 : 1</tspan></text><text x="860.535388" y="848.721711" style="font-size: 14.431px; fill: #000000; font-family: Arial; text-anchor: middle" sodipodi:linespacing="125%"><tspan sodipodi:role="line" dx="0.000000" dy="14.430924"></tspan><tspan style="font-size:14.431px">Rev</tspan><tspan sodipodi:role="line" x="860.5353883025623" dy="14.430924" style="font-size:14.431px"></tspan><tspan></tspan><tspan style="font-size:14.431px">1</tspan></text><text x="41.724794" y="1045.703815" style="font-size: 14.431px; fill: #000000; font-family: Arial; text-anchor: start" sodipodi:linespacing="125%"><tspan sodipodi:role="line" dx="0.000000" dy="14.430924">Finish: Mill</tspan></text><text x="1122.107171" y="982.944687" style="font-size: 8.659px; fill: #000000; font-family: Arial; text-anchor: middle" sodipodi:linespacing="125%"><tspan sodipodi:role="line" dx="0.000000" dy="8.658554"></tspan><tspan style="font-size:8.659px">New York</tspan><tspan sodipodi:role="line" x="1122.1071708795116" dy="8.658554" style="font-size:8.659px"></tspan><tspan></tspan><tspan style="font-size:8.659px">1700 Ocean Ave Suite 2</tspan><tspan sodipodi:role="line" x="1122.1071708795116" dy="8.658554" style="font-size:8.659px"></tspan><tspan></tspan><tspan style="font-size:8.659px">Ronkonkoma NY 11779</tspan><tspan sodipodi:role="line" x="1122.1071708795116" dy="8.658554" style="font-size:8.659px"></tspan><tspan></tspan><tspan style="font-size:8.659px">Phone: (631) 750-3000</tspan><tspan sodipodi:role="line" x="1122.1071708795116" dy="8.658554" style="font-size:8.659px"></tspan></text><text x="1293.474386" y="982.944687" style="font-size: 8.659px; fill: #000000; font-family: Arial; text-anchor: middle" sodipodi:linespacing="125%"><tspan sodipodi:role="line" dx="0.000000" dy="8.658554"></tspan><tspan style="font-size:8.659px">Nevada</tspan><tspan sodipodi:role="line" x="1293.4743863412152" dy="8.658554" style="font-size:8.659px"></tspan><tspan></tspan><tspan style="font-size:8.659px">1080 Linda Way, Unit 10</tspan><tspan sodipodi:role="line" x="1293.4743863412152" dy="8.658554" style="font-size:8.659px"></tspan><tspan></tspan><tspan style="font-size:8.659px">Sparks, NV 89431</tspan><tspan sodipodi:role="line" x="1293.4743863412152" dy="8.658554" style="font-size:8.659px"></tspan><tspan></tspan><tspan style="font-size:8.659px">Phone: (775) 415-0100</tspan></text><text x="1464.841602" y="982.568525" style="font-size: 8.659px; fill: #000000; font-family: Arial; text-anchor: middle" sodipodi:linespacing="125%"><tspan sodipodi:role="line" dx="0.000000" dy="8.658554"></tspan><tspan style="font-size:8.659px">Texas</tspan><tspan></tspan><tspan style="font-size:8.659px"></tspan><tspan sodipodi:role="line" x="1464.8416018029186" dy="8.658554" style="font-size:8.659px"></tspan><tspan></tspan><tspan style="font-size:8.659px">1330 Post &amp; Paddock St., Suite 800</tspan><tspan sodipodi:role="line" x="1464.8416018029186" dy="8.658554" style="font-size:8.659px"></tspan><tspan></tspan><tspan style="font-size:8.659px">Grand Prairie, TX 75050</tspan><tspan sodipodi:role="line" x="1464.8416018029186" dy="8.658554" style="font-size:8.659px"></tspan><tspan></tspan><tspan style="font-size:8.659px">(945) 202-2700</tspan></text><text x="1298.030126" y="1050.844819" style="font-size: 14.431px; fill: #000000; font-family: Arial; text-anchor: middle" sodipodi:linespacing="125%"><tspan sodipodi:role="line" dx="0.000000" dy="14.430924">monarchmetal.com</tspan></text><text x="1291.341606" y="919.433236" style="font-size: 14.431px; fill: #000000; font-family: Arial; text-anchor: middle" sodipodi:linespacing="125%"><tspan sodipodi:role="line" dx="0.000000" dy="14.430924">MONARCH METAL FABRICATION. ANY REPRODUCTION IN PART OR AS A WHOLE</tspan><tspan sodipodi:role="line" x="1291.3416058914718" dy="14.430924"/><tspan sodipodi:role="line" x="1291.3416058914718" dy="14.430924"/></text><text x="153.564451" y="783.237838" style="font-size: 14.431px; fill: #000000; font-family: Arial; text-anchor: middle" sodipodi:linespacing="125%"><tspan sodipodi:role="line" dx="0.000000" dy="14.430924"></tspan><tspan style="font-size:14.431px">Created By:</tspan><tspan></tspan><tspan style="font-size:14.431px"></tspan><tspan sodipodi:role="line" x="153.56445057886916" dy="14.430924" style="font-size:14.431px"></tspan><tspan></tspan><tspan style="font-size:14.431px">AMH</tspan></text><text x="153.564451" y="849.207259" style="font-size: 14.431px; fill: #000000; font-family: Arial; text-anchor: middle" sodipodi:linespacing="125%"><tspan sodipodi:role="line" dx="0.000000" dy="14.430924"></tspan><tspan style="font-size:14.431px">Creation Date:</tspan><tspan></tspan><tspan style="font-size:14.431px"></tspan><tspan sodipodi:role="line" x="153.56445057886916" dy="14.430924" style="font-size:14.431px"></tspan><tspan></tspan><tspan style="font-size:14.431px">8/16/2022</tspan><tspan sodipodi:role="line" x="153.56445057886916" dy="14.430924" style="font-size:14.431px"></tspan></text><text x="860.535388" y="787.567115" style="font-size: 14.431px; fill: #000000; font-family: Arial; text-anchor: middle" sodipodi:linespacing="125%"><tspan sodipodi:role="line" dx="0.000000" dy="14.430924"></tspan><tspan style="font-size:14.431px">Sheet No.</tspan><tspan></tspan><tspan style="font-size:14.431px"></tspan><tspan sodipodi:role="line" x="860.5353883025623" dy="14.430924" style="font-size:14.431px"></tspan><tspan></tspan><tspan style="font-size:14.431px">4/8</tspan></text><text x="678.994372" y="787.567115" style="font-size: 14.431px; fill: #000000; font-family: Arial; text-anchor: middle" sodipodi:linespacing="125%"><tspan sodipodi:role="line" dx="0.000000" dy="14.430924"></tspan><tspan style="font-size:14.431px">Sheet Size</tspan><tspan></tspan><tspan style="font-size:14.431px"></tspan><tspan sodipodi:role="line" x="678.9943718387113" dy="14.430924" style="font-size:14.431px"></tspan><tspan></tspan><tspan style="font-size:14.431px">A</tspan></text><text x="443.337393" y="783.237838" style="font-size: 14.431px; fill: #000000; font-family: Arial; text-anchor: middle" sodipodi:linespacing="125%"><tspan sodipodi:role="line" dx="0.000000" dy="14.430924"></tspan><tspan style="font-size:14.431px">Approved By:</tspan><tspan></tspan><tspan style="font-size:14.431px"></tspan><tspan sodipodi:role="line" x="443.33739259748035" dy="14.430924" style="font-size:14.431px"></tspan><tspan></tspan><tspan style="font-size:14.431px">AMH</tspan></text><text x="443.337393" y="849.331467" style="font-size: 14.431px; fill: #000000; font-family: Arial; text-anchor: middle" sodipodi:linespacing="125%"><tspan sodipodi:role="line" dx="0.000000" dy="14.430924"></tspan><tspan style="font-size:14.431px">Approval Date:</tspan><tspan></tspan><tspan style="font-size:14.431px"></tspan><tspan sodipodi:role="line" x="443.33739259748035" dy="14.430924" style="font-size:14.431px"></tspan><tspan></tspan><tspan style="font-size:14.431px">8/19/2022</tspan></text><text x="41.724794" y="996.999449" style="font-size: 14.431px; fill: #000000; font-family: Arial; text-anchor: start" sodipodi:linespacing="125%"><tspan sodipodi:role="line" dx="0.000000" dy="14.430924">Weight: 0.812 lbmass</tspan></text><text x="38.976047" y="933.864159" style="font-size: 14.431px; fill: #000000; font-family: Arial; text-anchor: start" sodipodi:linespacing="125%"><tspan sodipodi:role="line" dx="0.000000" dy="0.000000">STOCK_NUMBERMF250-48H8</tspan></text><text x="41.724794" y="960.922141" style="font-size: 14.431px; fill: #000000; font-family: Arial; text-anchor: start" sodipodi:linespacing="125%"><tspan sodipodi:role="line" dx="0.000000" dy="0.000000">DESCRIPTION</tspan></text><text x="41.037607" y="1033.763945" style="font-size: 14.431px; fill: #000000; font-family: Arial; text-anchor: start" sodipodi:linespacing="125%"><tspan sodipodi:role="line" dx="0.000000" dy="0.000000">MATERIALAluminum 6063-T6</tspan></text></symbol></defs><g inkscape:groupmode="layer" inkscape:label="0"/><g inkscape:groupmode="layer" inkscape:label="BORDER__ANSI_"/><g inkscape:groupmode="layer" inkscape:label="BREAK_LINE__ANSI_"><path d="M 595.271281,762.497366 L 595.271281,734.741736 L 599.780933,733.533376 L 590.761616,728.326065 L 595.271281,727.117704 L 595.271281,699.362074" style="fill:none;stroke:#000000"/><path d="M 613.309928,762.497366 L 613.309928,734.741736 L 617.819593,733.533376 L 608.800263,728.326065 L 613.309928,727.117704 L 613.309928,699.362074" style="fill:none;stroke:#000000"/></g><g inkscape:groupmode="layer" inkscape:label="CENTER_MARK__ANSI_"><path style="fill:none;stroke:#FF0000;stroke-dasharray:34.0858,4.2643,8.5215,4.2643," d="M 638.555 737.694 L 616.855 737.694"/><path style="fill:none;stroke:#FF0000;stroke-dasharray:34.0858,4.2643,8.5215,4.2643," d="M 625.874 725.013 L 625.874 750.375"/><path style="fill:none;stroke:#FF0000;stroke-dasharray:34.0858,4.2643,8.5215,4.2643," d="M 591.667 737.694 L 566.304 737.694"/><path style="fill:none;stroke:#FF0000;stroke-dasharray:34.0858,4.2643,8.5215,4.2643," d="M 578.986 725.013 L 578.986 750.375"/><path style="fill:none;stroke:#FF0000;stroke-dasharray:34.0858,4.2643,8.5215,4.2643," d="M 303.048 737.694 L 277.686 737.694"/><path style="fill:none;stroke:#FF0000;stroke-dasharray:34.0858,4.2643,8.5215,4.2643," d="M 290.367 725.013 L 290.367 750.375"/></g><g inkscape:groupmode="layer" inkscape:label="DIMENSION__ANSI_"><use xlink:href="#*D5" transform="translate(0 0)"/><use xlink:href="#*D6" transform="translate(0 0)"/><use xlink:href="#*D7" transform="translate(0 0)"/><use xlink:href="#*D8" transform="translate(0 0)"/><use xlink:href="#*D9" transform="translate(0 0)"/><use xlink:href="#*D10" transform="translate(0 0)"/><use xlink:href="#*D11" transform="translate(0 0)"/><use xlink:href="#*D12" transform="translate(0 0)"/><use xlink:href="#*D13" transform="translate(0 0)"/><use xlink:href="#*D14" transform="translate(0 0)"/></g><g inkscape:groupmode="layer" inkscape:label="HATCH__ANSI_"/><g inkscape:groupmode="layer" inkscape:label="SYMBOL__ANSI_">

<text x="335.928438" y="685.887009" style="font-size: 10.215px; fill: #000000; font-family: Arial; text-anchor: start" sodipodi:linespacing="125%"><tspan sodipodi:role="line" dx="0.000000" dy="7.215462"/><tspan> Ø.203 THRU, <tspan font-weight="bold">{holes}X</tspan></tspan></text>

<path d="M 292.330306,734.603142 319.452187,684.494740 333.655852,684.494740" style="fill:none;stroke:#000000"/></g><g inkscape:groupmode="layer" inkscape:label="TITLE__ANSI_"/><g inkscape:groupmode="layer" inkscape:label="VISIBLE__ANSI_"><path style="fill:none;stroke:#000000" d="M 74.7819 753.533 L 74.7819 747.323"/><path d="M 74.781865,753.532502 A 2.164639,2.164639 0.000000 0 0 76.240643,755.578821" style="fill:none;stroke:#000000"/><path d="M 76.240643,764.036940 A 4.473586,4.473586 0.000000 0 0 76.240643,755.578821" style="fill:none;stroke:#000000"/><path d="M 76.240643,764.036940 A 2.164637,2.164637 0.000000 0 0 74.781865,766.083258" style="fill:none;stroke:#000000"/><path style="fill:none;stroke:#000000" d="M 74.7819 772.293 L 74.7819 766.083"/><path d="M 74.781865,772.292703 A 2.164639,2.164639 0.000000 0 0 76.240643,774.339022" style="fill:none;stroke:#000000"/><path d="M 76.240643,820.317543 A 2.164639,2.164639 0.000000 0 0 74.781865,822.363862" style="fill:none;stroke:#000000"/><path d="M 76.240643,820.317543 A 4.473587,4.473587 0.000000 0 0 76.240643,811.859425" style="fill:none;stroke:#000000"/><path d="M 74.781865,809.813106 A 2.164639,2.164639 0.000000 0 0 76.240643,811.859425" style="fill:none;stroke:#000000"/><path style="fill:none;stroke:#000000" d="M 74.7819 809.813 L 74.7819 803.604"/><path d="M 76.240643,801.557342 A 2.164639,2.164639 0.000000 0 0 74.781865,803.603661" style="fill:none;stroke:#000000"/><path d="M 76.240643,801.557342 A 4.473586,4.473586 0.000000 0 0 76.240643,793.099224" style="fill:none;stroke:#000000"/><path d="M 74.781865,791.052905 A 2.164639,2.164639 0.000000 0 0 76.240643,793.099224" style="fill:none;stroke:#000000"/><path style="fill:none;stroke:#000000" d="M 74.7819 791.053 L 74.7819 790.113"/><path style="fill:none;stroke:#000000" d="M 74.7819 790.113 L 76.9465 787.948"/><path style="fill:none;stroke:#000000" d="M 76.9465 787.948 L 74.7819 785.784"/><path style="fill:none;stroke:#000000" d="M 74.7819 785.784 L 74.7819 784.843"/><path d="M 76.240643,782.797141 A 2.164639,2.164639 0.000000 0 0 74.781865,784.843461" style="fill:none;stroke:#000000"/><path d="M 76.240643,782.797141 A 4.473586,4.473586 0.000000 0 0 76.240643,774.339022" style="fill:none;stroke:#000000"/><path d="M 76.240643,745.276738 A 2.164639,2.164639 0.000000 0 0 74.781865,747.323058" style="fill:none;stroke:#000000"/><path d="M 76.240643,745.276738 A 4.473586,4.473586 0.000000 0 0 76.240643,736.818620" style="fill:none;stroke:#000000"/><path d="M 74.781865,734.772301 A 2.164639,2.164639 0.000000 0 0 76.240643,736.818620" style="fill:none;stroke:#000000"/><path style="fill:none;stroke:#000000" d="M 74.7819 734.772 L 74.7819 728.563"/><path d="M 76.240643,726.516537 A 2.164637,2.164637 0.000000 0 0 74.781865,728.562855" style="fill:none;stroke:#000000"/><path d="M 76.240643,726.516537 A 4.473586,4.473586 0.000000 0 0 76.240643,718.058419" style="fill:none;stroke:#000000"/><path d="M 74.781865,716.012100 A 2.164639,2.164639 0.000000 0 0 76.240643,718.058419" style="fill:none;stroke:#000000"/><path style="fill:none;stroke:#000000" d="M 74.7819 716.012 L 74.7819 709.803"/><path d="M 76.240643,707.756336 A 2.164639,2.164639 0.000000 0 0 74.781865,709.802655" style="fill:none;stroke:#000000"/><path d="M 76.240643,707.756336 A 4.473586,4.473586 0.000000 0 0 76.240643,699.298217" style="fill:none;stroke:#000000"/><path d="M 74.781865,697.251898 A 2.164639,2.164639 0.000000 0 0 76.240643,699.298217" style="fill:none;stroke:#000000"/><path style="fill:none;stroke:#000000" d="M 74.7819 697.252 L 74.7819 688.375"/><path d="M 79.255452,683.901222 A 4.473586,4.473586 0.000000 0 0 74.781865,688.374806" style="fill:none;stroke:#000000"/><path style="fill:none;stroke:#000000" d="M 79.2555 683.901 L 89.2128 683.901"/><path d="M 89.212790,683.901220 A 3.607731,3.607731 0.000000 0 0 92.820520,680.293489" style="fill:none;stroke:#000000"/><path style="fill:none;stroke:#000000" d="M 92.8205 680.293 L 92.8205 652.297"/><path d="M 97.294109,647.823905 A 4.473587,4.473587 0.000000 0 0 92.820520,652.297492" style="fill:none;stroke:#000000"/><path style="fill:none;stroke:#000000" d="M 97.2941 647.824 L 106.386 647.824"/><path d="M 110.859175,652.297499 A 4.473588,4.473588 0.000000 0 0 106.385586,647.823910" style="fill:none;stroke:#000000"/><path style="fill:none;stroke:#000000" d="M 110.859 652.297 L 110.859 715.505"/><path d="M 106.385563,719.978533 A 4.473586,4.473586 0.000000 0 0 110.859175,715.504944" style="fill:none;stroke:#000000"/><path style="fill:none;stroke:#000000" d="M 106.386 719.979 L 97.2941 719.979"/><path d="M 97.294080,719.978529 A 4.473587,4.473587 0.000000 0 0 92.820520,724.452116" style="fill:none;stroke:#000000"/><path style="fill:none;stroke:#000000" d="M 92.8205 724.452 L 92.8205 814.645"/><path d="M 79.255452,828.210460 A 13.565069,13.565069 0.000000 0 0 92.820520,814.645392" style="fill:none;stroke:#000000"/><path style="fill:none;stroke:#000000" d="M 79.2555 828.21 L 76.9465 828.21"/><path d="M 74.781865,826.045822 A 2.164639,2.164639 0.000000 0 0 76.946504,828.210460" style="fill:none;stroke:#000000"/><path style="fill:none;stroke:#000000" d="M 74.7819 826.046 L 74.7819 822.364"/><path d="M 629.535695,737.694217 A 3.661847,3.661847 0.000000 0, 0 622.212002,737.694217 A 3.661847,3.661847 0.000000 0, 0 629.535695,737.694217 z" style="fill:none;stroke:#000000"/><path d="M 582.647362,737.694217 A 3.661847,3.661847 0.000000 0, 0 575.323669,737.694217 A 3.661847,3.661847 0.000000 0, 0 582.647362,737.694217 z" style="fill:none;stroke:#000000"/><path d="M 294.028894,737.694217 A 3.661847,3.661847 0.000000 0, 0 286.705201,737.694217 A 3.661847,3.661847 0.000000 0, 0 294.028894,737.694217 z" style="fill:none;stroke:#000000"/><path style="fill:none;stroke:#000000" d="M 770.183 708.381 L 613.31 708.381"/><path style="fill:none;stroke:#000000" d="M 146.058 709.5 L 146.058 725.302"/><path style="fill:none;stroke:#000000" d="M 770.183 709.5 L 770.183 725.302"/><path style="fill:none;stroke:#000000" d="M 770.183 726.42 L 613.31 726.42"/><path style="fill:none;stroke:#000000" d="M 146.058 727.538 L 146.058 750.087"/><path style="fill:none;stroke:#000000" d="M 770.183 727.538 L 770.183 750.087"/><path style="fill:none;stroke:#000000" d="M 770.183 753.478 L 613.31 753.478"/><path style="fill:none;stroke:#000000" d="M 595.271 708.381 L 146.058 708.381"/><path style="fill:none;stroke:#000000" d="M 146.058 709.5 L 146.058 708.381"/><path style="fill:none;stroke:#000000" d="M 770.183 709.5 L 770.183 708.381"/><path style="fill:none;stroke:#000000" d="M 146.058 726.42 L 146.058 725.302"/><path style="fill:none;stroke:#000000" d="M 595.271 726.42 L 146.058 726.42"/><path style="fill:none;stroke:#000000" d="M 770.183 726.42 L 770.183 725.302"/><path style="fill:none;stroke:#000000" d="M 146.058 726.42 L 146.058 727.538"/><path style="fill:none;stroke:#000000" d="M 770.183 726.42 L 770.183 727.538"/><path style="fill:none;stroke:#000000" d="M 146.058 753.478 L 146.058 750.087"/><path style="fill:none;stroke:#000000" d="M 595.271 753.478 L 146.058 753.478"/><path style="fill:none;stroke:#000000" d="M 770.183 753.478 L 770.183 750.087"/></g><g inkscape:groupmode="layer" inkscape:label="DEFPOINTS"/></svg>