<svg xmlns="http://www.w3.org/2000/svg" xmlns:svg="http://www.w3.org/2000/svg" xmlns:xlink="http://www.w3.org/1999/xlink" xmlns:sodipodi="http://sodipodi.sourceforge.net/DTD/sodipodi-0.dtd" xmlns:inkscape="http://www.inkscape.org/namespaces/inkscape" height="2000.5196850393702" preserveAspectRatio="xMidYMid meet" viewBox="0 500 793.7007874015749 1000" width="1500.7007874015749">
    <defs><marker id="DistanceX" orient="auto" refX="0.0" refY="0.0" style="overflow:visible"><path d="M 3,-3 L -3,3 M 0,-5 L  0,5" style="stroke:#000000; stroke-width:0.5"/></marker><pattern id="Hatch" patternUnits="userSpaceOnUse" width="8" height="8" x="0" y="0"><path d="M8 4 l-4,4" stroke="#000000" stroke-width="0.25" linecap="square"/><path d="M6 2 l-4,4" stroke="#000000" stroke-width="0.25" linecap="square"/><path d="M4 0 l-4,4" stroke="#000000" stroke-width="0.25" linecap="square"/></pattern><symbol id="*MODEL_SPACE"/><symbol id="*PAPER_SPACE"/><symbol id="_CLOSED"><path style="fill:none;stroke:#000000;stroke-linecap:round" d="M -108.232 1104.48 L 0 1122.52"/><path style="fill:none;stroke:#000000;stroke-linecap:round" d="M 0 1122.52 L -108.232 1140.56"/><path style="fill:none;stroke:#000000;stroke-linecap:round" d="M -108.232 1104.48 L -108.232 1140.56"/><path style="fill:none;stroke:#000000;stroke-linecap:round" d="M 0 1122.52 L -108.232 1122.52"/></symbol><symbol id="DATUMFILLED45"><path d="M 0.000000,1014.287759 L 0.000000,1230.751611 L -108.231926,1122.519685 L 0.000000,1014.287759" style="fill:none;stroke:#000000"/><path style="fill:none;stroke:#000000" d="M 0 1014.29 L 0 1230.75 L 0 1014.29 z"/></symbol><symbol id="FILLED-1"><path style="fill:none;stroke:#000000" d="M -108.232 1122.52 L 0 1122.52"/><path d="M -108.231926,1133.287657 L 0.000000,1122.519685 L -108.231926,1111.751713 L -108.231926,1133.287657" style="fill:none;stroke:#000000"/><path style="fill:none;stroke:#000000" d="M -108.232 1133.29 L 0 1122.52 L -108.232 1133.29 z"/><path style="fill:none;stroke:#000000" d="M -108.232 1133.29 L 0 1122.52"/><path style="fill:none;stroke:#000000" d="M 0 1122.52 L -108.232 1111.75"/><path style="fill:none;stroke:#000000" d="M -108.232 1111.75 L -108.232 1133.29"/></symbol><symbol id="BORDERS_MONARCHMODERNBORDE"><path style="fill:none;stroke:#000000" d="M 0 202.548 L 1190.55 202.548"/><path style="fill:none;stroke:#000000" d="M 1190.55 202.548 L 1190.55 1122.52"/><path style="fill:none;stroke:#000000" d="M 1190.55 1122.52 L 0 1122.52"/><path style="fill:none;stroke:#000000" d="M 0 1122.52 L 0 202.548"/><path style="fill:none;stroke:#000000" d="M 1190.55 202.548 L 0 202.548"/><path style="fill:none;stroke:#000000" d="M 0 202.548 L 0 1122.52"/><path style="fill:none;stroke:#000000" d="M 0 1122.52 L 1190.55 1122.52"/><path style="fill:none;stroke:#000000" d="M 1190.55 1122.52 L 1190.55 202.548"/></symbol><symbol id="TITLE_BLOCKS_MONARCHMODERN"><path d="M 20.470403,911.434912 L 20.470403,912.300768 L 209.876273,912.300768 L 209.876273,952.887740 L 210.742128,952.887740 L 210.742128,912.300768 L 454.263961,912.300768 L 454.263961,952.887740 L 455.129816,952.887740 L 455.129816,912.300768 L 563.361742,912.300768 L 563.361742,952.887740 L 564.227597,952.887740 L 564.227597,912.300768 L 726.575485,912.300768 L 726.575485,911.434912 L 564.227597,911.434912 L 564.227597,870.847940 L 563.361742,870.847940 L 563.361742,911.434912 L 455.129816,911.434912 L 455.129816,870.847940 L 454.263961,870.847940 L 454.263961,911.434912 L 210.742128,911.434912 L 210.742128,870.847940 L 209.876273,870.847940 L 209.876273,911.434912 L 20.470403,911.434912 z " style="fill:#848484"/><path d="M 20.470403,1101.165478 L 1170.227512,1101.165478 L 1170.227512,1102.247797 L 20.470403,1102.247797 L 20.470403,1101.165478 z " style="fill:#848484"/><path d="M 1170.227512,222.863252 L 1170.227512,223.945571 L 20.470403,223.945571 L 20.470403,222.863252 L 1170.227512,222.863252 z " style="fill:#848484"/><path d="M 20.470403,959.381655 L 20.470403,1094.671562 L 595.348957,1094.671562 L 595.348957,959.381655 L 20.470403,959.381655 z " style="fill:#000000"/><path d="M 1170.227512,1094.671562 L 1170.227512,959.381655 L 595.348957,959.381655 L 595.348957,1094.671562 L 1170.227512,1094.671562 z " style="fill:#000000"/><path style="fill:none;stroke:#848484" d="M 20.4704 959.382 L 1170.23 959.382"/><path style="fill:none;stroke:#848484" d="M 1170.23 959.382 L 1170.23 1094.67"/><path style="fill:none;stroke:#848484" d="M 1170.23 1094.67 L 20.4704 1094.67"/><path style="fill:none;stroke:#848484" d="M 20.4704 1094.67 L 20.4704 959.382"/><path style="fill:none;stroke:#848484" d="M 1170.23 1101.17 L 20.4704 1101.17"/><path style="fill:none;stroke:#848484" d="M 20.4704 1101.17 L 20.4704 1102.25"/><path style="fill:none;stroke:#848484" d="M 20.4704 1102.25 L 1170.23 1102.25"/><path style="fill:none;stroke:#848484" d="M 1170.23 1102.25 L 1170.23 1101.17"/><path style="fill:none;stroke:#848484" d="M 726.575 911.435 L 726.575 912.301"/><path style="fill:none;stroke:#848484" d="M 20.4704 912.301 L 20.4704 911.435"/><path style="fill:none;stroke:#848484" d="M 563.362 870.848 L 564.228 870.848"/><path style="fill:none;stroke:#848484" d="M 564.228 952.888 L 563.362 952.888"/><path style="fill:none;stroke:#848484" d="M 454.264 870.848 L 455.13 870.848"/><path style="fill:none;stroke:#848484" d="M 455.13 952.888 L 454.264 952.888"/><path style="fill:none;stroke:#848484" d="M 209.876 870.848 L 210.742 870.848"/><path style="fill:none;stroke:#848484" d="M 210.742 952.888 L 209.876 952.888"/><path style="fill:none;stroke:#848484" d="M 20.4704 222.863 L 1170.23 222.863"/><path style="fill:none;stroke:#848484" d="M 1170.23 222.863 L 1170.23 223.946"/><path style="fill:none;stroke:#848484" d="M 1170.23 223.946 L 20.4704 223.946"/><path style="fill:none;stroke:#848484" d="M 20.4704 223.946 L 20.4704 222.863"/><path style="fill:none;stroke:#848484" d="M 454.264 952.888 L 454.264 912.301"/><path style="fill:none;stroke:#848484" d="M 454.264 911.435 L 454.264 870.848"/><path style="fill:none;stroke:#848484" d="M 455.13 870.848 L 455.13 911.435"/><path style="fill:none;stroke:#848484" d="M 455.13 912.301 L 455.13 952.888"/><path style="fill:none;stroke:#848484" d="M 20.4704 911.435 L 209.876 911.435"/><path style="fill:none;stroke:#848484" d="M 210.742 911.435 L 454.264 911.435"/><path style="fill:none;stroke:#848484" d="M 209.876 952.888 L 209.876 912.301"/><path style="fill:none;stroke:#848484" d="M 209.876 911.435 L 209.876 870.848"/><path style="fill:none;stroke:#848484" d="M 210.742 870.848 L 210.742 911.435"/><path style="fill:none;stroke:#848484" d="M 210.742 912.301 L 210.742 952.888"/><path style="fill:none;stroke:#848484" d="M 454.264 912.301 L 210.742 912.301"/><path style="fill:none;stroke:#848484" d="M 209.876 912.301 L 20.4704 912.301"/><path style="fill:none;stroke:#848484" d="M 564.228 870.848 L 564.228 911.435"/><path style="fill:none;stroke:#848484" d="M 564.228 912.301 L 564.228 952.888"/><path style="fill:none;stroke:#848484" d="M 563.362 952.888 L 563.362 912.301"/><path style="fill:none;stroke:#848484" d="M 563.362 911.435 L 563.362 870.848"/><path style="fill:none;stroke:#848484" d="M 726.575 912.301 L 564.228 912.301"/><path style="fill:none;stroke:#848484" d="M 563.362 912.301 L 455.13 912.301"/><path style="fill:none;stroke:#848484" d="M 455.13 911.435 L 563.362 911.435"/><path style="fill:none;stroke:#848484" d="M 564.228 911.435 L 726.575 911.435"/><path d="M 797.645715,906.086949 A 13.528991,13.528991 0.000000 0, 0 770.587734,906.086949 A 13.528991,13.528991 0.000000 0, 0 797.645715,906.086949 z" style="fill:none;stroke:#000000"/><path d="M 811.174706,906.086949 A 27.057981,27.057981 0.000000 0, 0 757.058743,906.086949 A 27.057981,27.057981 0.000000 0, 0 811.174706,906.086949 z" style="fill:none;stroke:#000000"/><path style="fill:none;stroke:#000000" d="M 878.82 879.029 L 878.82 933.145"/><path style="fill:none;stroke:#000000" d="M 824.704 892.558 L 824.704 919.616"/><path style="fill:none;stroke:#000000" d="M 824.704 892.558 L 878.82 879.029"/><path style="fill:none;stroke:#000000" d="M 824.704 919.616 L 878.82 933.145"/><path style="fill:none;stroke:#FF0000;stroke-dasharray:34.0858,4.2643,8.5215,4.2643," d="M 784.117 872.264 L 784.117 939.909"/><path style="fill:none;stroke:#FF0000;stroke-dasharray:34.0858,4.2643,8.5215,4.2643," d="M 750.294 906.087 L 885.584 906.087"/><path style="fill:none;stroke:#848484" d="M 20.4704 859.493 L 726.563 859.493"/><path style="fill:none;stroke:#848484" d="M 726.563 859.493 L 726.563 959.382"/><path style="fill:none;stroke:#848484" d="M 726.563 959.382 L 20.4704 959.382"/><path style="fill:none;stroke:#848484" d="M 20.4704 959.382 L 20.4704 859.493"/><text x="509.245779" y="917.171204" style="font-size: 10.823px; fill: #000000; font-family: Arial; text-anchor: middle" sodipodi:linespacing="125%"><tspan sodipodi:role="line" dx="0.000000" dy="10.823193"/><tspan sodipodi:role="line" x="509.2457788790335" dy="10.823193">1.5:1</tspan></text><text x="645.401541" y="917.171204" style="font-size: 10.823px; fill: #000000; font-family: Arial; text-anchor: middle" sodipodi:linespacing="125%"><tspan sodipodi:role="line" dx="0.000000" dy="10.823193"/><tspan sodipodi:role="line" x="645.4015412269217" dy="10.823193">1</tspan></text><text x="31.293596" y="1064.907783" style="font-size: 10.823px; fill: #000000; font-family: Arial; text-anchor: start" sodipodi:linespacing="125%"><tspan sodipodi:role="line" dx="0.000000" dy="10.823193">Finish: Mill</tspan></text><text x="841.580378" y="1017.838436" style="font-size: 6.494px; fill: #000000; font-family: Arial; text-anchor: middle" sodipodi:linespacing="125%"><tspan sodipodi:role="line" dx="0.000000" dy="6.493916"></tspan><tspan style="font-size:6.494px">New York</tspan><tspan sodipodi:role="line" x="841.5803781596337" dy="6.493916" style="font-size:6.494px"></tspan><tspan></tspan><tspan style="font-size:6.494px">1700 Ocean Ave Suite 2</tspan><tspan sodipodi:role="line" x="841.5803781596337" dy="6.493916" style="font-size:6.494px"></tspan><tspan></tspan><tspan style="font-size:6.494px">Ronkonkoma NY 11779</tspan><tspan sodipodi:role="line" x="841.5803781596337" dy="6.493916" style="font-size:6.494px"></tspan><tspan></tspan><tspan style="font-size:6.494px">Phone: (631) 750-3000</tspan><tspan sodipodi:role="line" x="841.5803781596337" dy="6.493916" style="font-size:6.494px"></tspan></text><text x="970.105790" y="1017.838436" style="font-size: 6.494px; fill: #000000; font-family: Arial; text-anchor: middle" sodipodi:linespacing="125%"><tspan sodipodi:role="line" dx="0.000000" dy="6.493916"></tspan><tspan style="font-size:6.494px">Nevada</tspan><tspan sodipodi:role="line" x="970.1057897559114" dy="6.493916" style="font-size:6.494px"></tspan><tspan></tspan><tspan style="font-size:6.494px">1080 Linda Way, Unit 10</tspan><tspan sodipodi:role="line" x="970.1057897559114" dy="6.493916" style="font-size:6.494px"></tspan><tspan></tspan><tspan style="font-size:6.494px">Sparks, BV 89431</tspan><tspan sodipodi:role="line" x="970.1057897559114" dy="6.493916" style="font-size:6.494px"></tspan><tspan></tspan><tspan style="font-size:6.494px">Phone: (775) 415-0100</tspan></text><text x="1098.631201" y="1017.556315" style="font-size: 6.494px; fill: #000000; font-family: Arial; text-anchor: middle" sodipodi:linespacing="125%"><tspan sodipodi:role="line" dx="0.000000" dy="6.493916"></tspan><tspan style="font-size:6.494px">Texas</tspan><tspan></tspan><tspan style="font-size:6.494px"></tspan><tspan sodipodi:role="line" x="1098.631201352189" dy="6.493916" style="font-size:6.494px"></tspan><tspan></tspan><tspan style="font-size:6.494px">1330 Post &amp; Paddock St., Suite 800</tspan><tspan sodipodi:role="line" x="1098.631201352189" dy="6.493916" style="font-size:6.494px"></tspan><tspan></tspan><tspan style="font-size:6.494px">Grand Prairie, TX 75050</tspan><tspan sodipodi:role="line" x="1098.631201352189" dy="6.493916" style="font-size:6.494px"></tspan><tspan></tspan><tspan style="font-size:6.494px">(945) 202-2700</tspan></text><text x="973.522594" y="1068.763535" style="font-size: 10.823px; fill: #000000; font-family: Arial; text-anchor: middle" sodipodi:linespacing="125%"><tspan sodipodi:role="line" dx="0.000000" dy="10.823193">monarchmetal.com</tspan></text><text x="968.506204" y="970.204848" style="font-size: 10.823px; fill: #000000; font-family: Arial; text-anchor: middle" sodipodi:linespacing="125%"><tspan sodipodi:role="line" dx="0.000000" dy="10.823193">MONARCH METAL FABRICATION. ANY REPRODUCTION IN PART OR AS A WHOLE</tspan><tspan sodipodi:role="line" x="968.5062044186038" dy="10.823193"/><tspan sodipodi:role="line" x="968.5062044186038" dy="10.823193"/></text><text x="115.173338" y="867.600982" style="font-size: 10.823px; fill: #000000; font-family: Arial; text-anchor: middle" sodipodi:linespacing="125%"><tspan sodipodi:role="line" dx="0.000000" dy="10.823193"/><tspan sodipodi:role="line" x="115.17333793415186" dy="10.823193">AMH</tspan></text><text x="115.173338" y="917.171204" style="font-size: 10.823px; fill: #000000; font-family: Arial; text-anchor: middle" sodipodi:linespacing="125%"><tspan sodipodi:role="line" dx="0.000000" dy="10.823193"/><tspan sodipodi:role="line" x="115.17333793415186" dy="10.823193">8/19/2022</tspan><tspan sodipodi:role="line" x="115.17333793415186" dy="10.823193"/></text><text x="645.401541" y="870.847940" style="font-size: 10.823px; fill: #000000; font-family: Arial; text-anchor: middle" sodipodi:linespacing="125%"><tspan sodipodi:role="line" dx="0.000000" dy="10.823193"/><tspan sodipodi:role="line" x="645.4015412269217" dy="10.823193">5/9</tspan></text><text x="509.245779" y="870.847940" style="font-size: 10.823px; fill: #000000; font-family: Arial; text-anchor: middle" sodipodi:linespacing="125%"><tspan sodipodi:role="line" dx="0.000000" dy="10.823193"/><tspan/><tspan sodipodi:role="line" x="509.2457788790335" dy="10.823193">A</tspan></text><text x="332.503044" y="867.600982" style="font-size: 10.823px; fill: #000000; font-family: Arial; text-anchor: middle" sodipodi:linespacing="125%"><tspan sodipodi:role="line" dx="0.000000" dy="10.823193"/><tspan sodipodi:role="line" x="332.50304444811024" dy="10.823193">AMH</tspan></text><text x="332.503044" y="917.171204" style="font-size: 10.823px; fill: #000000; font-family: Arial; text-anchor: middle" sodipodi:linespacing="125%"><tspan sodipodi:role="line" dx="0.000000" dy="10.823193"/><tspan sodipodi:role="line" x="332.50304444811024" dy="10.823193">8/23/2022</tspan></text><text x="31.293596" y="1028.379508" style="font-size: 10.823px; fill: #000000; font-family: Arial; text-anchor: start" sodipodi:linespacing="125%"><tspan sodipodi:role="line" dx="0.000000" dy="10.823193">Weight: 2.043 lbmass</tspan></text><text x="28.819723" y="983.192679" style="font-size: 12.988px; fill: #000000; font-family: Arial; text-anchor: start" sodipodi:linespacing="125%"><tspan sodipodi:role="line" dx="0.000000" dy="0.000000">STOCK_NUMBERMFSTR-0375-48H8</tspan></text><text x="29.232035" y="1003.383087" style="font-size: 10.823px; fill: #000000; font-family: Arial; text-anchor: start" sodipodi:linespacing="125%"><tspan sodipodi:role="line" dx="0.000000" dy="0.000000">DESCRIPTIONHeavy Duty 3/8" Rail</tspan></text><text x="30.778205" y="1055.952880" style="font-size: 10.823px; fill: #000000; font-family: Arial; text-anchor: start" sodipodi:linespacing="125%"><tspan sodipodi:role="line" dx="0.000000" dy="0.000000">MATERIALAluminum 6063</tspan></text></symbol><symbol id="*D6"><path style="fill:none;stroke:#000000" d="M 93.2843 869.4 L 93.2843 903.941"/><path style="fill:none;stroke:#000000" d="M 133.871 869.4 L 133.871 903.941"/><path style="fill:none;stroke:#000000" d="M 126.769 894.921 L 100.386 894.921"/><path style="fill:none;stroke:#000000" d="M 93.2843 894.921 L 82.6441 894.921"/><path style="fill:none;stroke:#000000" d="M 126.769 893.738 L 126.769 896.105 L 133.871 894.921 z"/><path style="fill:none;stroke:#000000" d="M 100.386 893.738 L 100.386 896.105 L 93.2843 894.921 z"/><text x="60.618584" y="891.252340" style="font-size: 7.215px; fill: #000000; font-family: Arial; text-anchor: start" sodipodi:linespacing="125%"><tspan sodipodi:role="line" dx="0.000000" dy="7.215462" dominant-baseline="central">.375</tspan></text><path d="M 93.534349,864.890671 A 0.250000,0.250000 0.000000 0, 0 93.034349,864.890671 A 0.250000,0.250000 0.000000 0, 0 93.534349,864.890671 z" style="fill:none;stroke:#000000"/><path d="M 134.121321,864.890671 A 0.250000,0.250000 0.000000 0, 0 133.621321,864.890671 A 0.250000,0.250000 0.000000 0, 0 134.121321,864.890671 z" style="fill:none;stroke:#000000"/><path d="M 134.121321,894.921479 A 0.250000,0.250000 0.000000 0, 0 133.621321,894.921479 A 0.250000,0.250000 0.000000 0, 0 134.121321,894.921479 z" style="fill:none;stroke:#000000"/></symbol><symbol id="*D7"><path style="fill:none;stroke:#000000" d="M 117.208 609.463 L 21.7689 609.463"/><path style="fill:none;stroke:#000000" d="M 90.3982 866.514 L 21.7689 866.514"/><path style="fill:none;stroke:#000000" d="M 30.7882 616.565 L 30.7882 732.021"/><path style="fill:none;stroke:#000000" d="M 30.7882 859.412 L 30.7882 743.956"/><path style="fill:none;stroke:#000000" d="M 29.6046 616.565 L 31.9719 616.565 L 30.7882 609.463 z"/><path style="fill:none;stroke:#000000" d="M 29.6046 859.412 L 31.9719 859.412 L 30.7882 866.514 z"/><text x="17.698045" y="734.294012" style="font-size: 7.215px; fill: #000000; font-family: Arial; text-anchor: start" sodipodi:linespacing="125%"><tspan sodipodi:role="line" dx="0.000000" dy="7.215462" dominant-baseline="central">2.375</tspan></text><path d="M 121.967623,609.463326 A 0.250000,0.250000 0.000000 0, 0 121.467623,609.463326 A 0.250000,0.250000 0.000000 0, 0 121.967623,609.463326 z" style="fill:none;stroke:#000000"/><path d="M 95.157827,866.514150 A 0.250000,0.250000 0.000000 0, 0 94.657827,866.514150 A 0.250000,0.250000 0.000000 0, 0 95.157827,866.514150 z" style="fill:none;stroke:#000000"/><path d="M 31.038224,866.514150 A 0.250000,0.250000 0.000000 0, 0 30.538224,866.514150 A 0.250000,0.250000 0.000000 0, 0 31.038224,866.514150 z" style="fill:none;stroke:#000000"/></symbol><symbol id="*D8"><path style="fill:none;stroke:#000000" d="M 90.3982 690.637 L 49.681 690.637"/><path style="fill:none;stroke:#000000" d="M 117.208 609.463 L 49.681 609.463"/><path style="fill:none;stroke:#000000" d="M 58.7003 683.535 L 58.7003 656.028"/><path style="fill:none;stroke:#000000" d="M 58.7003 616.565 L 58.7003 644.073"/><path style="fill:none;stroke:#000000" d="M 57.5167 683.535 L 59.8839 683.535 L 58.7003 690.637 z"/><path style="fill:none;stroke:#000000" d="M 57.5167 616.565 L 59.8839 616.565 L 58.7003 609.463 z"/><text x="48.317208" y="646.345338" style="font-size: 7.215px; fill: #000000; font-family: Arial; text-anchor: start" sodipodi:linespacing="125%"><tspan sodipodi:role="line" dx="0.000000" dy="7.215462" dominant-baseline="central">.750</tspan></text><path d="M 95.157827,690.637271 A 0.250000,0.250000 0.000000 0, 0 94.657827,690.637271 A 0.250000,0.250000 0.000000 0, 0 95.157827,690.637271 z" style="fill:none;stroke:#000000"/><path d="M 121.967623,609.463326 A 0.250000,0.250000 0.000000 0, 0 121.467623,609.463326 A 0.250000,0.250000 0.000000 0, 0 121.967623,609.463326 z" style="fill:none;stroke:#000000"/><path d="M 58.950309,609.463326 A 0.250000,0.250000 0.000000 0, 0 58.450309,609.463326 A 0.250000,0.250000 0.000000 0, 0 58.950309,609.463326 z" style="fill:none;stroke:#000000"/></symbol><symbol id="*D9"><path style="fill:none;stroke:#000000" d="M 127.167 738.326 L 127.167 779.363"/><path style="fill:none;stroke:#000000" d="M 127.167 832.354 L 127.167 791.318"/><path style="fill:none;stroke:#000000" d="M 125.983 738.326 L 128.35 738.326 L 127.167 731.224 z"/><path style="fill:none;stroke:#000000" d="M 125.983 832.354 L 128.35 832.354 L 127.167 839.456 z"/><text x="113.564642" y="781.635245" style="font-size: 7.215px; fill: #000000; font-family: Arial; text-anchor: start" sodipodi:linespacing="125%"><tspan sodipodi:role="line" dx="0.000000" dy="7.215462" dominant-baseline="central">1.000</tspan></text><path d="M 132.497842,731.224243 A 0.250000,0.250000 0.000000 0, 0 131.997842,731.224243 A 0.250000,0.250000 0.000000 0, 0 132.497842,731.224243 z" style="fill:none;stroke:#000000"/><path d="M 132.497842,839.456168 A 0.250000,0.250000 0.000000 0, 0 131.997842,839.456168 A 0.250000,0.250000 0.000000 0, 0 132.497842,839.456168 z" style="fill:none;stroke:#000000"/><path d="M 127.416555,839.456168 A 0.250000,0.250000 0.000000 0, 0 126.916555,839.456168 A 0.250000,0.250000 0.000000 0, 0 127.416555,839.456168 z" style="fill:none;stroke:#000000"/></symbol><symbol id="*D10"><path style="fill:none;stroke:#000000" d="M 719.01 815.849 L 719.01 860.377"/><path style="fill:none;stroke:#000000" d="M 217.99 815.849 L 217.99 860.377"/><path style="fill:none;stroke:#000000" d="M 711.908 851.358 L 668.908 851.358"/><path style="fill:none;stroke:#000000" d="M 668.908 851.358 L 666.503 854.965"/><path style="fill:none;stroke:#000000" d="M 666.503 854.965 L 664.098 847.75"/><path style="fill:none;stroke:#000000" d="M 664.098 847.75 L 661.692 851.358"/><path style="fill:none;stroke:#000000" d="M 661.692 851.358 L 501.937 851.358"/><path style="fill:none;stroke:#000000" d="M 225.091 851.358 L 435.063 851.358"/><path style="fill:none;stroke:#000000" d="M 711.908 850.174 L 711.908 852.541 L 719.01 851.358 z"/><path style="fill:none;stroke:#000000" d="M 225.091 850.174 L 225.091 852.541 L 217.99 851.358 z"/>

<svg:text alignment-baseline="baseline" dominant-baseline="middle" sodipodi:linespacing="125%" style="font-size: 10.215px; fill: #000000; font-family: Arial; text-anchor: start" text-anchor="middle" x="447.892415" y="851.174"><tspan font-weight="bold">{length}</tspan></svg:text>

<path d="M 719.259937,811.339617 A 0.250000,0.250000 0.000000 0, 0 718.759937,811.339617 A 0.250000,0.250000 0.000000 0, 0 719.259937,811.339617 z" style="fill:none;stroke:#000000"/><path d="M 218.239567,811.339617 A 0.250000,0.250000 0.000000 0, 0 217.739567,811.339617 A 0.250000,0.250000 0.000000 0, 0 218.239567,811.339617 z" style="fill:none;stroke:#000000"/><path d="M 218.239567,851.357614 A 0.250000,0.250000 0.000000 0, 0 217.739567,851.357614 A 0.250000,0.250000 0.000000 0, 0 218.239567,851.357614 z" style="fill:none;stroke:#000000"/></symbol><symbol id="*D11"><path style="fill:none;stroke:#000000" d="M 217.99 815.416 L 217.99 840.772"/><path style="fill:none;stroke:#000000" d="M 333.437 806.83 L 333.437 840.772"/><path style="fill:none;stroke:#000000" d="M 225.091 831.752 L 243.96 831.752"/><path style="fill:none;stroke:#000000" d="M 326.335 831.752 L 307.467 831.752"/><path style="fill:none;stroke:#000000" d="M 225.091 830.569 L 225.091 832.936 L 217.99 831.752 z"/><path style="fill:none;stroke:#000000" d="M 326.335 830.569 L 326.335 832.936 L 333.437 831.752 z"/>

<svg:text alignment-baseline="middle" dominant-baseline="middle" sodipodi:linespacing="125%" style="font-size: 10.215px; fill: #000000; font-family: Arial; text-anchor: start" text-anchor="middle" x="255.822" y="832.220"><tspan font-weight="bold">{leadin}</tspan></svg:text>

<path d="M 218.239567,810.906690 A 0.250000,0.250000 0.000000 0, 0 217.739567,810.906690 A 0.250000,0.250000 0.000000 0, 0 218.239567,810.906690 z" style="fill:none;stroke:#000000"/><path d="M 333.686954,802.320290 A 0.250000,0.250000 0.000000 0, 0 333.186954,802.320290 A 0.250000,0.250000 0.000000 0, 0 333.686954,802.320290 z" style="fill:none;stroke:#000000"/><path d="M 333.686954,831.752316 A 0.250000,0.250000 0.000000 0, 0 333.186954,831.752316 A 0.250000,0.250000 0.000000 0, 0 333.686954,831.752316 z" style="fill:none;stroke:#000000"/></symbol><symbol id="*D12"><path style="fill:none;stroke:#000000" d="M 333.437 806.83 L 333.437 840.772"/><path style="fill:none;stroke:#000000" d="M 564.332 806.83 L 564.332 840.772"/><path style="fill:none;stroke:#000000" d="M 340.539 831.752 L 413.247 831.752"/><path style="fill:none;stroke:#000000" d="M 557.23 831.752 L 484.522 831.752"/><path style="fill:none;stroke:#000000" d="M 340.539 830.569 L 340.539 832.936 L 333.437 831.752 z"/><path style="fill:none;stroke:#000000" d="M 557.23 830.569 L 557.23 832.936 L 564.332 831.752 z"/>

<svg:text alignment-baseline="central" dominant-baseline="central" sodipodi:linespacing="125%" style="font-size: 10.215px; fill: #000000; font-family: Arial; text-anchor: start" x="428.649" y="831"><tspan font-weight="bold">{spacing}</tspan></svg:text>

<path d="M 333.686954,802.320290 A 0.250000,0.250000 0.000000 0, 0 333.186954,802.320290 A 0.250000,0.250000 0.000000 0, 0 333.686954,802.320290 z" style="fill:none;stroke:#000000"/><path d="M 564.581728,802.320290 A 0.250000,0.250000 0.000000 0, 0 564.081728,802.320290 A 0.250000,0.250000 0.000000 0, 0 564.581728,802.320290 z" style="fill:none;stroke:#000000"/><path d="M 564.581728,831.752316 A 0.250000,0.250000 0.000000 0, 0 564.081728,831.752316 A 0.250000,0.250000 0.000000 0, 0 564.581728,831.752316 z" style="fill:none;stroke:#000000"/></symbol><symbol id="*D13"><path style="fill:none;stroke:#000000" d="M 603.563 806.83 L 603.563 840.772"/><path style="fill:none;stroke:#000000" d="M 719.01 815.416 L 719.01 840.772"/><path style="fill:none;stroke:#000000" d="M 610.664 831.752 L 629.533 831.752"/><path style="fill:none;stroke:#000000" d="M 711.908 831.752 L 693.04 831.752"/><path style="fill:none;stroke:#000000" d="M 610.664 830.569 L 610.664 832.936 L 603.563 831.752 z"/><path style="fill:none;stroke:#000000" d="M 711.908 830.569 L 711.908 832.936 L 719.01 831.752 z"/>

<svg:text alignment-baseline="middle" dominant-baseline="middle" sodipodi:linespacing="125%" style="font-size: 10.215px; fill: #000000; font-family: Arial; text-anchor: start" text-anchor="middle" x="645.822" y="832"><tspan font-weight="bold">{leadin}</tspan></svg:text>

<path d="M 603.812550,802.320290 A 0.250000,0.250000 0.000000 0, 0 603.312550,802.320290 A 0.250000,0.250000 0.000000 0, 0 603.812550,802.320290 z" style="fill:none;stroke:#000000"/><path d="M 719.259937,810.906690 A 0.250000,0.250000 0.000000 0, 0 718.759937,810.906690 A 0.250000,0.250000 0.000000 0, 0 719.259937,810.906690 z" style="fill:none;stroke:#000000"/><path d="M 719.259937,831.752316 A 0.250000,0.250000 0.000000 0, 0 718.759937,831.752316 A 0.250000,0.250000 0.000000 0, 0 719.259937,831.752316 z" style="fill:none;stroke:#000000"/></symbol><symbol id="*D14"><path style="fill:none;stroke:#000000" d="M 213.48 811.34 L 184.442 811.34"/><path style="fill:none;stroke:#000000" d="M 316.3 789.693 L 184.442 789.693"/><path style="fill:none;stroke:#000000" d="M 193.462 804.238 L 193.462 796.795"/><path style="fill:none;stroke:#000000" d="M 186.36 828.574 L 193.462 828.574"/><path style="fill:none;stroke:#000000" d="M 193.462 828.574 L 193.462 811.34"/><text x="163.320918" y="824.869405" style="font-size: 7.215px; fill: #000000; font-family: Arial; text-anchor: start" sodipodi:linespacing="125%"><tspan sodipodi:role="line" dx="0.000000" dy="7.215462" dominant-baseline="central">.750</tspan></text><path style="fill:none;stroke:#000000" d="M 192.278 804.238 L 194.645 804.238 L 193.462 811.34 z"/><path style="fill:none;stroke:#000000" d="M 192.278 796.795 L 194.645 796.795 L 193.462 789.693 z"/><path d="M 218.239567,811.339617 A 0.250000,0.250000 0.000000 0, 0 217.739567,811.339617 A 0.250000,0.250000 0.000000 0, 0 218.239567,811.339617 z" style="fill:none;stroke:#000000"/><path d="M 321.059896,789.693232 A 0.250000,0.250000 0.000000 0, 0 320.559896,789.693232 A 0.250000,0.250000 0.000000 0, 0 321.059896,789.693232 z" style="fill:none;stroke:#000000"/><path d="M 193.711538,789.693232 A 0.250000,0.250000 0.000000 0, 0 193.211538,789.693232 A 0.250000,0.250000 0.000000 0, 0 193.711538,789.693232 z" style="fill:none;stroke:#000000"/></symbol></defs><g inkscape:groupmode="layer" inkscape:label="0"/><g inkscape:groupmode="layer" inkscape:label="BORDER__ANSI_"/><g inkscape:groupmode="layer" inkscape:label="BREAK_LINE__ANSI_"><path d="M 578.678078,820.358944 L 578.678078,780.115787 L 582.285810,779.149098 L 575.070346,774.983250 L 578.678078,774.016561 L 578.678078,733.773405" style="fill:none;stroke:#000000"/><path d="M 593.108995,820.358944 L 593.108995,780.115787 L 596.716728,779.149098 L 589.501274,774.983250 L 593.108995,774.016561 L 593.108995,733.773405" style="fill:none;stroke:#000000"/></g><g inkscape:groupmode="layer" inkscape:label="CENTER_MARK__ANSI_"><path style="fill:none;stroke:#FF0000;stroke-dasharray:34.0858,4.2643,8.5215,4.2643," d="M 576.959 789.693 L 551.705 789.693"/><path style="fill:none;stroke:#FF0000;stroke-dasharray:34.0858,4.2643,8.5215,4.2643," d="M 564.332 777.066 L 564.332 802.32"/><path style="fill:none;stroke:#FF0000;stroke-dasharray:34.0858,4.2643,8.5215,4.2643," d="M 346.064 789.693 L 320.81 789.693"/><path style="fill:none;stroke:#FF0000;stroke-dasharray:34.0858,4.2643,8.5215,4.2643," d="M 333.437 777.066 L 333.437 802.32"/><path style="fill:none;stroke:#FF0000;stroke-dasharray:34.0858,4.2643,8.5215,4.2643," d="M 616.19 789.693 L 594.543 789.693"/><path style="fill:none;stroke:#FF0000;stroke-dasharray:34.0858,4.2643,8.5215,4.2643," d="M 603.563 777.066 L 603.563 802.32"/></g><g inkscape:groupmode="layer" inkscape:label="DIMENSION__ANSI_"><use xlink:href="#*D6" transform="translate(0 0)"/><use xlink:href="#*D7" transform="translate(0 0)"/><use xlink:href="#*D8" transform="translate(0 0)"/><use xlink:href="#*D9" transform="translate(0 0)"/><use xlink:href="#*D10" transform="translate(0 0)"/><use xlink:href="#*D11" transform="translate(0 0)"/><use xlink:href="#*D12" transform="translate(0 0)"/><use xlink:href="#*D13" transform="translate(0 0)"/><use xlink:href="#*D14" transform="translate(0 0)"/></g><g inkscape:groupmode="layer" inkscape:label="HATCH__ANSI_"/><g inkscape:groupmode="layer" inkscape:label="SYMBOL__ANSI_">

<text x="383.928438" y="725" style="font-size: 10.215px; fill: #000000; font-family: Arial; text-anchor: start" sodipodi:linespacing="125%"><tspan sodipodi:role="line" dx="0.000000" dy="7.215462"/><tspan> Ø.250 THRU, <tspan font-weight="bold">{holes}X</tspan></tspan></text>

<path d="M 335.328482,786.621125 372.347828,724.575420 383.000577,724.575420" style="fill:none;stroke:#000000"/></g><g inkscape:groupmode="layer" inkscape:label="TITLE__ANSI_"/><g inkscape:groupmode="layer" inkscape:label="VISIBLE__ANSI_"><path style="fill:none;stroke:#000000" d="M 121.966 663.579 L 132.248 663.579"/><path d="M 121.965809,663.579289 A 1.623479,1.623479 0.000000 0 0 120.342330,665.202768" style="fill:none;stroke:#000000"/><path style="fill:none;stroke:#000000" d="M 120.342 716.072 L 120.342 665.203"/><path d="M 120.342330,716.071773 A 1.623479,1.623479 0.000000 0 0 121.965809,717.695252" style="fill:none;stroke:#000000"/><path style="fill:none;stroke:#000000" d="M 132.248 717.695 L 121.966 717.695"/><path d="M 133.871321,719.318731 A 1.623479,1.623479 0.000000 0 0 132.247842,717.695252" style="fill:none;stroke:#000000"/><path style="fill:none;stroke:#000000" d="M 133.871 729.601 L 133.871 719.319"/><path d="M 132.247842,731.224243 A 1.623479,1.623479 0.000000 0 0 133.871321,729.600764" style="fill:none;stroke:#000000"/><path style="fill:none;stroke:#000000" d="M 108.437 731.224 L 132.248 731.224"/><path d="M 108.436818,731.224243 A 1.623479,1.623479 0.000000 0 0 106.813339,732.847722" style="fill:none;stroke:#000000"/><path style="fill:none;stroke:#000000" d="M 106.813 837.833 L 106.813 732.848"/><path d="M 106.813339,837.832689 A 1.623479,1.623479 0.000000 0 0 108.436818,839.456168" style="fill:none;stroke:#000000"/><path style="fill:none;stroke:#000000" d="M 119.26 839.456 L 108.437 839.456"/><path style="fill:none;stroke:#000000" d="M 120.342 840.538 L 119.26 839.456"/><path style="fill:none;stroke:#000000" d="M 121.425 839.456 L 120.342 840.538"/><path style="fill:none;stroke:#000000" d="M 132.248 839.456 L 121.425 839.456"/><path d="M 133.871321,841.079647 A 1.623479,1.623479 0.000000 0 0 132.247842,839.456168" style="fill:none;stroke:#000000"/><path style="fill:none;stroke:#000000" d="M 133.871 864.891 L 133.871 841.08"/><path d="M 132.247842,866.514150 A 1.623479,1.623479 0.000000 0 0 133.871321,864.890671" style="fill:none;stroke:#000000"/><path style="fill:none;stroke:#000000" d="M 94.9078 866.514 L 132.248 866.514"/><path d="M 93.284349,864.890671 A 1.623479,1.623479 0.000000 0 0 94.907827,866.514150" style="fill:none;stroke:#000000"/><path style="fill:none;stroke:#000000" d="M 93.2843 692.261 L 93.2843 864.891"/><path d="M 94.907827,690.637271 A 1.623479,1.623479 0.000000 0 0 93.284349,692.260750" style="fill:none;stroke:#000000"/><path style="fill:none;stroke:#000000" d="M 105.438 690.637 L 94.9078 690.637"/><path d="M 105.438046,690.637271 A 1.623479,1.623479 0.000000 0 0 107.039436,689.280690" style="fill:none;stroke:#000000"/><path style="fill:none;stroke:#000000" d="M 120.116 610.82 L 107.039 689.281"/><path d="M 121.717623,609.463326 A 1.623479,1.623479 0.000000 0 0 120.116233,610.819907" style="fill:none;stroke:#000000"/><path style="fill:none;stroke:#000000" d="M 132.248 609.463 L 121.718 609.463"/><path d="M 133.871321,611.086805 A 1.623479,1.623479 0.000000 0 0 132.247842,609.463326" style="fill:none;stroke:#000000"/><path style="fill:none;stroke:#000000" d="M 133.871 661.956 L 133.871 611.087"/><path d="M 132.247842,663.579289 A 1.623479,1.623479 0.000000 0 0 133.871321,661.955810" style="fill:none;stroke:#000000"/><path d="M 337.044685,789.693232 A 3.607731,3.607731 0.000000 0, 0 329.829223,789.693232 A 3.607731,3.607731 0.000000 0, 0 337.044685,789.693232 z" style="fill:none;stroke:#000000"/><path d="M 567.939459,789.693232 A 3.607731,3.607731 0.000000 0, 0 560.723998,789.693232 A 3.607731,3.607731 0.000000 0, 0 567.939459,789.693232 z" style="fill:none;stroke:#000000"/><path d="M 607.170281,789.693232 A 3.607731,3.607731 0.000000 0, 0 599.954819,789.693232 A 3.607731,3.607731 0.000000 0, 0 607.170281,789.693232 z" style="fill:none;stroke:#000000"/><path style="fill:none;stroke:#000000" d="M 719.01 757.657 L 719.01 771.222"/><path style="fill:none;stroke:#000000" d="M 719.01 772.088 L 719.01 774.829"/><path style="fill:none;stroke:#000000" d="M 719.01 775.695 L 719.01 803.691"/><path style="fill:none;stroke:#000000" d="M 719.01 804.557 L 719.01 810.907"/><path style="fill:none;stroke:#000000" d="M 719.01 743.226 L 719.01 756.791"/><path style="fill:none;stroke:#000000" d="M 217.99 757.224 L 578.678 757.224"/><path style="fill:none;stroke:#000000" d="M 217.99 771.222 L 217.99 757.657"/><path style="fill:none;stroke:#000000" d="M 719.01 771.655 L 593.109 771.655"/><path style="fill:none;stroke:#000000" d="M 217.99 774.829 L 217.99 772.088"/><path style="fill:none;stroke:#000000" d="M 719.01 775.262 L 589.985 775.262"/><path style="fill:none;stroke:#000000" d="M 217.99 803.691 L 217.99 775.695"/><path style="fill:none;stroke:#000000" d="M 719.01 804.124 L 593.109 804.124"/><path style="fill:none;stroke:#000000" d="M 217.99 810.907 L 217.99 804.557"/><path style="fill:none;stroke:#000000" d="M 719.01 811.34 L 593.109 811.34"/><path style="fill:none;stroke:#000000" d="M 719.01 742.793 L 593.109 742.793"/><path style="fill:none;stroke:#000000" d="M 217.99 756.791 L 217.99 743.226"/><path style="fill:none;stroke:#000000" d="M 719.01 757.224 L 719.01 756.791"/><path style="fill:none;stroke:#000000" d="M 719.01 757.224 L 719.01 757.657"/><path style="fill:none;stroke:#000000" d="M 719.01 771.222 L 719.01 771.655"/><path style="fill:none;stroke:#000000" d="M 719.01 772.088 L 719.01 771.655"/><path style="fill:none;stroke:#000000" d="M 719.01 775.262 L 719.01 774.829"/><path style="fill:none;stroke:#000000" d="M 719.01 775.262 L 719.01 775.695"/><path style="fill:none;stroke:#000000" d="M 719.01 803.691 L 719.01 804.124"/><path style="fill:none;stroke:#000000" d="M 719.01 804.557 L 719.01 804.124"/><path style="fill:none;stroke:#000000" d="M 719.01 811.34 L 719.01 810.907"/><path style="fill:none;stroke:#000000" d="M 719.01 743.226 L 719.01 742.793"/><path style="fill:none;stroke:#000000" d="M 593.109 757.224 L 719.01 757.224"/><path style="fill:none;stroke:#000000" d="M 217.99 757.657 L 217.99 757.224"/><path style="fill:none;stroke:#000000" d="M 217.99 771.655 L 217.99 771.222"/><path style="fill:none;stroke:#000000" d="M 578.678 771.655 L 217.99 771.655"/><path style="fill:none;stroke:#000000" d="M 217.99 771.655 L 217.99 772.088"/><path style="fill:none;stroke:#000000" d="M 217.99 774.829 L 217.99 775.262"/><path style="fill:none;stroke:#000000" d="M 575.554 775.262 L 217.99 775.262"/><path style="fill:none;stroke:#000000" d="M 217.99 775.695 L 217.99 775.262"/><path style="fill:none;stroke:#000000" d="M 217.99 804.124 L 217.99 803.691"/><path style="fill:none;stroke:#000000" d="M 578.678 804.124 L 217.99 804.124"/><path style="fill:none;stroke:#000000" d="M 217.99 804.124 L 217.99 804.557"/><path style="fill:none;stroke:#000000" d="M 217.99 810.907 L 217.99 811.34"/><path style="fill:none;stroke:#000000" d="M 578.678 811.34 L 217.99 811.34"/><path style="fill:none;stroke:#000000" d="M 578.678 742.793 L 217.99 742.793"/><path style="fill:none;stroke:#000000" d="M 217.99 742.793 L 217.99 743.226"/><path style="fill:none;stroke:#000000" d="M 217.99 756.791 L 217.99 757.224"/></g><g inkscape:groupmode="layer" inkscape:label="DEFPOINTS"/></svg>