<svg xmlns="http://www.w3.org/2000/svg" xmlns:svg="http://www.w3.org/2000/svg" xmlns:xlink="http://www.w3.org/1999/xlink" xmlns:sodipodi="http://sodipodi.sourceforge.net/DTD/sodipodi-0.dtd" xmlns:inkscape="http://www.inkscape.org/namespaces/inkscape" height="2000.5196850393702" preserveAspectRatio="xMidYMid meet" viewBox="0 500 793.7007874015749 1000" width="1500.7007874015749">
    <defs><marker id="DistanceX" orient="auto" refX="0.0" refY="0.0" style="overflow:visible"><path d="M 3,-3 L -3,3 M 0,-5 L  0,5" style="stroke:#000000; stroke-width:0.5"/></marker><pattern id="Hatch" patternUnits="userSpaceOnUse" width="8" height="8" x="0" y="0"><path d="M8 4 l-4,4" stroke="#000000" stroke-width="0.25" linecap="square"/><path d="M6 2 l-4,4" stroke="#000000" stroke-width="0.25" linecap="square"/><path d="M4 0 l-4,4" stroke="#000000" stroke-width="0.25" linecap="square"/></pattern><symbol id="*MODEL_SPACE"/><symbol id="*PAPER_SPACE"/><symbol id="_CLOSED"><path style="fill:none;stroke:#000000;stroke-linecap:round" d="M -72.1546 1110.49 L 0 1122.52"/><path style="fill:none;stroke:#000000;stroke-linecap:round" d="M 0 1122.52 L -72.1546 1134.55"/><path style="fill:none;stroke:#000000;stroke-linecap:round" d="M -72.1546 1110.49 L -72.1546 1134.55"/><path style="fill:none;stroke:#000000;stroke-linecap:round" d="M 0 1122.52 L -72.1546 1122.52"/></symbol><symbol id="DATUMFILLED45"><path d="M 0.000000,1050.365068 L 0.000000,1194.674302 L -72.154617,1122.519685 L 0.000000,1050.365068" style="fill:none;stroke:#000000"/><path style="fill:none;stroke:#000000" d="M 0 1050.37 L 0 1194.67 L 0 1050.37 z"/></symbol><symbol id="FILLED-1"><path style="fill:none;stroke:#000000" d="M -72.1546 1122.52 L 0 1122.52"/><path d="M -72.154617,1129.698333 L 0.000000,1122.519685 L -72.154617,1115.341037 L -72.154617,1129.698333" style="fill:none;stroke:#000000"/><path style="fill:none;stroke:#000000" d="M -72.1546 1129.7 L 0 1122.52 L -72.1546 1129.7 z"/><path style="fill:none;stroke:#000000" d="M -72.1546 1129.7 L 0 1122.52"/><path style="fill:none;stroke:#000000" d="M 0 1122.52 L -72.1546 1115.34"/><path style="fill:none;stroke:#000000" d="M -72.1546 1115.34 L -72.1546 1129.7"/></symbol><symbol id="BORDERS_MONARCHMODERNBORDE"><path style="fill:none;stroke:#000000" d="M 0 509.205 L 793.701 509.205"/><path style="fill:none;stroke:#000000" d="M 793.701 509.205 L 793.701 1122.52"/><path style="fill:none;stroke:#000000" d="M 793.701 1122.52 L 0 1122.52"/><path style="fill:none;stroke:#000000" d="M 0 1122.52 L 0 509.205"/><path style="fill:none;stroke:#000000" d="M 793.701 509.205 L 0 509.205"/><path style="fill:none;stroke:#000000" d="M 0 509.205 L 0 1122.52"/><path style="fill:none;stroke:#000000" d="M 0 1122.52 L 793.701 1122.52"/><path style="fill:none;stroke:#000000" d="M 793.701 1122.52 L 793.701 509.205"/></symbol><symbol id="TITLE_BLOCKS_MONARCHMODERN"><path d="M 13.646935,981.796503 L 13.646935,982.373740 L 139.917515,982.373740 L 139.917515,1009.431722 L 140.494752,1009.431722 L 140.494752,982.373740 L 302.842640,982.373740 L 302.842640,1009.431722 L 303.419877,1009.431722 L 303.419877,982.373740 L 375.574494,982.373740 L 375.574494,1009.431722 L 376.151731,1009.431722 L 376.151731,982.373740 L 484.383657,982.373740 L 484.383657,981.796503 L 376.151731,981.796503 L 376.151731,954.738522 L 375.574494,954.738522 L 375.574494,981.796503 L 303.419877,981.796503 L 303.419877,954.738522 L 302.842640,954.738522 L 302.842640,981.796503 L 140.494752,981.796503 L 140.494752,954.738522 L 139.917515,954.738522 L 139.917515,981.796503 L 13.646935,981.796503 z " style="fill:#848484"/><path d="M 13.646935,1108.283547 L 780.151674,1108.283547 L 780.151674,1109.005093 L 13.646935,1109.005093 L 13.646935,1108.283547 z " style="fill:#848484"/><path d="M 780.151674,522.748730 L 780.151674,523.470276 L 13.646935,523.470276 L 13.646935,522.748730 L 780.151674,522.748730 z " style="fill:#848484"/><path d="M 13.646935,1013.760999 L 13.646935,1103.954270 L 396.899305,1103.954270 L 396.899305,1013.760999 L 13.646935,1013.760999 z " style="fill:#000000"/><path d="M 780.151674,1103.954270 L 780.151674,1013.760999 L 396.899305,1013.760999 L 396.899305,1103.954270 L 780.151674,1103.954270 z " style="fill:#000000"/><path style="fill:none;stroke:#848484" d="M 13.6469 1013.76 L 780.152 1013.76"/><path style="fill:none;stroke:#848484" d="M 780.152 1013.76 L 780.152 1103.95"/><path style="fill:none;stroke:#848484" d="M 780.152 1103.95 L 13.6469 1103.95"/><path style="fill:none;stroke:#848484" d="M 13.6469 1103.95 L 13.6469 1013.76"/><path style="fill:none;stroke:#848484" d="M 780.152 1108.28 L 13.6469 1108.28"/><path style="fill:none;stroke:#848484" d="M 13.6469 1108.28 L 13.6469 1109.01"/><path style="fill:none;stroke:#848484" d="M 13.6469 1109.01 L 780.152 1109.01"/><path style="fill:none;stroke:#848484" d="M 780.152 1109.01 L 780.152 1108.28"/><path style="fill:none;stroke:#848484" d="M 484.384 981.797 L 484.384 982.374"/><path style="fill:none;stroke:#848484" d="M 13.6469 982.374 L 13.6469 981.797"/><path style="fill:none;stroke:#848484" d="M 375.574 954.739 L 376.152 954.739"/><path style="fill:none;stroke:#848484" d="M 376.152 1009.43 L 375.574 1009.43"/><path style="fill:none;stroke:#848484" d="M 302.843 954.739 L 303.42 954.739"/><path style="fill:none;stroke:#848484" d="M 303.42 1009.43 L 302.843 1009.43"/><path style="fill:none;stroke:#848484" d="M 139.918 954.739 L 140.495 954.739"/><path style="fill:none;stroke:#848484" d="M 140.495 1009.43 L 139.918 1009.43"/><path style="fill:none;stroke:#848484" d="M 13.6469 522.749 L 780.152 522.749"/><path style="fill:none;stroke:#848484" d="M 780.152 522.749 L 780.152 523.47"/><path style="fill:none;stroke:#848484" d="M 780.152 523.47 L 13.6469 523.47"/><path style="fill:none;stroke:#848484" d="M 13.6469 523.47 L 13.6469 522.749"/><path style="fill:none;stroke:#848484" d="M 302.843 1009.43 L 302.843 982.374"/><path style="fill:none;stroke:#848484" d="M 302.843 981.797 L 302.843 954.739"/><path style="fill:none;stroke:#848484" d="M 303.42 954.739 L 303.42 981.797"/><path style="fill:none;stroke:#848484" d="M 303.42 982.374 L 303.42 1009.43"/><path style="fill:none;stroke:#848484" d="M 13.6469 981.797 L 139.918 981.797"/><path style="fill:none;stroke:#848484" d="M 140.495 981.797 L 302.843 981.797"/><path style="fill:none;stroke:#848484" d="M 139.918 1009.43 L 139.918 982.374"/><path style="fill:none;stroke:#848484" d="M 139.918 981.797 L 139.918 954.739"/><path style="fill:none;stroke:#848484" d="M 140.495 954.739 L 140.495 981.797"/><path style="fill:none;stroke:#848484" d="M 140.495 982.374 L 140.495 1009.43"/><path style="fill:none;stroke:#848484" d="M 302.843 982.374 L 140.495 982.374"/><path style="fill:none;stroke:#848484" d="M 139.918 982.374 L 13.6469 982.374"/><path style="fill:none;stroke:#848484" d="M 376.152 954.739 L 376.152 981.797"/><path style="fill:none;stroke:#848484" d="M 376.152 982.374 L 376.152 1009.43"/><path style="fill:none;stroke:#848484" d="M 375.574 1009.43 L 375.574 982.374"/><path style="fill:none;stroke:#848484" d="M 375.574 981.797 L 375.574 954.739"/><path style="fill:none;stroke:#848484" d="M 484.384 982.374 L 376.152 982.374"/><path style="fill:none;stroke:#848484" d="M 375.574 982.374 L 303.42 982.374"/><path style="fill:none;stroke:#848484" d="M 303.42 981.797 L 375.574 981.797"/><path style="fill:none;stroke:#848484" d="M 376.152 981.797 L 484.384 981.797"/><path d="M 531.763810,978.231194 A 9.019327,9.019327 0.000000 0, 0 513.725156,978.231194 A 9.019327,9.019327 0.000000 0, 0 531.763810,978.231194 z" style="fill:none;stroke:#000000"/><path d="M 540.783137,978.231194 A 18.038654,18.038654 0.000000 0, 0 504.705829,978.231194 A 18.038654,18.038654 0.000000 0, 0 540.783137,978.231194 z" style="fill:none;stroke:#000000"/><path style="fill:none;stroke:#000000" d="M 585.88 960.193 L 585.88 996.27"/><path style="fill:none;stroke:#000000" d="M 549.802 969.212 L 549.802 987.251"/><path style="fill:none;stroke:#000000" d="M 549.802 969.212 L 585.88 960.193"/><path style="fill:none;stroke:#000000" d="M 549.802 987.251 L 585.88 996.27"/><path style="fill:none;stroke:#FF0000;stroke-dasharray:34.0858,4.2643,8.5215,4.2643," d="M 522.744 955.683 L 522.744 1000.78"/><path style="fill:none;stroke:#FF0000;stroke-dasharray:34.0858,4.2643,8.5215,4.2643," d="M 500.196 978.231 L 590.389 978.231"/><path style="fill:none;stroke:#848484" d="M 13.6469 947.169 L 484.375 947.169"/><path style="fill:none;stroke:#848484" d="M 484.375 947.169 L 484.375 1013.76"/><path style="fill:none;stroke:#848484" d="M 484.375 1013.76 L 13.6469 1013.76"/><path style="fill:none;stroke:#848484" d="M 13.6469 1013.76 L 13.6469 947.169"/><text x="339.497186" y="985.620698" style="font-size: 7.215px; fill: #000000; font-family: Arial; text-anchor: middle" sodipodi:linespacing="125%"><tspan sodipodi:role="line" dx="0.000000" dy="7.215462"/><tspan sodipodi:role="line" x="339.4971859193557" dy="7.215462"/></text><text x="430.267694" y="985.620698" style="font-size: 7.215px; fill: #000000; font-family: Arial; text-anchor: middle" sodipodi:linespacing="125%"><tspan sodipodi:role="line" dx="0.000000" dy="7.215462"/><tspan sodipodi:role="line" x="430.26769415128115" dy="7.215462">1</tspan></text><text x="20.862397" y="1084.111750" style="font-size: 7.215px; fill: #000000; font-family: Arial; text-anchor: start" sodipodi:linespacing="125%"><tspan sodipodi:role="line" dx="0.000000" dy="7.215462">Finish: Mill Finish</tspan></text><text x="561.053585" y="1052.732186" style="font-size: 4.329px; fill: #000000; font-family: Arial; text-anchor: middle" sodipodi:linespacing="125%"><tspan sodipodi:role="line" dx="0.000000" dy="4.329277"></tspan><tspan style="font-size:4.329px">New York</tspan><tspan sodipodi:role="line" x="561.0535854397558" dy="4.329277" style="font-size:4.329px"></tspan><tspan></tspan><tspan style="font-size:4.329px">1700 Ocean Ave Suite 2</tspan><tspan sodipodi:role="line" x="561.0535854397558" dy="4.329277" style="font-size:4.329px"></tspan><tspan></tspan><tspan style="font-size:4.329px">Ronkonkoma NY 11779</tspan><tspan sodipodi:role="line" x="561.0535854397558" dy="4.329277" style="font-size:4.329px"></tspan><tspan></tspan><tspan style="font-size:4.329px">Phone: (631) 750-3000</tspan><tspan sodipodi:role="line" x="561.0535854397558" dy="4.329277" style="font-size:4.329px"></tspan></text><text x="646.737193" y="1052.732186" style="font-size: 4.329px; fill: #000000; font-family: Arial; text-anchor: middle" sodipodi:linespacing="125%"><tspan sodipodi:role="line" dx="0.000000" dy="4.329277"></tspan><tspan style="font-size:4.329px">Nevada</tspan><tspan sodipodi:role="line" x="646.7371931706076" dy="4.329277" style="font-size:4.329px"></tspan><tspan></tspan><tspan style="font-size:4.329px">1080 Linda Way, Unit 10</tspan><tspan sodipodi:role="line" x="646.7371931706076" dy="4.329277" style="font-size:4.329px"></tspan><tspan></tspan><tspan style="font-size:4.329px">Sparks, BV 89431</tspan><tspan sodipodi:role="line" x="646.7371931706076" dy="4.329277" style="font-size:4.329px"></tspan><tspan></tspan><tspan style="font-size:4.329px">Phone: (775) 415-0100</tspan></text><text x="732.420801" y="1052.544105" style="font-size: 4.329px; fill: #000000; font-family: Arial; text-anchor: middle" sodipodi:linespacing="125%"><tspan sodipodi:role="line" dx="0.000000" dy="4.329277"></tspan><tspan style="font-size:4.329px">Texas</tspan><tspan></tspan><tspan style="font-size:4.329px"></tspan><tspan sodipodi:role="line" x="732.4208009014593" dy="4.329277" style="font-size:4.329px"></tspan><tspan></tspan><tspan style="font-size:4.329px">1330 Post &amp; Paddock St., Suite 800</tspan><tspan sodipodi:role="line" x="732.4208009014593" dy="4.329277" style="font-size:4.329px"></tspan><tspan></tspan><tspan style="font-size:4.329px">Grand Prairie, TX 75050</tspan><tspan sodipodi:role="line" x="732.4208009014593" dy="4.329277" style="font-size:4.329px"></tspan><tspan></tspan><tspan style="font-size:4.329px">(945) 202-2700</tspan></text><text x="649.015063" y="1086.682252" style="font-size: 7.215px; fill: #000000; font-family: Arial; text-anchor: middle" sodipodi:linespacing="125%"><tspan sodipodi:role="line" dx="0.000000" dy="7.215462">monarchmetal.com</tspan></text><text x="645.670803" y="1020.976460" style="font-size: 7.215px; fill: #000000; font-family: Arial; text-anchor: middle" sodipodi:linespacing="125%"><tspan sodipodi:role="line" dx="0.000000" dy="7.215462">MONARCH METAL FABRICATION. ANY REPRODUCTION IN PART OR AS A WHOLE</tspan><tspan sodipodi:role="line" x="645.6708029457359" dy="7.215462"/><tspan sodipodi:role="line" x="645.6708029457359" dy="7.215462"/></text><text x="76.782225" y="952.573883" style="font-size: 7.215px; fill: #000000; font-family: Arial; text-anchor: middle" sodipodi:linespacing="125%"><tspan sodipodi:role="line" dx="0.000000" dy="7.215462"/><tspan sodipodi:role="line" x="76.78222528943458" dy="7.215462">AMH</tspan></text><text x="76.782225" y="985.620698" style="font-size: 7.215px; fill: #000000; font-family: Arial; text-anchor: middle" sodipodi:linespacing="125%"><tspan sodipodi:role="line" dx="0.000000" dy="7.215462"/><tspan sodipodi:role="line" x="76.78222528943458" dy="7.215462">8/19/2022</tspan><tspan sodipodi:role="line" x="76.78222528943458" dy="7.215462"/></text><text x="430.267694" y="954.738522" style="font-size: 7.215px; fill: #000000; font-family: Arial; text-anchor: middle" sodipodi:linespacing="125%"><tspan sodipodi:role="line" dx="0.000000" dy="7.215462"/><tspan sodipodi:role="line" x="430.26769415128115" dy="7.215462">5/9</tspan></text><text x="339.497186" y="954.738522" style="font-size: 7.215px; fill: #000000; font-family: Arial; text-anchor: middle" sodipodi:linespacing="125%"><tspan sodipodi:role="line" dx="0.000000" dy="7.215462"/><tspan/><tspan sodipodi:role="line" x="339.4971859193557" dy="7.215462">A</tspan></text><text x="221.668696" y="952.573883" style="font-size: 7.215px; fill: #000000; font-family: Arial; text-anchor: middle" sodipodi:linespacing="125%"><tspan sodipodi:role="line" dx="0.000000" dy="7.215462"/><tspan sodipodi:role="line" x="221.66869629874017" dy="7.215462">AMH</tspan></text><text x="221.668696" y="985.620698" style="font-size: 7.215px; fill: #000000; font-family: Arial; text-anchor: middle" sodipodi:linespacing="125%"><tspan sodipodi:role="line" dx="0.000000" dy="7.215462"/><tspan sodipodi:role="line" x="221.66869629874017" dy="7.215462">8/23/2022</tspan></text><text x="20.862397" y="1059.759567" style="font-size: 7.215px; fill: #000000; font-family: Arial; text-anchor: start" sodipodi:linespacing="125%"><tspan sodipodi:role="line" dx="0.000000" dy="7.215462">Weight: 3.072 lbmass</tspan></text><text x="19.213149" y="1029.635014" style="font-size: 8.659px; fill: #000000; font-family: Arial; text-anchor: start" sodipodi:linespacing="125%"><tspan sodipodi:role="line" dx="0.000000" dy="0.000000">STOCK_NUMBERMFSTR-075-48H8</tspan></text><text x="20.862397" y="1041.720913" style="font-size: 7.215px; fill: #000000; font-family: Arial; text-anchor: start" sodipodi:linespacing="125%"><tspan sodipodi:role="line" dx="0.000000" dy="0.000000">DESCRIPTION</tspan></text><text x="20.518804" y="1078.141815" style="font-size: 7.215px; fill: #000000; font-family: Arial; text-anchor: start" sodipodi:linespacing="125%"><tspan sodipodi:role="line" dx="0.000000" dy="0.000000">MATERIALAluminum 6063</tspan></text></symbol><symbol id="*D6"><path style="fill:none;stroke:#000000" d="M 52.8019 825.203 L 52.8019 858.12"/><path style="fill:none;stroke:#000000" d="M 106.918 825.203 L 106.918 858.12"/><path style="fill:none;stroke:#000000" d="M 59.9037 849.101 L 67.2042 849.101"/><path style="fill:none;stroke:#000000" d="M 99.816 849.101 L 92.5156 849.101"/><path style="fill:none;stroke:#000000" d="M 59.9037 847.917 L 59.9037 850.285 L 52.8019 849.101 z"/><path style="fill:none;stroke:#000000" d="M 99.816 847.917 L 99.816 850.285 L 106.918 849.101 z"/><text x="69.476788" y="845.395947" style="font-size: 7.215px; fill: #000000; font-family: Arial; text-anchor: start" sodipodi:linespacing="125%"><tspan sodipodi:role="line" dx="0.000000" dy="7.215462" dominant-baseline="central">.750</tspan></text><path d="M 53.051908,820.693578 A 0.250000,0.250000 0.000000 0, 0 52.551908,820.693578 A 0.250000,0.250000 0.000000 0, 0 53.051908,820.693578 z" style="fill:none;stroke:#000000"/><path d="M 107.167871,820.693578 A 0.250000,0.250000 0.000000 0, 0 106.667871,820.693578 A 0.250000,0.250000 0.000000 0, 0 107.167871,820.693578 z" style="fill:none;stroke:#000000"/><path d="M 107.167871,849.100908 A 0.250000,0.250000 0.000000 0, 0 106.667871,849.100908 A 0.250000,0.250000 0.000000 0, 0 107.167871,849.100908 z" style="fill:none;stroke:#000000"/></symbol><symbol id="*D7"><path style="fill:none;stroke:#000000" d="M 84.3687 659.428 L 24.1426 659.428"/><path style="fill:none;stroke:#000000" d="M 49.3746 821.776 L 24.1426 821.776"/><path style="fill:none;stroke:#000000" d="M 33.1619 666.53 L 33.1619 734.624"/><path style="fill:none;stroke:#000000" d="M 33.1619 814.674 L 33.1619 746.58"/><path style="fill:none;stroke:#000000" d="M 31.9783 666.53 L 34.3455 666.53 L 33.1619 659.428 z"/><path style="fill:none;stroke:#000000" d="M 31.9783 814.674 L 34.3455 814.674 L 33.1619 821.776 z"/><text x="19.549753" y="736.896993" style="font-size: 7.215px; fill: #000000; font-family: Arial; text-anchor: start" sodipodi:linespacing="125%"><tspan sodipodi:role="line" dx="0.000000" dy="7.215462" dominant-baseline="central">2.250</tspan></text><path d="M 89.128324,659.428009 A 0.250000,0.250000 0.000000 0, 0 88.628324,659.428009 A 0.250000,0.250000 0.000000 0, 0 89.128324,659.428009 z" style="fill:none;stroke:#000000"/><path d="M 54.134227,821.775898 A 0.250000,0.250000 0.000000 0, 0 53.634227,821.775898 A 0.250000,0.250000 0.000000 0, 0 54.134227,821.775898 z" style="fill:none;stroke:#000000"/><path d="M 33.411902,821.775898 A 0.250000,0.250000 0.000000 0, 0 32.911902,821.775898 A 0.250000,0.250000 0.000000 0, 0 33.411902,821.775898 z" style="fill:none;stroke:#000000"/></symbol><symbol id="*D8"><path style="fill:none;stroke:#000000" d="M 84.3687 659.428 L 50.2245 659.428"/><path style="fill:none;stroke:#000000" d="M 59.2438 697.423 L 59.2438 687.954"/><path style="fill:none;stroke:#000000" d="M 59.2438 666.53 L 59.2438 675.999"/><path style="fill:none;stroke:#000000" d="M 58.0602 697.423 L 60.4275 697.423 L 59.2438 704.525 z"/><path style="fill:none;stroke:#000000" d="M 58.0602 666.53 L 60.4275 666.53 L 59.2438 659.428 z"/><text x="49.177995" y="678.271367" style="font-size: 7.215px; fill: #000000; font-family: Arial; text-anchor: start" sodipodi:linespacing="125%"><tspan sodipodi:role="line" dx="0.000000" dy="7.215462" dominant-baseline="central">.625</tspan></text><path d="M 59.493820,704.524645 A 0.250000,0.250000 0.000000 0, 0 58.993820,704.524645 A 0.250000,0.250000 0.000000 0, 0 59.493820,704.524645 z" style="fill:none;stroke:#000000"/><path d="M 89.128324,659.428009 A 0.250000,0.250000 0.000000 0, 0 88.628324,659.428009 A 0.250000,0.250000 0.000000 0, 0 89.128324,659.428009 z" style="fill:none;stroke:#000000"/><path d="M 59.493820,659.428009 A 0.250000,0.250000 0.000000 0, 0 58.993820,659.428009 A 0.250000,0.250000 0.000000 0, 0 59.493820,659.428009 z" style="fill:none;stroke:#000000"/></symbol><symbol id="*D9"><path style="fill:none;stroke:#000000" d="M 768.798 807.892 L 768.798 857.854"/><path style="fill:none;stroke:#000000" d="M 146.587 807.892 L 146.587 857.854"/><path style="fill:none;stroke:#000000" d="M 761.696 848.834 L 706.577 848.834"/><path style="fill:none;stroke:#000000" d="M 706.577 848.834 L 704.172 852.442"/><path style="fill:none;stroke:#000000" d="M 704.172 852.442 L 701.767 845.227"/><path style="fill:none;stroke:#000000" d="M 701.767 845.227 L 699.362 848.834"/><path style="fill:none;stroke:#000000" d="M 699.362 848.834 L 491.13 848.834"/><path style="fill:none;stroke:#000000" d="M 153.689 848.834 L 424.255 848.834"/><path style="fill:none;stroke:#000000" d="M 761.696 847.651 L 761.696 850.018 L 768.798 848.834 z"/><path style="fill:none;stroke:#000000" d="M 153.689 847.651 L 153.689 850.018 L 146.587 848.834 z"/>

<svg:text alignment-baseline="baseline" dominant-baseline="middle" sodipodi:linespacing="125%" style="font-size: 10.215px; fill: #000000; font-family: Arial; text-anchor: start" text-anchor="middle" x="440.892415" y="848.926"><tspan font-weight="bold">{length}</tspan></svg:text>

<path d="M 769.048067,803.382542 A 0.250000,0.250000 0.000000 0, 0 768.548067,803.382542 A 0.250000,0.250000 0.000000 0, 0 769.048067,803.382542 z" style="fill:none;stroke:#000000"/><path d="M 146.837143,803.382542 A 0.250000,0.250000 0.000000 0, 0 146.337143,803.382542 A 0.250000,0.250000 0.000000 0, 0 146.837143,803.382542 z" style="fill:none;stroke:#000000"/><path d="M 146.837143,848.834270 A 0.250000,0.250000 0.000000 0, 0 146.337143,848.834270 A 0.250000,0.250000 0.000000 0, 0 146.837143,848.834270 z" style="fill:none;stroke:#000000"/></symbol><symbol id="*D10"><path style="fill:none;stroke:#000000" d="M 146.587 800.59 L 146.587 827.837"/><path style="fill:none;stroke:#000000" d="M 290.896 783.089 L 290.896 827.837"/><path style="fill:none;stroke:#000000" d="M 153.689 818.818 L 186.988 818.818"/><path style="fill:none;stroke:#000000" d="M 283.795 818.818 L 250.495 818.818"/><path style="fill:none;stroke:#000000" d="M 153.689 817.634 L 153.689 820.002 L 146.587 818.818 z"/><path style="fill:none;stroke:#000000" d="M 283.795 817.634 L 283.795 820.002 L 290.896 818.818 z"/>

<svg:text alignment-baseline="middle" dominant-baseline="middle" sodipodi:linespacing="125%" style="font-size: 10.215px; fill: #000000; font-family: Arial; text-anchor: start" text-anchor="middle" x="202.822" y="818.783"><tspan font-weight="bold">{leadin}</tspan></svg:text>

<path d="M 146.837143,796.080438 A 0.250000,0.250000 0.000000 0, 0 146.337143,796.080438 A 0.250000,0.250000 0.000000 0, 0 146.837143,796.080438 z" style="fill:none;stroke:#000000"/><path d="M 291.146377,778.579393 A 0.250000,0.250000 0.000000 0, 0 290.646377,778.579393 A 0.250000,0.250000 0.000000 0, 0 291.146377,778.579393 z" style="fill:none;stroke:#000000"/><path d="M 291.146377,818.818017 A 0.250000,0.250000 0.000000 0, 0 290.646377,818.818017 A 0.250000,0.250000 0.000000 0, 0 291.146377,818.818017 z" style="fill:none;stroke:#000000"/></symbol><symbol id="*D11"><path style="fill:none;stroke:#000000" d="M 142.077 803.383 L 116.579 803.383"/><path style="fill:none;stroke:#000000" d="M 277.367 774.07 L 116.579 774.07"/><path style="fill:none;stroke:#000000" d="M 125.599 796.281 L 125.599 781.172"/><path style="fill:none;stroke:#000000" d="M 118.497 758.156 L 125.599 758.156"/><path style="fill:none;stroke:#000000" d="M 125.599 758.156 L 125.599 774.07"/><text x="98.815186" y="754.461054" style="font-size: 7.215px; fill: #000000; font-family: Arial; text-anchor: start" sodipodi:linespacing="125%"><tspan sodipodi:role="line" dx="0.000000" dy="7.215462" dominant-baseline="central">.813</tspan></text><path style="fill:none;stroke:#000000" d="M 124.415 796.281 L 126.782 796.281 L 125.599 803.383 z"/><path style="fill:none;stroke:#000000" d="M 124.415 781.172 L 126.782 781.172 L 125.599 774.07 z"/><path d="M 146.837143,803.382542 A 0.250000,0.250000 0.000000 0, 0 146.337143,803.382542 A 0.250000,0.250000 0.000000 0, 0 146.837143,803.382542 z" style="fill:none;stroke:#000000"/><path d="M 282.127050,774.069729 A 0.250000,0.250000 0.000000 0, 0 281.627050,774.069729 A 0.250000,0.250000 0.000000 0, 0 282.127050,774.069729 z" style="fill:none;stroke:#000000"/><path d="M 125.848825,774.069729 A 0.250000,0.250000 0.000000 0, 0 125.348825,774.069729 A 0.250000,0.250000 0.000000 0, 0 125.848825,774.069729 z" style="fill:none;stroke:#000000"/></symbol><symbol id="*D12"><path style="fill:none;stroke:#000000" d="M 290.896 787.599 L 290.896 827.837"/><path style="fill:none;stroke:#000000" d="M 579.515 787.599 L 579.515 827.837"/><path style="fill:none;stroke:#000000" d="M 297.998 818.818 L 399.568 818.818"/><path style="fill:none;stroke:#000000" d="M 572.413 818.818 L 470.843 818.818"/><path style="fill:none;stroke:#000000" d="M 297.998 817.634 L 297.998 820.002 L 290.896 818.818 z"/><path style="fill:none;stroke:#000000" d="M 572.413 817.634 L 572.413 820.002 L 579.515 818.818 z"/>

<svg:text alignment-baseline="central" dominant-baseline="central" sodipodi:linespacing="125%" style="font-size: 10.215px; fill: #000000; font-family: Arial; text-anchor: start" x="413.649" y="818.037"><tspan font-weight="bold">{spacing}</tspan></svg:text>

<path d="M 291.146377,783.089056 A 0.250000,0.250000 0.000000 0, 0 290.646377,783.089056 A 0.250000,0.250000 0.000000 0, 0 291.146377,783.089056 z" style="fill:none;stroke:#000000"/><path d="M 579.764845,783.089056 A 0.250000,0.250000 0.000000 0, 0 579.264845,783.089056 A 0.250000,0.250000 0.000000 0, 0 579.764845,783.089056 z" style="fill:none;stroke:#000000"/><path d="M 579.764845,818.818017 A 0.250000,0.250000 0.000000 0, 0 579.264845,818.818017 A 0.250000,0.250000 0.000000 0, 0 579.764845,818.818017 z" style="fill:none;stroke:#000000"/></symbol><symbol id="*D13"><path style="fill:none;stroke:#000000" d="M 624.489 787.599 L 624.489 827.837"/><path style="fill:none;stroke:#000000" d="M 768.798 800.59 L 768.798 827.837"/><path style="fill:none;stroke:#000000" d="M 631.591 818.818 L 664.89 818.818"/><path style="fill:none;stroke:#000000" d="M 761.696 818.818 L 728.397 818.818"/><path style="fill:none;stroke:#000000" d="M 631.591 817.634 L 631.591 820.002 L 624.489 818.818 z"/><path style="fill:none;stroke:#000000" d="M 761.696 817.634 L 761.696 820.002 L 768.798 818.818 z"/>

<svg:text alignment-baseline="middle" dominant-baseline="middle" sodipodi:linespacing="125%" style="font-size: 10.215px; fill: #000000; font-family: Arial; text-anchor: start" text-anchor="middle" x="680.822" y="818.783"><tspan font-weight="bold">{leadin}</tspan></svg:text>

<path d="M 624.738832,783.089056 A 0.250000,0.250000 0.000000 0, 0 624.238832,783.089056 A 0.250000,0.250000 0.000000 0, 0 624.738832,783.089056 z" style="fill:none;stroke:#000000"/><path d="M 769.048067,796.080438 A 0.250000,0.250000 0.000000 0, 0 768.548067,796.080438 A 0.250000,0.250000 0.000000 0, 0 769.048067,796.080438 z" style="fill:none;stroke:#000000"/><path d="M 769.048067,818.818017 A 0.250000,0.250000 0.000000 0, 0 768.548067,818.818017 A 0.250000,0.250000 0.000000 0, 0 769.048067,818.818017 z" style="fill:none;stroke:#000000"/></symbol></defs><g inkscape:groupmode="layer" inkscape:label="0"/><g inkscape:groupmode="layer" inkscape:label="BORDER__ANSI_"/><g inkscape:groupmode="layer" inkscape:label="BREAK_LINE__ANSI_"><path d="M 594.249934,812.401870 L 594.249934,766.607586 L 598.759599,765.399226 L 589.740269,760.191915 L 594.249934,758.983554 L 594.249934,713.189270" style="fill:none;stroke:#000000"/><path d="M 612.288581,812.401870 L 612.288581,766.607586 L 616.798246,765.399226 L 607.778916,760.191915 L 612.288581,758.983554 L 612.288581,713.189270" style="fill:none;stroke:#000000"/></g><g inkscape:groupmode="layer" inkscape:label="CENTER_MARK__ANSI_"><path style="fill:none;stroke:#FF0000;stroke-dasharray:34.0858,4.2643,8.5215,4.2643," d="M 299.916 774.07 L 281.877 774.07"/><path style="fill:none;stroke:#FF0000;stroke-dasharray:34.0858,4.2643,8.5215,4.2643," d="M 290.896 760.541 L 290.896 783.089"/><path style="fill:none;stroke:#FF0000;stroke-dasharray:34.0858,4.2643,8.5215,4.2643," d="M 588.534 774.07 L 570.496 774.07"/><path style="fill:none;stroke:#FF0000;stroke-dasharray:34.0858,4.2643,8.5215,4.2643," d="M 579.515 760.541 L 579.515 783.089"/><path style="fill:none;stroke:#FF0000;stroke-dasharray:34.0858,4.2643,8.5215,4.2643," d="M 633.508 774.07 L 615.47 774.07"/><path style="fill:none;stroke:#FF0000;stroke-dasharray:34.0858,4.2643,8.5215,4.2643," d="M 624.489 760.541 L 624.489 783.089"/></g><g inkscape:groupmode="layer" inkscape:label="DIMENSION__ANSI_"><use xlink:href="#*D6" transform="translate(0 0)"/><use xlink:href="#*D7" transform="translate(0 0)"/><use xlink:href="#*D8" transform="translate(0 0)"/><use xlink:href="#*D9" transform="translate(0 0)"/><use xlink:href="#*D10" transform="translate(0 0)"/><use xlink:href="#*D11" transform="translate(0 0)"/><use xlink:href="#*D12" transform="translate(0 0)"/><use xlink:href="#*D13" transform="translate(0 0)"/></g><g inkscape:groupmode="layer" inkscape:label="HATCH__ANSI_"/><g inkscape:groupmode="layer" inkscape:label="SYMBOL__ANSI_">

<text x="345.928438" y="700.887009" style="font-size: 10.215px; fill: #000000; font-family: Arial; text-anchor: start" sodipodi:linespacing="125%"><tspan sodipodi:role="line" dx="0.000000" dy="7.215462"/><tspan> Ø.250 THRU, <tspan font-weight="bold">{holes}X</tspan></tspan></text>

<path d="M 293.227521,770.209311 337.640845,700.551370 344.742678,700.551370" style="fill:none;stroke:#000000"/></g><g inkscape:groupmode="layer" inkscape:label="TITLE__ANSI_"/><g inkscape:groupmode="layer" inkscape:label="VISIBLE__ANSI_"><path style="fill:none;stroke:#000000" d="M 66.3238 764.233 L 66.3238 807.172"/><path style="fill:none;stroke:#000000" d="M 65.2415 763.15 L 66.3238 764.233"/><path style="fill:none;stroke:#000000" d="M 66.3238 762.068 L 65.2415 763.15"/><path style="fill:none;stroke:#000000" d="M 53.8842 704.525 L 70.9488 704.525"/><path d="M 70.948794,704.524645 A 1.082319,1.082319 0.000000 0 0 71.965842,703.812501" style="fill:none;stroke:#000000"/><path style="fill:none;stroke:#000000" d="M 71.9658 703.813 L 87.8613 660.14"/><path d="M 88.878324,659.428009 A 1.082319,1.082319 0.000000 0 0 87.861276,660.140154" style="fill:none;stroke:#000000"/><path style="fill:none;stroke:#000000" d="M 88.8783 659.428 L 105.836 659.428"/><path d="M 106.917871,660.510329 A 1.082319,1.082319 0.000000 0 0 105.835551,659.428009" style="fill:none;stroke:#000000"/><path style="fill:none;stroke:#000000" d="M 106.918 660.51 L 106.918 671.868"/><path d="M 105.835551,672.949898 A 1.082319,1.082319 0.000000 0 0 106.917871,671.867579" style="fill:none;stroke:#000000"/><path style="fill:none;stroke:#000000" d="M 105.836 672.95 L 98.3465 672.95"/><path d="M 98.346452,672.949898 A 1.082319,1.082319 0.000000 0 0 97.329404,673.662043" style="fill:none;stroke:#000000"/><path style="fill:none;stroke:#000000" d="M 97.3294 673.662 L 86.625 703.072"/><path d="M 86.625001,703.072151 A 1.082319,1.082319 0.000000 0 0 87.642048,704.524645" style="fill:none;stroke:#000000"/><path style="fill:none;stroke:#000000" d="M 87.642 704.525 L 105.836 704.525"/><path d="M 106.917871,705.606965 A 1.082319,1.082319 0.000000 0 0 105.835551,704.524645" style="fill:none;stroke:#000000"/><path style="fill:none;stroke:#000000" d="M 106.918 705.607 L 106.918 716.964"/><path d="M 105.835551,718.046534 A 1.082319,1.082319 0.000000 0 0 106.917871,716.964215" style="fill:none;stroke:#000000"/><path style="fill:none;stroke:#000000" d="M 105.836 718.047 L 67.4061 718.047"/><path d="M 67.406116,718.046534 A 1.082319,1.082319 0.000000 0 0 66.323797,719.128853" style="fill:none;stroke:#000000"/><path style="fill:none;stroke:#000000" d="M 66.3238 719.129 L 66.3238 762.068"/><path d="M 66.323797,807.171690 A 1.082319,1.082319 0.000000 0 0 67.406116,808.254009" style="fill:none;stroke:#000000"/><path style="fill:none;stroke:#000000" d="M 67.4061 808.254 L 105.836 808.254"/><path d="M 106.917871,809.336328 A 1.082319,1.082319 0.000000 0 0 105.835551,808.254009" style="fill:none;stroke:#000000"/><path style="fill:none;stroke:#000000" d="M 106.918 809.336 L 106.918 820.694"/><path d="M 105.835551,821.775898 A 1.082319,1.082319 0.000000 0 0 106.917871,820.693578" style="fill:none;stroke:#000000"/><path style="fill:none;stroke:#000000" d="M 105.836 821.776 L 53.8842 821.776"/><path d="M 52.801908,820.693578 A 1.082319,1.082319 0.000000 0 0 53.884227,821.775898" style="fill:none;stroke:#000000"/><path style="fill:none;stroke:#000000" d="M 52.8019 820.694 L 52.8019 705.607"/><path d="M 53.884227,704.524645 A 1.082319,1.082319 0.000000 0 0 52.801908,705.606965" style="fill:none;stroke:#000000"/><path d="M 628.965909,774.610889 A 4.509664,4.509664 0.000000 0 0 628.998496,774.069729" style="fill:none;stroke:#000000"/><path d="M 628.998496,774.069729 A 4.509664,4.509664 0.000000 0 0 628.965909,773.528570" style="fill:none;stroke:#000000"/><path d="M 628.965909,773.528570 A 4.509664,4.509664 0.000000 0 0 620.011756,773.528570" style="fill:none;stroke:#000000"/><path d="M 620.011756,773.528570 A 4.509664,4.509664 0.000000 0 0 619.979169,774.069729" style="fill:none;stroke:#000000"/><path d="M 619.979169,774.069729 A 4.509664,4.509664 0.000000 0 0 620.011756,774.610889" style="fill:none;stroke:#000000"/><path d="M 620.011756,774.610889 A 4.509664,4.509664 0.000000 0 0 628.965909,774.610889" style="fill:none;stroke:#000000"/><path d="M 583.991921,774.610889 A 4.509664,4.509664 0.000000 0 0 584.024508,774.069729" style="fill:none;stroke:#000000"/><path d="M 584.024508,774.069729 A 4.509664,4.509664 0.000000 0 0 583.991921,773.528570" style="fill:none;stroke:#000000"/><path d="M 583.991921,773.528570 A 4.509664,4.509664 0.000000 0 0 575.037769,773.528570" style="fill:none;stroke:#000000"/><path d="M 575.037769,773.528570 A 4.509664,4.509664 0.000000 0 0 575.005181,774.069729" style="fill:none;stroke:#000000"/><path d="M 575.005181,774.069729 A 4.509664,4.509664 0.000000 0 0 575.037769,774.610889" style="fill:none;stroke:#000000"/><path d="M 575.037769,774.610889 A 4.509664,4.509664 0.000000 0 0 583.991921,774.610889" style="fill:none;stroke:#000000"/><path d="M 295.373453,774.610889 A 4.509664,4.509664 0.000000 0 0 295.406040,774.069729" style="fill:none;stroke:#000000"/><path d="M 295.406040,774.069729 A 4.509664,4.509664 0.000000 0 0 295.373453,773.528570" style="fill:none;stroke:#000000"/><path d="M 295.373453,773.528570 A 4.509664,4.509664 0.000000 0 0 286.419301,773.528570" style="fill:none;stroke:#000000"/><path d="M 286.419301,773.528570 A 4.509664,4.509664 0.000000 0 0 286.386713,774.069729" style="fill:none;stroke:#000000"/><path d="M 286.386713,774.069729 A 4.509664,4.509664 0.000000 0 0 286.419301,774.610889" style="fill:none;stroke:#000000"/><path d="M 286.419301,774.610889 A 4.509664,4.509664 0.000000 0 0 295.373453,774.610889" style="fill:none;stroke:#000000"/><path style="fill:none;stroke:#000000" d="M 620.012 774.611 L 612.289 774.611"/><path style="fill:none;stroke:#000000" d="M 594.25 774.611 L 583.992 774.611"/><path style="fill:none;stroke:#000000" d="M 575.038 774.611 L 295.373 774.611"/><path style="fill:none;stroke:#000000" d="M 286.419 774.611 L 146.587 774.611"/><path style="fill:none;stroke:#000000" d="M 146.587 774.611 L 146.587 796.08"/><path style="fill:none;stroke:#000000" d="M 768.798 774.611 L 768.798 796.08"/><path style="fill:none;stroke:#000000" d="M 768.798 774.611 L 628.966 774.611"/><path style="fill:none;stroke:#000000" d="M 286.387 774.07 L 146.587 774.07"/><path style="fill:none;stroke:#000000" d="M 146.587 774.07 L 146.587 774.611"/><path style="fill:none;stroke:#000000" d="M 575.005 774.07 L 295.406 774.07"/><path style="fill:none;stroke:#000000" d="M 594.25 774.07 L 584.025 774.07"/><path style="fill:none;stroke:#000000" d="M 619.979 774.07 L 612.289 774.07"/><path style="fill:none;stroke:#000000" d="M 286.419 773.529 L 146.587 773.529"/><path style="fill:none;stroke:#000000" d="M 146.587 773.529 L 146.587 774.07"/><path style="fill:none;stroke:#000000" d="M 575.038 773.529 L 295.373 773.529"/><path style="fill:none;stroke:#000000" d="M 594.25 773.529 L 583.992 773.529"/><path style="fill:none;stroke:#000000" d="M 620.012 773.529 L 612.289 773.529"/><path style="fill:none;stroke:#000000" d="M 768.798 722.209 L 612.289 722.209"/><path style="fill:none;stroke:#000000" d="M 146.587 722.75 L 146.587 728.428"/><path style="fill:none;stroke:#000000" d="M 768.798 722.75 L 768.798 728.428"/><path style="fill:none;stroke:#000000" d="M 768.798 728.97 L 612.289 728.97"/><path style="fill:none;stroke:#000000" d="M 146.587 729.326 L 146.587 744.031"/><path style="fill:none;stroke:#000000" d="M 768.798 729.326 L 768.798 744.031"/><path style="fill:none;stroke:#000000" d="M 768.798 744.757 L 612.289 744.757"/><path style="fill:none;stroke:#000000" d="M 146.587 745.298 L 146.587 750.977"/><path style="fill:none;stroke:#000000" d="M 768.798 745.298 L 768.798 750.977"/><path style="fill:none;stroke:#000000" d="M 768.798 751.518 L 612.289 751.518"/><path style="fill:none;stroke:#000000" d="M 768.798 773.529 L 628.966 773.529"/><path style="fill:none;stroke:#000000" d="M 768.798 752.059 L 768.798 773.529"/><path style="fill:none;stroke:#000000" d="M 146.587 752.059 L 146.587 773.529"/><path style="fill:none;stroke:#000000" d="M 768.798 774.07 L 628.998 774.07"/><path style="fill:none;stroke:#000000" d="M 768.798 773.529 L 768.798 774.07"/><path style="fill:none;stroke:#000000" d="M 768.798 774.07 L 768.798 774.611"/><path style="fill:none;stroke:#000000" d="M 768.798 796.622 L 612.289 796.622"/><path style="fill:none;stroke:#000000" d="M 146.587 797.163 L 146.587 802.841"/><path style="fill:none;stroke:#000000" d="M 768.798 797.163 L 768.798 802.841"/><path style="fill:none;stroke:#000000" d="M 768.798 803.383 L 612.289 803.383"/><path style="fill:none;stroke:#000000" d="M 594.25 722.209 L 146.587 722.209"/><path style="fill:none;stroke:#000000" d="M 146.587 722.75 L 146.587 722.209"/><path style="fill:none;stroke:#000000" d="M 768.798 722.75 L 768.798 722.209"/><path style="fill:none;stroke:#000000" d="M 146.587 728.97 L 146.587 728.428"/><path style="fill:none;stroke:#000000" d="M 594.25 728.97 L 146.587 728.97"/><path style="fill:none;stroke:#000000" d="M 768.798 728.97 L 768.798 728.428"/><path style="fill:none;stroke:#000000" d="M 146.587 728.97 L 146.587 729.326"/><path style="fill:none;stroke:#000000" d="M 768.798 728.97 L 768.798 729.326"/><path style="fill:none;stroke:#000000" d="M 146.587 744.031 L 146.587 744.757"/><path style="fill:none;stroke:#000000" d="M 768.798 744.031 L 768.798 744.757"/><path style="fill:none;stroke:#000000" d="M 594.25 744.757 L 146.587 744.757"/><path style="fill:none;stroke:#000000" d="M 146.587 745.298 L 146.587 744.757"/><path style="fill:none;stroke:#000000" d="M 768.798 745.298 L 768.798 744.757"/><path style="fill:none;stroke:#000000" d="M 146.587 751.518 L 146.587 750.977"/><path style="fill:none;stroke:#000000" d="M 594.25 751.518 L 146.587 751.518"/><path style="fill:none;stroke:#000000" d="M 768.798 751.518 L 768.798 750.977"/><path style="fill:none;stroke:#000000" d="M 146.587 751.518 L 146.587 752.059"/><path style="fill:none;stroke:#000000" d="M 768.798 751.518 L 768.798 752.059"/><path style="fill:none;stroke:#000000" d="M 146.587 796.08 L 146.587 796.622"/><path style="fill:none;stroke:#000000" d="M 768.798 796.08 L 768.798 796.622"/><path style="fill:none;stroke:#000000" d="M 594.25 796.622 L 146.587 796.622"/><path style="fill:none;stroke:#000000" d="M 146.587 797.163 L 146.587 796.622"/><path style="fill:none;stroke:#000000" d="M 768.798 797.163 L 768.798 796.622"/><path style="fill:none;stroke:#000000" d="M 146.587 803.383 L 146.587 802.841"/><path style="fill:none;stroke:#000000" d="M 594.25 803.383 L 146.587 803.383"/><path style="fill:none;stroke:#000000" d="M 768.798 803.383 L 768.798 802.841"/></g><g inkscape:groupmode="layer" inkscape:label="DEFPOINTS"/></svg>