<svg xmlns="http://www.w3.org/2000/svg" xmlns:svg="http://www.w3.org/2000/svg" xmlns:xlink="http://www.w3.org/1999/xlink" xmlns:sodipodi="http://sodipodi.sourceforge.net/DTD/sodipodi-0.dtd" xmlns:inkscape="http://www.inkscape.org/namespaces/inkscape" viewBox="0 0 793.7007874015749 1122.5196850393702" width="793.7007874015749" height="1122.5196850393702">
    <defs><marker id="DistanceX" orient="auto" refX="0.0" refY="0.0" style="overflow:visible"><path d="M 3,-3 L -3,3 M 0,-5 L  0,5" style="stroke:#000000; stroke-width:0.5"/></marker><pattern id="Hatch" patternUnits="userSpaceOnUse" width="8" height="8" x="0" y="0"><path d="M8 4 l-4,4" stroke="#000000" stroke-width="0.25" linecap="square"/><path d="M6 2 l-4,4" stroke="#000000" stroke-width="0.25" linecap="square"/><path d="M4 0 l-4,4" stroke="#000000" stroke-width="0.25" linecap="square"/></pattern><symbol id="*MODEL_SPACE"/><symbol id="*PAPER_SPACE"/><symbol id="_CLOSED"><path style="fill:none;stroke:#000000;stroke-linecap:round" d="M -36.0773 1116.51 L 0 1122.52"/><path style="fill:none;stroke:#000000;stroke-linecap:round" d="M 0 1122.52 L -36.0773 1128.53"/><path style="fill:none;stroke:#000000;stroke-linecap:round" d="M -36.0773 1116.51 L -36.0773 1128.53"/><path style="fill:none;stroke:#000000;stroke-linecap:round" d="M 0 1122.52 L -36.0773 1122.52"/></symbol><symbol id="DATUMFILLED45"><path d="M 0.000000,1086.442377 L 0.000000,1158.596994 L -36.077309,1122.519685 L 0.000000,1086.442377" style="fill:none;stroke:#000000"/><path style="fill:none;stroke:#000000" d="M 0 1086.44 L 0 1158.6 L 0 1086.44 z"/></symbol><symbol id="FILLED-1"><path style="fill:none;stroke:#000000" d="M -36.0773 1122.52 L 0 1122.52"/><path d="M -36.077309,1126.109009 L 0.000000,1122.519685 L -36.077309,1118.930361 L -36.077309,1126.109009" style="fill:none;stroke:#000000"/><path style="fill:none;stroke:#000000" d="M -36.0773 1126.11 L 0 1122.52 L -36.0773 1126.11 z"/><path style="fill:none;stroke:#000000" d="M -36.0773 1126.11 L 0 1122.52"/><path style="fill:none;stroke:#000000" d="M 0 1122.52 L -36.0773 1118.93"/><path style="fill:none;stroke:#000000" d="M -36.0773 1118.93 L -36.0773 1126.11"/></symbol><symbol id="BORDERS_MONARCHMODERNBORDE"><path style="fill:none;stroke:#000000" d="M 0 815.863 L 396.85 815.863"/><path style="fill:none;stroke:#000000" d="M 396.85 815.863 L 396.85 1122.52"/><path style="fill:none;stroke:#000000" d="M 396.85 1122.52 L 0 1122.52"/><path style="fill:none;stroke:#000000" d="M 0 1122.52 L 0 815.863"/><path style="fill:none;stroke:#000000" d="M 396.85 815.863 L 0 815.863"/><path style="fill:none;stroke:#000000" d="M 0 815.863 L 0 1122.52"/><path style="fill:none;stroke:#000000" d="M 0 1122.52 L 396.85 1122.52"/><path style="fill:none;stroke:#000000" d="M 396.85 1122.52 L 396.85 815.863"/></symbol><symbol id="TITLE_BLOCKS_MONARCHMODERN"><path d="M 6.823468,1052.158094 L 6.823468,1052.446713 L 69.958758,1052.446713 L 69.958758,1065.975703 L 70.247376,1065.975703 L 70.247376,1052.446713 L 151.421320,1052.446713 L 151.421320,1065.975703 L 151.709939,1065.975703 L 151.709939,1052.446713 L 187.787247,1052.446713 L 187.787247,1065.975703 L 188.075866,1065.975703 L 188.075866,1052.446713 L 242.191828,1052.446713 L 242.191828,1052.158094 L 188.075866,1052.158094 L 188.075866,1038.629103 L 187.787247,1038.629103 L 187.787247,1052.158094 L 151.709939,1052.158094 L 151.709939,1038.629103 L 151.421320,1038.629103 L 151.421320,1052.158094 L 70.247376,1052.158094 L 70.247376,1038.629103 L 69.958758,1038.629103 L 69.958758,1052.158094 L 6.823468,1052.158094 z " style="fill:#848484"/><path d="M 6.823468,1115.401616 L 390.075837,1115.401616 L 390.075837,1115.762389 L 6.823468,1115.762389 L 6.823468,1115.401616 z " style="fill:#848484"/><path d="M 390.075837,822.634207 L 390.075837,822.994980 L 6.823468,822.994980 L 6.823468,822.634207 L 390.075837,822.634207 z " style="fill:#848484"/><path d="M 6.823468,1068.140342 L 6.823468,1113.236977 L 198.449652,1113.236977 L 198.449652,1068.140342 L 6.823468,1068.140342 z " style="fill:#000000"/><path d="M 390.075837,1113.236977 L 390.075837,1068.140342 L 198.449652,1068.140342 L 198.449652,1113.236977 L 390.075837,1113.236977 z " style="fill:#000000"/><path style="fill:none;stroke:#848484" d="M 6.82347 1068.14 L 390.076 1068.14"/><path style="fill:none;stroke:#848484" d="M 390.076 1068.14 L 390.076 1113.24"/><path style="fill:none;stroke:#848484" d="M 390.076 1113.24 L 6.82347 1113.24"/><path style="fill:none;stroke:#848484" d="M 6.82347 1113.24 L 6.82347 1068.14"/><path style="fill:none;stroke:#848484" d="M 390.076 1115.4 L 6.82347 1115.4"/><path style="fill:none;stroke:#848484" d="M 6.82347 1115.4 L 6.82347 1115.76"/><path style="fill:none;stroke:#848484" d="M 6.82347 1115.76 L 390.076 1115.76"/><path style="fill:none;stroke:#848484" d="M 390.076 1115.76 L 390.076 1115.4"/><path style="fill:none;stroke:#848484" d="M 242.192 1052.16 L 242.192 1052.45"/><path style="fill:none;stroke:#848484" d="M 6.82347 1052.45 L 6.82347 1052.16"/><path style="fill:none;stroke:#848484" d="M 187.787 1038.63 L 188.076 1038.63"/><path style="fill:none;stroke:#848484" d="M 188.076 1065.98 L 187.787 1065.98"/><path style="fill:none;stroke:#848484" d="M 151.421 1038.63 L 151.71 1038.63"/><path style="fill:none;stroke:#848484" d="M 151.71 1065.98 L 151.421 1065.98"/><path style="fill:none;stroke:#848484" d="M 69.9588 1038.63 L 70.2474 1038.63"/><path style="fill:none;stroke:#848484" d="M 70.2474 1065.98 L 69.9588 1065.98"/><path style="fill:none;stroke:#848484" d="M 6.82347 822.634 L 390.076 822.634"/><path style="fill:none;stroke:#848484" d="M 390.076 822.634 L 390.076 822.995"/><path style="fill:none;stroke:#848484" d="M 390.076 822.995 L 6.82347 822.995"/><path style="fill:none;stroke:#848484" d="M 6.82347 822.995 L 6.82347 822.634"/><path style="fill:none;stroke:#848484" d="M 151.421 1065.98 L 151.421 1052.45"/><path style="fill:none;stroke:#848484" d="M 151.421 1052.16 L 151.421 1038.63"/><path style="fill:none;stroke:#848484" d="M 151.71 1038.63 L 151.71 1052.16"/><path style="fill:none;stroke:#848484" d="M 151.71 1052.45 L 151.71 1065.98"/><path style="fill:none;stroke:#848484" d="M 6.82347 1052.16 L 69.9588 1052.16"/><path style="fill:none;stroke:#848484" d="M 70.2474 1052.16 L 151.421 1052.16"/><path style="fill:none;stroke:#848484" d="M 69.9588 1065.98 L 69.9588 1052.45"/><path style="fill:none;stroke:#848484" d="M 69.9588 1052.16 L 69.9588 1038.63"/><path style="fill:none;stroke:#848484" d="M 70.2474 1038.63 L 70.2474 1052.16"/><path style="fill:none;stroke:#848484" d="M 70.2474 1052.45 L 70.2474 1065.98"/><path style="fill:none;stroke:#848484" d="M 151.421 1052.45 L 70.2474 1052.45"/><path style="fill:none;stroke:#848484" d="M 69.9588 1052.45 L 6.82347 1052.45"/><path style="fill:none;stroke:#848484" d="M 188.076 1038.63 L 188.076 1052.16"/><path style="fill:none;stroke:#848484" d="M 188.076 1052.45 L 188.076 1065.98"/><path style="fill:none;stroke:#848484" d="M 187.787 1065.98 L 187.787 1052.45"/><path style="fill:none;stroke:#848484" d="M 187.787 1052.16 L 187.787 1038.63"/><path style="fill:none;stroke:#848484" d="M 242.192 1052.45 L 188.076 1052.45"/><path style="fill:none;stroke:#848484" d="M 187.787 1052.45 L 151.71 1052.45"/><path style="fill:none;stroke:#848484" d="M 151.71 1052.16 L 187.787 1052.16"/><path style="fill:none;stroke:#848484" d="M 188.076 1052.16 L 242.192 1052.16"/><path d="M 265.881905,1050.375440 A 4.509664,4.509664 0.000000 0, 0 256.862578,1050.375440 A 4.509664,4.509664 0.000000 0, 0 265.881905,1050.375440 z" style="fill:none;stroke:#000000"/><path d="M 270.391569,1050.375440 A 9.019327,9.019327 0.000000 0, 0 252.352914,1050.375440 A 9.019327,9.019327 0.000000 0, 0 270.391569,1050.375440 z" style="fill:none;stroke:#000000"/><path style="fill:none;stroke:#000000" d="M 292.94 1041.36 L 292.94 1059.39"/><path style="fill:none;stroke:#000000" d="M 274.901 1045.87 L 274.901 1054.89"/><path style="fill:none;stroke:#000000" d="M 274.901 1045.87 L 292.94 1041.36"/><path style="fill:none;stroke:#000000" d="M 274.901 1054.89 L 292.94 1059.39"/><path style="fill:none;stroke:#FF0000;stroke-dasharray:34.0858,4.2643,8.5215,4.2643," d="M 261.372 1039.1 L 261.372 1061.65"/><path style="fill:none;stroke:#FF0000;stroke-dasharray:34.0858,4.2643,8.5215,4.2643," d="M 250.098 1050.38 L 295.195 1050.38"/><path style="fill:none;stroke:#848484" d="M 6.82347 1034.84 L 242.188 1034.84"/><path style="fill:none;stroke:#848484" d="M 242.188 1034.84 L 242.188 1068.14"/><path style="fill:none;stroke:#848484" d="M 242.188 1068.14 L 6.82347 1068.14"/><path style="fill:none;stroke:#848484" d="M 6.82347 1068.14 L 6.82347 1034.84"/><text x="169.748593" y="1054.222631" style="font-size: 3.608px; fill: #000000; font-family: Arial; text-anchor: middle" sodipodi:linespacing="125%"><tspan sodipodi:role="line" dx="0.000000" dy="3.607731"></tspan><tspan style="font-size:3.608px">Scale</tspan><tspan></tspan><tspan style="font-size:3.608px"></tspan><tspan sodipodi:role="line" x="169.74859295967784" dy="3.607731" style="font-size:3.608px"></tspan><tspan></tspan><tspan style="font-size:3.608px">1 / 2</tspan></text><text x="215.133847" y="1054.070191" style="font-size: 3.608px; fill: #000000; font-family: Arial; text-anchor: middle" sodipodi:linespacing="125%"><tspan sodipodi:role="line" dx="0.000000" dy="3.607731"></tspan><tspan style="font-size:3.608px">Rev</tspan><tspan sodipodi:role="line" x="215.13384707564057" dy="3.607731" style="font-size:3.608px"></tspan><tspan></tspan><tspan style="font-size:3.608px">1</tspan></text><text x="10.431199" y="1103.315718" style="font-size: 3.608px; fill: #000000; font-family: Arial; text-anchor: start" sodipodi:linespacing="125%"><tspan sodipodi:role="line" dx="0.000000" dy="3.607731">Finish: Mill</tspan></text><text x="280.526793" y="1087.625936" style="font-size: 2.165px; fill: #000000; font-family: Arial; text-anchor: middle" sodipodi:linespacing="125%"><tspan sodipodi:role="line" dx="0.000000" dy="2.164639"></tspan><tspan style="font-size:2.165px">New York</tspan><tspan sodipodi:role="line" x="280.5267927198779" dy="2.164639" style="font-size:2.165px"></tspan><tspan></tspan><tspan style="font-size:2.165px">1700 Ocean Ave Suite 2</tspan><tspan sodipodi:role="line" x="280.5267927198779" dy="2.164639" style="font-size:2.165px"></tspan><tspan></tspan><tspan style="font-size:2.165px">Ronkonkoma NY 11779</tspan><tspan sodipodi:role="line" x="280.5267927198779" dy="2.164639" style="font-size:2.165px"></tspan><tspan></tspan><tspan style="font-size:2.165px">Phone: (631) 750-3000</tspan><tspan sodipodi:role="line" x="280.5267927198779" dy="2.164639" style="font-size:2.165px"></tspan></text><text x="323.368597" y="1087.625936" style="font-size: 2.165px; fill: #000000; font-family: Arial; text-anchor: middle" sodipodi:linespacing="125%"><tspan sodipodi:role="line" dx="0.000000" dy="2.164639"></tspan><tspan style="font-size:2.165px">Nevada</tspan><tspan sodipodi:role="line" x="323.3685965853038" dy="2.164639" style="font-size:2.165px"></tspan><tspan></tspan><tspan style="font-size:2.165px">1080 Linda Way, Unit 10</tspan><tspan sodipodi:role="line" x="323.3685965853038" dy="2.164639" style="font-size:2.165px"></tspan><tspan></tspan><tspan style="font-size:2.165px">Sparks, NV 89431</tspan><tspan sodipodi:role="line" x="323.3685965853038" dy="2.164639" style="font-size:2.165px"></tspan><tspan></tspan><tspan style="font-size:2.165px">Phone: (775) 415-0100</tspan></text><text x="366.210400" y="1087.531895" style="font-size: 2.165px; fill: #000000; font-family: Arial; text-anchor: middle" sodipodi:linespacing="125%"><tspan sodipodi:role="line" dx="0.000000" dy="2.164639"></tspan><tspan style="font-size:2.165px">Texas</tspan><tspan></tspan><tspan style="font-size:2.165px"></tspan><tspan sodipodi:role="line" x="366.21040045072965" dy="2.164639" style="font-size:2.165px"></tspan><tspan></tspan><tspan style="font-size:2.165px">1330 Post &amp; Paddock St., Suite 800</tspan><tspan sodipodi:role="line" x="366.21040045072965" dy="2.164639" style="font-size:2.165px"></tspan><tspan></tspan><tspan style="font-size:2.165px">Grand Prairie, TX 75050</tspan><tspan sodipodi:role="line" x="366.21040045072965" dy="2.164639" style="font-size:2.165px"></tspan><tspan></tspan><tspan style="font-size:2.165px">(945) 202-2700</tspan></text><text x="324.507531" y="1104.600968" style="font-size: 3.608px; fill: #000000; font-family: Arial; text-anchor: middle" sodipodi:linespacing="125%"><tspan sodipodi:role="line" dx="0.000000" dy="3.607731">monarchmetal.com</tspan></text><text x="322.835401" y="1071.748073" style="font-size: 3.608px; fill: #000000; font-family: Arial; text-anchor: middle" sodipodi:linespacing="125%"><tspan sodipodi:role="line" dx="0.000000" dy="3.607731">MONARCH METAL FABRICATION. ANY REPRODUCTION IN PART OR AS A WHOLE</tspan><tspan sodipodi:role="line" x="322.83540147286794" dy="3.607731"/><tspan sodipodi:role="line" x="322.83540147286794" dy="3.607731"/></text><text x="38.391113" y="1037.699223" style="font-size: 3.608px; fill: #000000; font-family: Arial; text-anchor: middle" sodipodi:linespacing="125%"><tspan sodipodi:role="line" dx="0.000000" dy="3.607731"></tspan><tspan style="font-size:3.608px">Created By:</tspan><tspan></tspan><tspan style="font-size:3.608px"></tspan><tspan sodipodi:role="line" x="38.39111264471729" dy="3.607731" style="font-size:3.608px"></tspan><tspan></tspan><tspan style="font-size:3.608px">AMH</tspan></text><text x="38.391113" y="1054.191578" style="font-size: 3.608px; fill: #000000; font-family: Arial; text-anchor: middle" sodipodi:linespacing="125%"><tspan sodipodi:role="line" dx="0.000000" dy="3.607731"></tspan><tspan style="font-size:3.608px">Creation Date:</tspan><tspan></tspan><tspan style="font-size:3.608px"></tspan><tspan sodipodi:role="line" x="38.39111264471729" dy="3.607731" style="font-size:3.608px"></tspan><tspan></tspan><tspan style="font-size:3.608px">8/17/2022</tspan><tspan sodipodi:role="line" x="38.39111264471729" dy="3.607731" style="font-size:3.608px"></tspan></text><text x="215.133847" y="1038.781543" style="font-size: 3.608px; fill: #000000; font-family: Arial; text-anchor: middle" sodipodi:linespacing="125%"><tspan sodipodi:role="line" dx="0.000000" dy="3.607731"></tspan><tspan style="font-size:3.608px">Sheet No.</tspan><tspan></tspan><tspan style="font-size:3.608px"></tspan><tspan sodipodi:role="line" x="215.13384707564057" dy="3.607731" style="font-size:3.608px"></tspan><tspan></tspan><tspan style="font-size:3.608px">4/8</tspan></text><text x="169.748593" y="1038.781543" style="font-size: 3.608px; fill: #000000; font-family: Arial; text-anchor: middle" sodipodi:linespacing="125%"><tspan sodipodi:role="line" dx="0.000000" dy="3.607731"></tspan><tspan style="font-size:3.608px">Sheet Size</tspan><tspan></tspan><tspan style="font-size:3.608px"></tspan><tspan sodipodi:role="line" x="169.74859295967784" dy="3.607731" style="font-size:3.608px"></tspan><tspan></tspan><tspan style="font-size:3.608px">A</tspan></text><text x="110.834348" y="1037.699223" style="font-size: 3.608px; fill: #000000; font-family: Arial; text-anchor: middle" sodipodi:linespacing="125%"><tspan sodipodi:role="line" dx="0.000000" dy="3.607731"></tspan><tspan style="font-size:3.608px">Approved By:</tspan><tspan></tspan><tspan style="font-size:3.608px"></tspan><tspan sodipodi:role="line" x="110.83434814937009" dy="3.607731" style="font-size:3.608px"></tspan></text><text x="110.834348" y="1054.222631" style="font-size: 3.608px; fill: #000000; font-family: Arial; text-anchor: middle" sodipodi:linespacing="125%"><tspan sodipodi:role="line" dx="0.000000" dy="3.607731"></tspan><tspan style="font-size:3.608px">Approval Date:</tspan><tspan></tspan><tspan style="font-size:3.608px"></tspan><tspan sodipodi:role="line" x="110.83434814937009" dy="3.607731" style="font-size:3.608px"></tspan></text><text x="10.431199" y="1091.139626" style="font-size: 3.608px; fill: #000000; font-family: Arial; text-anchor: start" sodipodi:linespacing="125%"><tspan sodipodi:role="line" dx="0.000000" dy="3.607731">Weight: 0.827 lbmass</tspan></text><text x="9.744012" y="1075.355804" style="font-size: 3.608px; fill: #000000; font-family: Arial; text-anchor: start" sodipodi:linespacing="125%"><tspan sodipodi:role="line" dx="0.000000" dy="0.000000">STOCK_NUMBERMF625-48H8</tspan></text><text x="10.431199" y="1082.120299" style="font-size: 3.608px; fill: #000000; font-family: Arial; text-anchor: start" sodipodi:linespacing="125%"><tspan sodipodi:role="line" dx="0.000000" dy="0.000000">DESCRIPTION</tspan></text><text x="10.259402" y="1100.330750" style="font-size: 3.608px; fill: #000000; font-family: Arial; text-anchor: start" sodipodi:linespacing="125%"><tspan sodipodi:role="line" dx="0.000000" dy="0.000000">MATERIALAluminum 6063</tspan></text></symbol><symbol id="*D6"><path style="fill:none;stroke:#000000" d="M 787.446 799.984 L 787.446 849.945"/><path style="fill:none;stroke:#000000" d="M 148.668 799.984 L 148.668 849.945"/><path style="fill:none;stroke:#000000" d="M 780.344 840.926 L 723.568 840.926"/><path style="fill:none;stroke:#000000" d="M 723.568 840.926 L 721.163 844.533"/><path style="fill:none;stroke:#000000" d="M 721.163 844.533 L 718.758 837.318"/><path style="fill:none;stroke:#000000" d="M 718.758 837.318 L 716.353 840.926"/><path style="fill:none;stroke:#000000" d="M 716.353 840.926 L 485.022 840.926"/><path style="fill:none;stroke:#000000" d="M 155.77 840.926 L 451.093 840.926"/><path style="fill:none;stroke:#000000" d="M 780.344 839.742 L 780.344 842.109 L 787.446 840.926 z"/><path style="fill:none;stroke:#000000" d="M 155.77 839.742 L 155.77 842.109 L 148.668 840.926 z"/><text x="453.365161" y="837.220702" style="font-size: 7.215px; fill: #000000; font-family: Arial; text-anchor: start" sodipodi:linespacing="125%"><tspan sodipodi:role="line" dx="0.000000" dy="7.215462" dominant-baseline="central">48.00</tspan></text><path d="M 787.695933,795.473935 A 0.250000,0.250000 0.000000 0, 0 787.195933,795.473935 A 0.250000,0.250000 0.000000 0, 0 787.695933,795.473935 z" style="fill:none;stroke:#000000"/><path d="M 148.918206,795.473935 A 0.250000,0.250000 0.000000 0, 0 148.418206,795.473935 A 0.250000,0.250000 0.000000 0, 0 148.918206,795.473935 z" style="fill:none;stroke:#000000"/><path d="M 148.918206,840.925663 A 0.250000,0.250000 0.000000 0, 0 148.418206,840.925663 A 0.250000,0.250000 0.000000 0, 0 148.918206,840.925663 z" style="fill:none;stroke:#000000"/></symbol><symbol id="*D7"><path style="fill:none;stroke:#000000" d="M 144.159 795.474 L 131.555 795.474"/><path style="fill:none;stroke:#000000" d="M 275.787 772.132 L 131.555 772.132"/><path style="fill:none;stroke:#000000" d="M 140.575 788.372 L 140.575 779.234"/><path style="fill:none;stroke:#000000" d="M 147.677 701.47 L 140.575 701.47"/><path style="fill:none;stroke:#000000" d="M 140.575 701.47 L 140.575 772.132"/><text x="149.949153" y="697.764790" style="font-size: 7.215px; fill: #000000; font-family: Arial; text-anchor: start" sodipodi:linespacing="125%"><tspan sodipodi:role="line" dx="0.000000" dy="7.215462" dominant-baseline="central">.65</tspan></text><path style="fill:none;stroke:#000000" d="M 139.391 788.372 L 141.758 788.372 L 140.575 795.474 z"/><path style="fill:none;stroke:#000000" d="M 139.391 779.234 L 141.758 779.234 L 140.575 772.132 z"/><path d="M 148.918206,795.473935 A 0.250000,0.250000 0.000000 0, 0 148.418206,795.473935 A 0.250000,0.250000 0.000000 0, 0 148.918206,795.473935 z" style="fill:none;stroke:#000000"/><path d="M 280.546266,772.131917 A 0.250000,0.250000 0.000000 0, 0 280.046266,772.131917 A 0.250000,0.250000 0.000000 0, 0 280.546266,772.131917 z" style="fill:none;stroke:#000000"/><path d="M 140.824734,772.131917 A 0.250000,0.250000 0.000000 0, 0 140.324734,772.131917 A 0.250000,0.250000 0.000000 0, 0 140.824734,772.131917 z" style="fill:none;stroke:#000000"/></symbol><symbol id="*D8"><path style="fill:none;stroke:#000000" d="M 148.668 799.984 L 148.668 822.24"/><path style="fill:none;stroke:#000000" d="M 292.977 789.323 L 292.977 822.24"/><path style="fill:none;stroke:#000000" d="M 155.77 813.22 L 207.082 813.22"/><path style="fill:none;stroke:#000000" d="M 285.876 813.22 L 234.563 813.22"/><path style="fill:none;stroke:#000000" d="M 155.77 812.037 L 155.77 814.404 L 148.668 813.22 z"/><path style="fill:none;stroke:#000000" d="M 285.876 812.037 L 285.876 814.404 L 292.977 813.22 z"/><text x="209.354844" y="809.515460" style="font-size: 7.215px; fill: #000000; font-family: Arial; text-anchor: start" sodipodi:linespacing="125%"><tspan sodipodi:role="line" dx="0.000000" dy="7.215462" dominant-baseline="central">4.00</tspan></text><path d="M 148.918206,795.473935 A 0.250000,0.250000 0.000000 0, 0 148.418206,795.473935 A 0.250000,0.250000 0.000000 0, 0 148.918206,795.473935 z" style="fill:none;stroke:#000000"/><path d="M 293.227440,784.813091 A 0.250000,0.250000 0.000000 0, 0 292.727440,784.813091 A 0.250000,0.250000 0.000000 0, 0 293.227440,784.813091 z" style="fill:none;stroke:#000000"/><path d="M 293.227440,813.220420 A 0.250000,0.250000 0.000000 0, 0 292.727440,813.220420 A 0.250000,0.250000 0.000000 0, 0 293.227440,813.220420 z" style="fill:none;stroke:#000000"/></symbol><symbol id="*D9"><path style="fill:none;stroke:#000000" d="M 292.977 789.323 L 292.977 822.24"/><path style="fill:none;stroke:#000000" d="M 581.596 789.323 L 581.596 822.24"/><path style="fill:none;stroke:#000000" d="M 300.079 813.22 L 423.802 813.22"/><path style="fill:none;stroke:#000000" d="M 574.494 813.22 L 450.771 813.22"/><path style="fill:none;stroke:#000000" d="M 300.079 812.037 L 300.079 814.404 L 292.977 813.22 z"/><path style="fill:none;stroke:#000000" d="M 574.494 812.037 L 574.494 814.404 L 581.596 813.22 z"/><text x="426.074563" y="809.515460" style="font-size: 7.215px; fill: #000000; font-family: Arial; text-anchor: start" sodipodi:linespacing="125%"><tspan sodipodi:role="line" dx="0.000000" dy="7.215462" dominant-baseline="central">8.00</tspan></text><path d="M 293.227440,784.813091 A 0.250000,0.250000 0.000000 0, 0 292.727440,784.813091 A 0.250000,0.250000 0.000000 0, 0 293.227440,784.813091 z" style="fill:none;stroke:#000000"/><path d="M 581.845909,784.813091 A 0.250000,0.250000 0.000000 0, 0 581.345909,784.813091 A 0.250000,0.250000 0.000000 0, 0 581.845909,784.813091 z" style="fill:none;stroke:#000000"/><path d="M 581.845909,813.220420 A 0.250000,0.250000 0.000000 0, 0 581.345909,813.220420 A 0.250000,0.250000 0.000000 0, 0 581.845909,813.220420 z" style="fill:none;stroke:#000000"/></symbol><symbol id="*D10"><path style="fill:none;stroke:#000000" d="M 643.137 789.323 L 643.137 823.433"/><path style="fill:none;stroke:#000000" d="M 787.446 799.442 L 787.446 823.433"/><path style="fill:none;stroke:#000000" d="M 650.239 814.414 L 701.551 814.414"/><path style="fill:none;stroke:#000000" d="M 780.344 814.414 L 729.032 814.414"/><path style="fill:none;stroke:#000000" d="M 650.239 813.23 L 650.239 815.598 L 643.137 814.414 z"/><path style="fill:none;stroke:#000000" d="M 780.344 813.23 L 780.344 815.598 L 787.446 814.414 z"/><text x="703.823337" y="810.709003" style="font-size: 7.215px; fill: #000000; font-family: Arial; text-anchor: start" sodipodi:linespacing="125%"><tspan sodipodi:role="line" dx="0.000000" dy="7.215462" dominant-baseline="central">4.00</tspan></text><path d="M 643.386699,784.813091 A 0.250000,0.250000 0.000000 0, 0 642.886699,784.813091 A 0.250000,0.250000 0.000000 0, 0 643.386699,784.813091 z" style="fill:none;stroke:#000000"/><path d="M 787.695933,794.932776 A 0.250000,0.250000 0.000000 0, 0 787.195933,794.932776 A 0.250000,0.250000 0.000000 0, 0 787.695933,794.932776 z" style="fill:none;stroke:#000000"/><path d="M 787.695933,814.413963 A 0.250000,0.250000 0.000000 0, 0 787.195933,814.413963 A 0.250000,0.250000 0.000000 0, 0 787.695933,814.413963 z" style="fill:none;stroke:#000000"/></symbol><symbol id="*D11"><path style="fill:none;stroke:#000000" d="M 92.7674 700.642 L 57.6858 700.642"/><path style="fill:none;stroke:#000000" d="M 117.3 610.449 L 57.6858 610.449"/><path style="fill:none;stroke:#000000" d="M 66.7051 693.54 L 66.7051 661.523"/><path style="fill:none;stroke:#000000" d="M 66.7051 617.551 L 66.7051 649.568"/><path style="fill:none;stroke:#000000" d="M 65.5215 693.54 L 67.8888 693.54 L 66.7051 700.642 z"/><path style="fill:none;stroke:#000000" d="M 65.5215 617.551 L 67.8888 617.551 L 66.7051 610.449 z"/><text x="59.745550" y="651.840557" style="font-size: 7.215px; fill: #000000; font-family: Arial; text-anchor: start" sodipodi:linespacing="125%"><tspan sodipodi:role="line" dx="0.000000" dy="7.215462" dominant-baseline="central">.63</tspan></text><path d="M 97.527113,700.642153 A 0.250000,0.250000 0.000000 0, 0 97.027113,700.642153 A 0.250000,0.250000 0.000000 0, 0 97.527113,700.642153 z" style="fill:none;stroke:#000000"/><path d="M 122.059683,610.448882 A 0.250000,0.250000 0.000000 0, 0 121.559683,610.448882 A 0.250000,0.250000 0.000000 0, 0 122.059683,610.448882 z" style="fill:none;stroke:#000000"/><path d="M 66.955145,610.448882 A 0.250000,0.250000 0.000000 0, 0 66.455145,610.448882 A 0.250000,0.250000 0.000000 0, 0 66.955145,610.448882 z" style="fill:none;stroke:#000000"/></symbol><symbol id="*D12"><path style="fill:none;stroke:#000000" d="M 105.936 883.374 L 105.936 911.424"/><path style="fill:none;stroke:#000000" d="M 95.1125 883.374 L 95.1125 911.424"/><path style="fill:none;stroke:#000000" d="M 88.0106 902.405 L 80.9088 902.405"/><path style="fill:none;stroke:#000000" d="M 113.037 902.405 L 122.4 902.405"/><path style="fill:none;stroke:#000000" d="M 88.0106 901.221 L 88.0106 903.589 L 95.1125 902.405 z"/><path style="fill:none;stroke:#000000" d="M 113.037 901.221 L 113.037 903.589 L 105.936 902.405 z"/><text x="124.672957" y="898.700076" style="font-size: 7.215px; fill: #000000; font-family: Arial; text-anchor: start" sodipodi:linespacing="125%"><tspan sodipodi:role="line" dx="0.000000" dy="7.215462" dominant-baseline="central">.08</tspan></text><path d="M 106.185667,878.864057 A 0.250000,0.250000 0.000000 0, 0 105.685667,878.864057 A 0.250000,0.250000 0.000000 0, 0 106.185667,878.864057 z" style="fill:none;stroke:#000000"/><path d="M 95.362474,878.864057 A 0.250000,0.250000 0.000000 0, 0 94.862474,878.864057 A 0.250000,0.250000 0.000000 0, 0 95.362474,878.864057 z" style="fill:none;stroke:#000000"/><path d="M 95.362474,902.405037 A 0.250000,0.250000 0.000000 0, 0 94.862474,902.405037 A 0.250000,0.250000 0.000000 0, 0 95.362474,902.405037 z" style="fill:none;stroke:#000000"/></symbol><symbol id="*D13"><path style="fill:none;stroke:#000000" d="M 117.3 610.449 L 23.597 610.449"/><path style="fill:none;stroke:#000000" d="M 92.7674 881.029 L 23.597 881.029"/><path style="fill:none;stroke:#000000" d="M 32.6163 617.551 L 32.6163 739.782"/><path style="fill:none;stroke:#000000" d="M 32.6163 873.927 L 32.6163 751.696"/><path style="fill:none;stroke:#000000" d="M 31.4327 617.551 L 33.8 617.551 L 32.6163 610.449 z"/><path style="fill:none;stroke:#000000" d="M 31.4327 873.927 L 33.8 873.927 L 32.6163 881.029 z"/><text x="23.492116" y="742.054298" style="font-size: 7.215px; fill: #000000; font-family: Arial; text-anchor: start" sodipodi:linespacing="125%"><tspan sodipodi:role="line" dx="0.000000" dy="7.215462" dominant-baseline="central">1.88</tspan></text><path d="M 122.059683,610.448882 A 0.250000,0.250000 0.000000 0, 0 121.559683,610.448882 A 0.250000,0.250000 0.000000 0, 0 122.059683,610.448882 z" style="fill:none;stroke:#000000"/><path d="M 97.527113,881.028696 A 0.250000,0.250000 0.000000 0, 0 97.027113,881.028696 A 0.250000,0.250000 0.000000 0, 0 97.527113,881.028696 z" style="fill:none;stroke:#000000"/><path d="M 32.866349,881.028696 A 0.250000,0.250000 0.000000 0, 0 32.366349,881.028696 A 0.250000,0.250000 0.000000 0, 0 32.866349,881.028696 z" style="fill:none;stroke:#000000"/></symbol><symbol id="*D14"><path style="fill:none;stroke:#000000" d="M 110.265 617.484 L 110.265 584.317"/><path style="fill:none;stroke:#000000" d="M 123.974 608.104 L 123.974 584.317"/><path style="fill:none;stroke:#000000" d="M 103.163 593.337 L 96.0613 593.337"/><path style="fill:none;stroke:#000000" d="M 131.076 593.337 L 161.765 593.337"/><path style="fill:none;stroke:#000000" d="M 103.163 592.153 L 103.163 594.52 L 110.265 593.337 z"/><path style="fill:none;stroke:#000000" d="M 131.076 592.153 L 131.076 594.52 L 123.974 593.337 z"/><text x="164.037829" y="589.631676" style="font-size: 7.215px; fill: #000000; font-family: Arial; text-anchor: start" sodipodi:linespacing="125%"><tspan sodipodi:role="line" dx="0.000000" dy="7.215462" dominant-baseline="central">.09</tspan></text><path d="M 110.514944,621.993621 A 0.250000,0.250000 0.000000 0, 0 110.014944,621.993621 A 0.250000,0.250000 0.000000 0, 0 110.514944,621.993621 z" style="fill:none;stroke:#000000"/><path d="M 124.224321,612.613521 A 0.250000,0.250000 0.000000 0, 0 123.724321,612.613521 A 0.250000,0.250000 0.000000 0, 0 124.224321,612.613521 z" style="fill:none;stroke:#000000"/><path d="M 124.224321,593.336636 A 0.250000,0.250000 0.000000 0, 0 123.724321,593.336636 A 0.250000,0.250000 0.000000 0, 0 124.224321,593.336636 z" style="fill:none;stroke:#000000"/></symbol><symbol id="*D15"><path style="fill:none;stroke:#000000" d="M 123.974 608.104 L 123.974 546.507"/><path style="fill:none;stroke:#000000" d="M 95.1125 698.297 L 95.1125 546.507"/><path style="fill:none;stroke:#000000" d="M 102.214 555.526 L 116.872 555.526"/><path style="fill:none;stroke:#000000" d="M 123.974 555.526 L 133.305 555.526"/><path style="fill:none;stroke:#000000" d="M 102.214 554.342 L 102.214 556.71 L 95.1125 555.526 z"/><path style="fill:none;stroke:#000000" d="M 116.872 554.342 L 116.872 556.71 L 123.974 555.526 z"/><text x="135.577217" y="551.820982" style="font-size: 7.215px; fill: #000000; font-family: Arial; text-anchor: start" sodipodi:linespacing="125%"><tspan sodipodi:role="line" dx="0.000000" dy="7.215462" dominant-baseline="central">.20</tspan></text><path d="M 124.224321,612.613521 A 0.250000,0.250000 0.000000 0, 0 123.724321,612.613521 A 0.250000,0.250000 0.000000 0, 0 124.224321,612.613521 z" style="fill:none;stroke:#000000"/><path d="M 95.362474,702.806792 A 0.250000,0.250000 0.000000 0, 0 94.862474,702.806792 A 0.250000,0.250000 0.000000 0, 0 95.362474,702.806792 z" style="fill:none;stroke:#000000"/><path d="M 95.362474,555.525942 A 0.250000,0.250000 0.000000 0, 0 94.862474,555.525942 A 0.250000,0.250000 0.000000 0, 0 95.362474,555.525942 z" style="fill:none;stroke:#000000"/></symbol></defs><g inkscape:groupmode="layer" inkscape:label="0"><use xlink:href="#BORDERS_MONARCHMODERNBORDE" style="stroke-width:0.250px" transform="matrix(2 0 0 2 0 -1122.52)"/><use xlink:href="#TITLE_BLOCKS_MONARCHMODERN" style="stroke-width:0.250px" transform="matrix(2 0 0 2 0.0201222 -1122.53)"/></g><g inkscape:groupmode="layer" inkscape:label="BORDER__ANSI_"/><g inkscape:groupmode="layer" inkscape:label="BREAK_LINE__ANSI_"><path d="M 594.870063,804.493261 L 594.870063,769.275491 L 603.889394,766.858769 L 585.850733,756.444148 L 594.870063,754.027426 L 594.870063,718.809656" style="fill:none;stroke:#000000"/><path d="M 630.947371,804.493261 L 630.947371,769.275491 L 639.966702,766.858769 L 621.928041,756.444148 L 630.947371,754.027426 L 630.947371,718.809656" style="fill:none;stroke:#000000"/></g><g inkscape:groupmode="layer" inkscape:label="CENTER_MARK__ANSI_"><path style="fill:none;stroke:#000000;stroke-dasharray:34.0858,4.2643,8.5215,4.2643," d="M 305.659 772.132 L 280.296 772.132"/><path style="fill:none;stroke:#000000;stroke-dasharray:34.0858,4.2643,8.5215,4.2643," d="M 292.977 759.451 L 292.977 784.813"/><path style="fill:none;stroke:#000000;stroke-dasharray:34.0858,4.2643,8.5215,4.2643," d="M 594.277 772.132 L 568.915 772.132"/><path style="fill:none;stroke:#000000;stroke-dasharray:34.0858,4.2643,8.5215,4.2643," d="M 581.596 759.451 L 581.596 784.813"/><path style="fill:none;stroke:#000000;stroke-dasharray:34.0858,4.2643,8.5215,4.2643," d="M 655.818 772.132 L 634.117 772.132"/><path style="fill:none;stroke:#000000;stroke-dasharray:34.0858,4.2643,8.5215,4.2643," d="M 643.137 759.451 L 643.137 784.813"/></g><g inkscape:groupmode="layer" inkscape:label="DIMENSION__ANSI_"><use xlink:href="#*D6" transform="translate(0 0)"/><use xlink:href="#*D7" transform="translate(0 0)"/><use xlink:href="#*D8" transform="translate(0 0)"/><use xlink:href="#*D9" transform="translate(0 0)"/><use xlink:href="#*D10" transform="translate(0 0)"/><use xlink:href="#*D11" transform="translate(0 0)"/><use xlink:href="#*D12" transform="translate(0 0)"/><use xlink:href="#*D13" transform="translate(0 0)"/><use xlink:href="#*D14" transform="translate(0 0)"/><use xlink:href="#*D15" transform="translate(0 0)"/></g><g inkscape:groupmode="layer" inkscape:label="HATCH__ANSI_"/><g inkscape:groupmode="layer" inkscape:label="SYMBOL__ANSI_"><text x="339.919132" y="704.593620" style="font-size: 7.215px; fill: #000000; font-family: Arial; text-anchor: start" sodipodi:linespacing="125%"><tspan sodipodi:role="line" dx="0.000000" dy="7.215462"></tspan><tspan style="font-size:7.215px"></tspan><tspan></tspan><tspan style="font-size:7.215px">n</tspan><tspan></tspan><tspan style="font-size:7.215px">.20 THRU, 6X </tspan></text><path d="M 294.747358,768.926217 334.095630,708.201351 337.646546,708.201351" style="fill:none;stroke:#000000"/></g><g inkscape:groupmode="layer" inkscape:label="TITLE__ANSI_"/><g inkscape:groupmode="layer" inkscape:label="VISIBLE__ANSI_"><path d="M 646.798545,772.131917 A 3.661847,3.661847 0.000000 0, 0 639.474852,772.131917 A 3.661847,3.661847 0.000000 0, 0 646.798545,772.131917 z" style="fill:none;stroke:#000000"/><path d="M 585.257755,772.131917 A 3.661847,3.661847 0.000000 0, 0 577.934062,772.131917 A 3.661847,3.661847 0.000000 0, 0 585.257755,772.131917 z" style="fill:none;stroke:#000000"/><path d="M 296.639287,772.131917 A 3.661847,3.661847 0.000000 0, 0 289.315594,772.131917 A 3.661847,3.661847 0.000000 0, 0 296.639287,772.131917 z" style="fill:none;stroke:#000000"/><path style="fill:none;stroke:#000000" d="M 148.668 728.37 L 148.668 758.855"/><path style="fill:none;stroke:#000000" d="M 787.446 728.37 L 787.446 758.855"/><path style="fill:none;stroke:#000000" d="M 787.446 759.397 L 627.042 759.397"/><path style="fill:none;stroke:#000000" d="M 148.668 759.938 L 148.668 794.933"/><path style="fill:none;stroke:#000000" d="M 787.446 759.938 L 787.446 794.933"/><path style="fill:none;stroke:#000000" d="M 787.446 795.474 L 630.947 795.474"/><path style="fill:none;stroke:#000000" d="M 787.446 727.829 L 630.947 727.829"/><path style="fill:none;stroke:#000000" d="M 148.668 728.37 L 148.668 727.829"/><path style="fill:none;stroke:#000000" d="M 787.446 728.37 L 787.446 727.829"/><path style="fill:none;stroke:#000000" d="M 148.668 759.397 L 148.668 758.855"/><path style="fill:none;stroke:#000000" d="M 590.965 759.397 L 148.668 759.397"/><path style="fill:none;stroke:#000000" d="M 787.446 759.397 L 787.446 758.855"/><path style="fill:none;stroke:#000000" d="M 148.668 759.397 L 148.668 759.938"/><path style="fill:none;stroke:#000000" d="M 787.446 759.397 L 787.446 759.938"/><path style="fill:none;stroke:#000000" d="M 148.668 795.474 L 148.668 794.933"/><path style="fill:none;stroke:#000000" d="M 594.87 795.474 L 148.668 795.474"/><path style="fill:none;stroke:#000000" d="M 787.446 795.474 L 787.446 794.933"/><path style="fill:none;stroke:#000000" d="M 594.87 727.829 L 148.668 727.829"/><path d="M 95.873023,778.537969 A 4.509664,4.509664 0.000000 0 0 95.873023,771.673467" style="fill:none;stroke:#000000"/><path d="M 95.873023,778.537969 A 2.164639,2.164639 0.000000 0 0 95.112474,780.185449" style="fill:none;stroke:#000000"/><path style="fill:none;stroke:#000000" d="M 95.1125 788.786 L 95.1125 780.185"/><path d="M 95.112474,788.786187 A 2.164639,2.164639 0.000000 0 0 95.873023,790.433668" style="fill:none;stroke:#000000"/><path d="M 95.873023,797.298169 A 4.509664,4.509664 0.000000 0 0 95.873023,790.433668" style="fill:none;stroke:#000000"/><path d="M 95.873023,797.298169 A 2.164639,2.164639 0.000000 0 0 95.112474,798.945650" style="fill:none;stroke:#000000"/><path d="M 97.277113,700.642153 A 2.164639,2.164639 0.000000 0 0 95.112474,702.806792" style="fill:none;stroke:#000000"/><path style="fill:none;stroke:#000000" d="M 97.2771 700.642 L 108.1 700.642"/><path d="M 108.100306,700.642153 A 2.164639,2.164639 0.000000 0 0 110.264944,698.477515" style="fill:none;stroke:#000000"/><path style="fill:none;stroke:#000000" d="M 110.265 698.478 L 110.265 621.994"/><path d="M 110.898952,620.462990 A 2.164639,2.164639 0.000000 0 0 110.264944,621.993621" style="fill:none;stroke:#000000"/><path style="fill:none;stroke:#000000" d="M 110.899 620.463 L 120.279 611.083"/><path d="M 123.974321,612.613521 A 2.164639,2.164639 0.000000 0 0 120.279052,611.082890" style="fill:none;stroke:#000000"/><path style="fill:none;stroke:#000000" d="M 123.974 612.614 L 123.974 734.555"/><path d="M 121.809683,736.719462 A 2.164639,2.164639 0.000000 0 0 123.974321,734.554823" style="fill:none;stroke:#000000"/><path style="fill:none;stroke:#000000" d="M 121.81 736.719 L 108.1 736.719"/><path d="M 108.100306,736.719462 A 2.164639,2.164639 0.000000 0 0 105.935667,738.884100" style="fill:none;stroke:#000000"/><path style="fill:none;stroke:#000000" d="M 105.936 738.884 L 105.936 878.864"/><path d="M 103.771029,881.028696 A 2.164639,2.164639 0.000000 0 0 105.935667,878.864057" style="fill:none;stroke:#000000"/><path style="fill:none;stroke:#000000" d="M 103.771 881.029 L 97.2771 881.029"/><path d="M 95.112474,878.864057 A 2.164639,2.164639 0.000000 0 0 97.277113,881.028696" style="fill:none;stroke:#000000"/><path style="fill:none;stroke:#000000" d="M 95.1125 878.864 L 95.1125 873.986"/><path d="M 95.873023,872.338971 A 2.164639,2.164639 0.000000 0 0 95.112474,873.986452" style="fill:none;stroke:#000000"/><path d="M 95.873023,872.338971 A 4.509664,4.509664 0.000000 0 0 95.873023,865.474470" style="fill:none;stroke:#000000"/><path d="M 95.112474,863.826989 A 2.164639,2.164639 0.000000 0 0 95.873023,865.474470" style="fill:none;stroke:#000000"/><path style="fill:none;stroke:#000000" d="M 95.1125 863.827 L 95.1125 855.226"/><path d="M 95.873023,853.578771 A 2.164639,2.164639 0.000000 0 0 95.112474,855.226251" style="fill:none;stroke:#000000"/><path d="M 95.873023,853.578771 A 4.509664,4.509664 0.000000 0 0 95.873023,846.714269" style="fill:none;stroke:#000000"/><path d="M 95.112474,845.066789 A 2.164639,2.164639 0.000000 0 0 95.873023,846.714269" style="fill:none;stroke:#000000"/><path style="fill:none;stroke:#000000" d="M 95.1125 845.067 L 95.1125 836.466"/><path d="M 95.873023,834.818570 A 2.164639,2.164639 0.000000 0 0 95.112474,836.466051" style="fill:none;stroke:#000000"/><path d="M 95.873023,834.818570 A 4.509664,4.509664 0.000000 0 0 95.873023,827.954069" style="fill:none;stroke:#000000"/><path d="M 95.112474,826.306588 A 2.164639,2.164639 0.000000 0 0 95.873023,827.954069" style="fill:none;stroke:#000000"/><path style="fill:none;stroke:#000000" d="M 95.1125 826.307 L 95.1125 817.706"/><path d="M 95.873023,816.058370 A 2.164639,2.164639 0.000000 0 0 95.112474,817.705850" style="fill:none;stroke:#000000"/><path d="M 95.873023,816.058370 A 4.509664,4.509664 0.000000 0 0 95.873023,809.193868" style="fill:none;stroke:#000000"/><path d="M 95.112474,807.546388 A 2.164639,2.164639 0.000000 0 0 95.873023,809.193868" style="fill:none;stroke:#000000"/><path style="fill:none;stroke:#000000" d="M 95.1125 807.546 L 95.1125 798.946"/><path d="M 95.112474,770.025987 A 2.164639,2.164639 0.000000 0 0 95.873023,771.673467" style="fill:none;stroke:#000000"/><path style="fill:none;stroke:#000000" d="M 95.1125 770.026 L 95.1125 761.425"/><path d="M 95.873023,759.777769 A 2.164639,2.164639 0.000000 0 0 95.112474,761.425249" style="fill:none;stroke:#000000"/><path d="M 95.873023,759.777769 A 4.509664,4.509664 0.000000 0 0 95.873023,752.913267" style="fill:none;stroke:#000000"/><path d="M 95.112474,751.265787 A 2.164639,2.164639 0.000000 0 0 95.873023,752.913267" style="fill:none;stroke:#000000"/><path style="fill:none;stroke:#000000" d="M 95.1125 751.266 L 95.1125 702.807"/></g><g inkscape:groupmode="layer" inkscape:label="DEFPOINTS"/></svg>